MontaguSlab-BlackDisplay.ufo
<glyph name="exclam" format="2">
  <advance width="624"/>
  <unicode hex="0021"/>
  <outline>
    <contour>
      <point x="401" y="552" type="line"/>
      <point x="511" y="918"/>
      <point x="570" y="1129"/>
      <point x="570" y="1247" type="curve" smooth="yes"/>
      <point x="570" y="1420"/>
      <point x="467" y="1522"/>
      <point x="312" y="1522" type="curve" smooth="yes"/>
      <point x="157" y="1522"/>
      <point x="54" y="1420"/>
      <point x="54" y="1247" type="curve" smooth="yes"/>
      <point x="54" y="1129"/>
      <point x="113" y="918"/>
      <point x="223" y="552" type="curve"/>
    </contour>
    <contour>
      <point x="312" y="-22" type="curve" smooth="yes"/>
      <point x="468" y="-22"/>
      <point x="569" y="79"/>
      <point x="569" y="224" type="curve" smooth="yes"/>
      <point x="569" y="369"/>
      <point x="468" y="470"/>
      <point x="312" y="470" type="curve" smooth="yes"/>
      <point x="156" y="470"/>
      <point x="55" y="369"/>
      <point x="55" y="224" type="curve" smooth="yes"/>
      <point x="55" y="79"/>
      <point x="156" y="-22"/>
    </contour>
  </outline>
</glyph>
<glyph name="numbersign" format="2">
  <advance width="1304"/>
  <unicode hex="0023"/>
  <outline>
    <contour>
      <point x="382" y="1500" type="line"/>
      <point x="210" y="0" type="line"/>
      <point x="435" y="0" type="line"/>
      <point x="607" y="1500" type="line"/>
    </contour>
    <contour>
      <point x="869" y="1500" type="line"/>
      <point x="697" y="0" type="line"/>
      <point x="922" y="0" type="line"/>
      <point x="1094" y="1500" type="line"/>
    </contour>
    <contour>
      <point x="62" y="1140" type="line"/>
      <point x="62" y="924" type="line"/>
      <point x="1242" y="924" type="line"/>
      <point x="1242" y="1140" type="line"/>
    </contour>
    <contour>
      <point x="62" y="576" type="line"/>
      <point x="62" y="360" type="line"/>
      <point x="1242" y="360" type="line"/>
      <point x="1242" y="576" type="line"/>
    </contour>
  </outline>
</glyph>
<glyph name="dollar" format="2">
  <advance width="1510"/>
  <unicode hex="0024"/>
  <outline>
    <contour>
      <point x="672" y="1720" type="line"/>
      <point x="672" y="-220" type="line"/>
      <point x="868" y="-220" type="line"/>
      <point x="868" y="1720" type="line"/>
    </contour>
    <component base="S"/>
  </outline>
</glyph>
<glyph name="percent" format="2">
  <advance width="1901"/>
  <unicode hex="0025"/>
  <outline>
    <contour>
      <point x="1328" y="1500" type="line"/>
      <point x="301" y="0" type="line"/>
      <point x="573" y="0" type="line"/>
      <point x="1600" y="1500" type="line"/>
    </contour>
    <contour>
      <point x="457" y="840" type="curve" smooth="yes"/>
      <point x="705" y="840"/>
      <point x="882" y="966"/>
      <point x="882" y="1180" type="curve" smooth="yes"/>
      <point x="882" y="1394"/>
      <point x="705" y="1522"/>
      <point x="457" y="1522" type="curve" smooth="yes"/>
      <point x="209" y="1522"/>
      <point x="32" y="1395"/>
      <point x="32" y="1181" type="curve" smooth="yes"/>
      <point x="32" y="966"/>
      <point x="209" y="840"/>
    </contour>
    <contour>
      <point x="457" y="1000" type="curve" smooth="yes"/>
      <point x="376" y="1000"/>
      <point x="329" y="1062"/>
      <point x="329" y="1181" type="curve" smooth="yes"/>
      <point x="329" y="1297"/>
      <point x="376" y="1362"/>
      <point x="457" y="1362" type="curve" smooth="yes"/>
      <point x="538" y="1362"/>
      <point x="585" y="1300"/>
      <point x="585" y="1190" type="curve" smooth="yes"/>
      <point x="585" y="1066"/>
      <point x="538" y="1000"/>
    </contour>
    <contour>
      <point x="1444" y="-22" type="curve" smooth="yes"/>
      <point x="1692" y="-22"/>
      <point x="1869" y="104"/>
      <point x="1869" y="318" type="curve" smooth="yes"/>
      <point x="1869" y="532"/>
      <point x="1692" y="660"/>
      <point x="1444" y="660" type="curve" smooth="yes"/>
      <point x="1196" y="660"/>
      <point x="1019" y="533"/>
      <point x="1019" y="319" type="curve" smooth="yes"/>
      <point x="1019" y="104"/>
      <point x="1196" y="-22"/>
    </contour>
    <contour>
      <point x="1444" y="138" type="curve" smooth="yes"/>
      <point x="1363" y="138"/>
      <point x="1316" y="200"/>
      <point x="1316" y="319" type="curve" smooth="yes"/>
      <point x="1316" y="435"/>
      <point x="1363" y="500"/>
      <point x="1444" y="500" type="curve" smooth="yes"/>
      <point x="1525" y="500"/>
      <point x="1572" y="438"/>
      <point x="1572" y="328" type="curve" smooth="yes"/>
      <point x="1572" y="204"/>
      <point x="1525" y="138"/>
    </contour>
  </outline>
</glyph>
<glyph name="parenleft" format="2">
  <advance width="642"/>
  <unicode hex="0028"/>
  <outline>
    <contour>
      <point x="454" y="1600" type="line"/>
      <point x="287" y="1439"/>
      <point x="70" y="1116"/>
      <point x="70" y="590" type="curve"/>
      <point x="476" y="590" type="line"/>
      <point x="476" y="1041"/>
      <point x="567" y="1336"/>
      <point x="654" y="1600" type="curve"/>
    </contour>
    <contour>
      <point x="454" y="-420" type="curve"/>
      <point x="654" y="-420" type="line"/>
      <point x="567" y="-156"/>
      <point x="476" y="139"/>
      <point x="476" y="590" type="curve"/>
      <point x="70" y="590" type="line"/>
      <point x="70" y="64"/>
      <point x="287" y="-259"/>
    </contour>
  </outline>
</glyph>
<glyph name="asterisk" format="2">
  <advance width="964"/>
  <unicode hex="002A"/>
  <outline>
    <contour>
      <point x="482" y="1532" type="curve" smooth="yes"/>
      <point x="431" y="1532"/>
      <point x="403" y="1498"/>
      <point x="403" y="1438" type="curve" smooth="yes"/>
      <point x="403" y="1377"/>
      <point x="432" y="1255"/>
      <point x="468" y="1102" type="curve"/>
      <point x="496" y="1102" type="line"/>
      <point x="532" y="1255"/>
      <point x="561" y="1377"/>
      <point x="561" y="1438" type="curve" smooth="yes"/>
      <point x="561" y="1498"/>
      <point x="533" y="1532"/>
    </contour>
    <contour>
      <point x="482" y="672" type="curve" smooth="yes"/>
      <point x="533" y="672"/>
      <point x="561" y="706"/>
      <point x="561" y="766" type="curve" smooth="yes"/>
      <point x="561" y="827"/>
      <point x="532" y="949"/>
      <point x="496" y="1102" type="curve"/>
      <point x="468" y="1102" type="line"/>
      <point x="432" y="949"/>
      <point x="403" y="827"/>
      <point x="403" y="766" type="curve" smooth="yes"/>
      <point x="403" y="706"/>
      <point x="431" y="672"/>
    </contour>
    <contour>
      <point x="912" y="1102" type="curve" smooth="yes"/>
      <point x="912" y="1153"/>
      <point x="878" y="1181"/>
      <point x="818" y="1181" type="curve" smooth="yes"/>
      <point x="757" y="1181"/>
      <point x="635" y="1152"/>
      <point x="482" y="1116" type="curve"/>
      <point x="482" y="1088" type="line"/>
      <point x="635" y="1052"/>
      <point x="757" y="1023"/>
      <point x="818" y="1023" type="curve" smooth="yes"/>
      <point x="878" y="1023"/>
      <point x="912" y="1051"/>
    </contour>
    <contour>
      <point x="52" y="1102" type="curve" smooth="yes"/>
      <point x="52" y="1051"/>
      <point x="86" y="1023"/>
      <point x="146" y="1023" type="curve" smooth="yes"/>
      <point x="207" y="1023"/>
      <point x="329" y="1052"/>
      <point x="482" y="1088" type="curve"/>
      <point x="482" y="1116" type="line"/>
      <point x="329" y="1152"/>
      <point x="207" y="1181"/>
      <point x="146" y="1181" type="curve" smooth="yes"/>
      <point x="86" y="1181"/>
      <point x="52" y="1153"/>
    </contour>
    <contour>
      <point x="786" y="1406" type="curve" smooth="yes"/>
      <point x="750" y="1442"/>
      <point x="706" y="1438"/>
      <point x="664" y="1395" type="curve" smooth="yes"/>
      <point x="621" y="1352"/>
      <point x="555" y="1246"/>
      <point x="472" y="1112" type="curve"/>
      <point x="492" y="1092" type="line"/>
      <point x="626" y="1175"/>
      <point x="732" y="1241"/>
      <point x="775" y="1284" type="curve" smooth="yes"/>
      <point x="818" y="1326"/>
      <point x="822" y="1370"/>
    </contour>
    <contour>
      <point x="178" y="798" type="curve" smooth="yes"/>
      <point x="214" y="762"/>
      <point x="258" y="766"/>
      <point x="300" y="809" type="curve" smooth="yes"/>
      <point x="343" y="852"/>
      <point x="409" y="958"/>
      <point x="492" y="1092" type="curve"/>
      <point x="472" y="1112" type="line"/>
      <point x="338" y="1029"/>
      <point x="232" y="963"/>
      <point x="189" y="920" type="curve" smooth="yes"/>
      <point x="146" y="878"/>
      <point x="142" y="834"/>
    </contour>
    <contour>
      <point x="786" y="798" type="curve" smooth="yes"/>
      <point x="822" y="834"/>
      <point x="818" y="878"/>
      <point x="775" y="920" type="curve" smooth="yes"/>
      <point x="732" y="963"/>
      <point x="626" y="1029"/>
      <point x="492" y="1112" type="curve"/>
      <point x="472" y="1092" type="line"/>
      <point x="555" y="958"/>
      <point x="621" y="852"/>
      <point x="664" y="809" type="curve" smooth="yes"/>
      <point x="706" y="766"/>
      <point x="750" y="762"/>
    </contour>
    <contour>
      <point x="178" y="1406" type="curve" smooth="yes"/>
      <point x="142" y="1370"/>
      <point x="146" y="1326"/>
      <point x="189" y="1284" type="curve" smooth="yes"/>
      <point x="232" y="1241"/>
      <point x="338" y="1175"/>
      <point x="472" y="1092" type="curve"/>
      <point x="492" y="1112" type="line"/>
      <point x="409" y="1246"/>
      <point x="343" y="1352"/>
      <point x="300" y="1395" type="curve" smooth="yes"/>
      <point x="258" y="1438"/>
      <point x="214" y="1442"/>
    </contour>
  </outline>
</glyph>
<glyph name="comma" format="2">
  <advance width="647"/>
  <unicode hex="002C"/>
  <outline>
    <contour>
      <point x="144" y="-326" type="curve"/>
      <point x="344" y="-326" type="line"/>
      <point x="449" y="-246"/>
      <point x="593" y="-38"/>
      <point x="593" y="167" type="curve" smooth="yes"/>
      <point x="593" y="368"/>
      <point x="469" y="470"/>
      <point x="312" y="470" type="curve" smooth="yes"/>
      <point x="156" y="470"/>
      <point x="54" y="372"/>
      <point x="54" y="231" type="curve" smooth="yes"/>
      <point x="54" y="80"/>
      <point x="165" y="-11"/>
      <point x="349" y="-11" type="curve"/>
      <point x="326" y="-110"/>
      <point x="259" y="-221"/>
    </contour>
  </outline>
</glyph>
<glyph name="hyphen" format="2">
  <advance width="996"/>
  <unicode hex="002D"/>
  <outline>
    <contour>
      <point x="142" y="722" type="line"/>
      <point x="142" y="444" type="line"/>
      <point x="854" y="444" type="line"/>
      <point x="854" y="722" type="line"/>
    </contour>
  </outline>
</glyph>
<glyph name="period" format="2">
  <advance width="622"/>
  <unicode hex="002E"/>
  <outline>
    <contour>
      <point x="311" y="-22" type="curve" smooth="yes"/>
      <point x="467" y="-22"/>
      <point x="568" y="79"/>
      <point x="568" y="224" type="curve" smooth="yes"/>
      <point x="568" y="369"/>
      <point x="467" y="470"/>
      <point x="311" y="470" type="curve" smooth="yes"/>
      <point x="155" y="470"/>
      <point x="54" y="369"/>
      <point x="54" y="224" type="curve" smooth="yes"/>
      <point x="54" y="79"/>
      <point x="155" y="-22"/>
    </contour>
  </outline>
</glyph>
<glyph name="slash" format="2">
  <advance width="657"/>
  <unicode hex="002F"/>
  <outline>
    <contour>
      <point x="420" y="1500" type="line"/>
      <point x="-10" y="-440" type="line"/>
      <point x="219" y="-440" type="line"/>
      <point x="649" y="1500" type="line"/>
    </contour>
  </outline>
</glyph>
<glyph name="zero" format="2">
  <advance width="1496"/>
  <unicode hex="0030"/>
  <anchor x="748" y="750" name="center"/>
  <outline>
    <contour>
      <point x="748" y="-22" type="curve" smooth="yes"/>
      <point x="1164" y="-22"/>
      <point x="1450" y="262"/>
      <point x="1450" y="750" type="curve" smooth="yes"/>
      <point x="1450" y="1238"/>
      <point x="1164" y="1522"/>
      <point x="748" y="1522" type="curve" smooth="yes"/>
      <point x="332" y="1522"/>
      <point x="46" y="1238"/>
      <point x="46" y="750" type="curve" smooth="yes"/>
      <point x="46" y="262"/>
      <point x="332" y="-22"/>
    </contour>
    <contour>
      <point x="748" y="172" type="curve" smooth="yes"/>
      <point x="587" y="172"/>
      <point x="492" y="380"/>
      <point x="492" y="750" type="curve" smooth="yes"/>
      <point x="492" y="1121"/>
      <point x="587" y="1328"/>
      <point x="748" y="1328" type="curve" smooth="yes"/>
      <point x="910" y="1328"/>
      <point x="1004" y="1121"/>
      <point x="1004" y="750" type="curve" smooth="yes"/>
      <point x="1004" y="380"/>
      <point x="910" y="172"/>
    </contour>
  </outline>
</glyph>
<glyph name="one" format="2">
  <advance width="956"/>
  <unicode hex="0031"/>
  <outline>
    <contour>
      <point x="478" y="1500" type="line"/>
      <point x="476" y="1489" type="line" smooth="yes"/>
      <point x="445" y="1316"/>
      <point x="361" y="1218"/>
      <point x="64" y="1218" type="curve" smooth="yes"/>
      <point x="34" y="1218" type="line"/>
      <point x="34" y="1028" type="line"/>
      <point x="348" y="1028" type="line"/>
      <point x="348" y="0" type="line"/>
      <point x="752" y="0" type="line"/>
      <point x="752" y="1500" type="line"/>
    </contour>
  </outline>
</glyph>
<glyph name="two" format="2">
  <advance width="1328"/>
  <unicode hex="0032"/>
  <outline>
    <contour>
      <point x="104" y="1112" type="curve" smooth="yes"/>
      <point x="104" y="929"/>
      <point x="219" y="857"/>
      <point x="335" y="852" type="curve" smooth="yes"/>
      <point x="462" y="847"/>
      <point x="531" y="927"/>
      <point x="531" y="1022" type="curve" smooth="yes"/>
      <point x="531" y="1127"/>
      <point x="431" y="1182"/>
      <point x="295" y="1158" type="curve"/>
      <point x="315" y="1075" type="line"/>
      <point x="321" y="1236"/>
      <point x="457" y="1306"/>
      <point x="611" y="1306" type="curve" smooth="yes"/>
      <point x="765" y="1306"/>
      <point x="866" y="1237"/>
      <point x="866" y="1110" type="curve"/>
      <point x="1260" y="1069" type="line"/>
      <point x="1260" y="1379"/>
      <point x="1002" y="1522"/>
      <point x="685" y="1522" type="curve" smooth="yes"/>
      <point x="353" y="1522"/>
      <point x="104" y="1360"/>
    </contour>
    <contour>
      <point x="1260" y="1069" type="curve"/>
      <point x="866" y="1110" type="line"/>
      <point x="866" y="986"/>
      <point x="768" y="916"/>
      <point x="640" y="852" type="curve" smooth="yes"/>
      <point x="524" y="794" type="line" smooth="yes"/>
      <point x="242" y="653"/>
      <point x="72" y="440"/>
      <point x="72" y="70" type="curve" smooth="yes"/>
      <point x="72" y="0" type="line"/>
      <point x="325" y="312" type="line"/>
      <point x="381" y="392"/>
      <point x="463" y="435"/>
      <point x="625" y="488" type="curve" smooth="yes"/>
      <point x="735" y="524" type="line" smooth="yes"/>
      <point x="1023" y="618"/>
      <point x="1260" y="759"/>
    </contour>
    <contour>
      <point x="1252" y="0" type="line"/>
      <point x="1252" y="312" type="line"/>
      <point x="325" y="312" type="line"/>
      <point x="72" y="70" type="line"/>
      <point x="72" y="0" type="line"/>
    </contour>
    <contour>
      <point x="874" y="312" type="curve"/>
      <point x="1252" y="312" type="line"/>
      <point x="1252" y="530" type="line"/>
      <point x="1054" y="530" type="line"/>
      <point x="1054" y="512" type="line" smooth="yes"/>
      <point x="1054" y="362"/>
      <point x="1014" y="312"/>
    </contour>
  </outline>
</glyph>
<glyph name="three" format="2">
  <advance width="1284"/>
  <unicode hex="0033"/>
  <outline>
    <contour>
      <point x="46" y="579" type="line"/>
      <point x="21" y="189"/>
      <point x="245" y="-22"/>
      <point x="649" y="-22" type="curve" smooth="yes"/>
      <point x="1039" y="-22"/>
      <point x="1224" y="195"/>
      <point x="1224" y="451" type="curve" smooth="yes"/>
      <point x="1224" y="737"/>
      <point x="980" y="920"/>
      <point x="446" y="884" type="curve"/>
      <point x="446" y="732" type="line"/>
      <point x="687" y="732"/>
      <point x="821" y="647"/>
      <point x="821" y="499" type="curve" smooth="yes"/>
      <point x="821" y="367"/>
      <point x="734" y="272"/>
      <point x="544" y="272" type="curve" smooth="yes"/>
      <point x="373" y="272"/>
      <point x="241" y="371"/>
      <point x="238" y="579" type="curve"/>
    </contour>
    <contour>
      <point x="72" y="1182" type="curve" smooth="yes"/>
      <point x="72" y="1027"/>
      <point x="182" y="967"/>
      <point x="293" y="962" type="curve" smooth="yes"/>
      <point x="426" y="957"/>
      <point x="499" y="1024"/>
      <point x="499" y="1102" type="curve" smooth="yes"/>
      <point x="499" y="1215"/>
      <point x="403" y="1254"/>
      <point x="273" y="1248" type="curve"/>
      <point x="283" y="1175" type="line"/>
      <point x="322" y="1264"/>
      <point x="415" y="1308"/>
      <point x="569" y="1308" type="curve" smooth="yes"/>
      <point x="717" y="1308"/>
      <point x="814" y="1238"/>
      <point x="814" y="1110" type="curve" smooth="yes"/>
      <point x="814" y="964"/>
      <point x="678" y="902"/>
      <point x="446" y="902" type="curve"/>
      <point x="446" y="818" type="line"/>
      <point x="949" y="804"/>
      <point x="1188" y="925"/>
      <point x="1188" y="1155" type="curve" smooth="yes"/>
      <point x="1188" y="1379"/>
      <point x="953" y="1522"/>
      <point x="641" y="1522" type="curve" smooth="yes"/>
      <point x="330" y="1522"/>
      <point x="72" y="1388"/>
    </contour>
  </outline>
</glyph>
<glyph name="four" format="2">
  <advance width="1390"/>
  <unicode hex="0034"/>
  <outline>
    <contour>
      <point x="1364" y="452" type="line"/>
      <point x="1364" y="662" type="line"/>
      <point x="72" y="662" type="line"/>
      <point x="-10" y="642" type="line"/>
      <point x="-10" y="452" type="line"/>
    </contour>
    <contour>
      <point x="692" y="1500" type="line"/>
      <point x="662" y="1405" type="line"/>
      <point x="662" y="0" type="line"/>
      <point x="1066" y="0" type="line"/>
      <point x="1066" y="1500" type="line"/>
    </contour>
    <contour>
      <point x="688" y="1182" type="line"/>
      <point x="692" y="1500" type="line"/>
      <point x="-10" y="642" type="line"/>
      <point x="246" y="642" type="line"/>
    </contour>
  </outline>
</glyph>
<glyph name="five" format="2">
  <advance width="1290"/>
  <unicode hex="0035"/>
  <outline>
    <contour>
      <point x="68" y="486" type="line"/>
      <point x="68" y="177"/>
      <point x="296" y="-22"/>
      <point x="660" y="-22" type="curve" smooth="yes"/>
      <point x="1016" y="-22"/>
      <point x="1236" y="176"/>
      <point x="1236" y="500" type="curve" smooth="yes"/>
      <point x="1236" y="838"/>
      <point x="985" y="995"/>
      <point x="733" y="995" type="curve" smooth="yes"/>
      <point x="482" y="995"/>
      <point x="337" y="885"/>
      <point x="271" y="666" type="curve"/>
      <point x="327" y="632" type="line"/>
      <point x="368" y="695"/>
      <point x="441" y="751"/>
      <point x="559" y="751" type="curve" smooth="yes"/>
      <point x="719" y="751"/>
      <point x="822" y="648"/>
      <point x="822" y="504" type="curve" smooth="yes"/>
      <point x="822" y="359"/>
      <point x="729" y="254"/>
      <point x="556" y="254" type="curve" smooth="yes"/>
      <point x="381" y="254"/>
      <point x="296" y="373"/>
      <point x="280" y="486" type="curve"/>
    </contour>
    <contour>
      <point x="186" y="1500" type="line"/>
      <point x="102" y="632" type="line"/>
      <point x="327" y="632" type="line"/>
      <point x="346" y="696" type="line"/>
      <point x="415" y="1500" type="line"/>
    </contour>
    <contour>
      <point x="1158" y="1500" type="line"/>
      <point x="186" y="1500" type="line"/>
      <point x="340" y="1198" type="line"/>
      <point x="1158" y="1198" type="line"/>
    </contour>
    <contour>
      <point x="780" y="1198" type="line"/>
      <point x="920" y="1198"/>
      <point x="960" y="1158"/>
      <point x="960" y="1038" type="curve" smooth="yes"/>
      <point x="960" y="1030" type="line"/>
      <point x="1158" y="1030" type="line"/>
      <point x="1158" y="1198" type="line"/>
    </contour>
  </outline>
</glyph>
<glyph name="six" format="2">
  <advance width="1379"/>
  <unicode hex="0036"/>
  <outline>
    <contour>
      <point x="708" y="-22" type="curve" smooth="yes"/>
      <point x="1090" y="-22"/>
      <point x="1321" y="181"/>
      <point x="1321" y="492" type="curve" smooth="yes"/>
      <point x="1321" y="797"/>
      <point x="1111" y="966"/>
      <point x="858" y="966" type="curve" smooth="yes"/>
      <point x="652" y="966"/>
      <point x="523" y="859"/>
      <point x="468" y="717" type="curve"/>
      <point x="46" y="710" type="line"/>
      <point x="43" y="201"/>
      <point x="326" y="-22"/>
    </contour>
    <contour>
      <point x="707" y="172" type="curve" smooth="yes"/>
      <point x="577" y="172"/>
      <point x="501" y="280"/>
      <point x="501" y="452" type="curve" smooth="yes"/>
      <point x="501" y="620"/>
      <point x="577" y="732"/>
      <point x="707" y="732" type="curve" smooth="yes"/>
      <point x="837" y="732"/>
      <point x="913" y="624"/>
      <point x="913" y="452" type="curve" smooth="yes"/>
      <point x="913" y="280"/>
      <point x="837" y="172"/>
    </contour>
    <contour>
      <point x="1274" y="1202" type="curve" smooth="yes"/>
      <point x="1274" y="1390"/>
      <point x="1058" y="1522"/>
      <point x="777" y="1522" type="curve" smooth="yes"/>
      <point x="318" y="1522"/>
      <point x="41" y="1204"/>
      <point x="46" y="710" type="curve"/>
      <point x="468" y="717" type="line"/>
      <point x="461" y="1131"/>
      <point x="591" y="1332"/>
      <point x="834" y="1332" type="curve" smooth="yes"/>
      <point x="946" y="1332"/>
      <point x="1028" y="1274"/>
      <point x="1053" y="1195" type="curve"/>
      <point x="1053" y="1318" type="line"/>
      <point x="927" y="1318"/>
      <point x="847" y="1282"/>
      <point x="847" y="1178" type="curve" smooth="yes"/>
      <point x="847" y="1088"/>
      <point x="932" y="1022"/>
      <point x="1061" y="1022" type="curve" smooth="yes"/>
      <point x="1179" y="1022"/>
      <point x="1274" y="1083"/>
    </contour>
  </outline>
</glyph>
<glyph name="seven" format="2">
  <advance width="1297"/>
  <unicode hex="0037"/>
  <outline>
    <contour>
      <point x="44" y="1500" type="line"/>
      <point x="44" y="1198" type="line"/>
      <point x="944" y="1198" type="line"/>
      <point x="1250" y="1218" type="line"/>
      <point x="1250" y="1500" type="line"/>
    </contour>
    <contour>
      <point x="320" y="0" type="curve"/>
      <point x="778" y="0" type="line"/>
      <point x="756" y="518"/>
      <point x="858" y="894"/>
      <point x="1250" y="1218" type="curve"/>
      <point x="944" y="1198" type="line"/>
      <point x="553" y="977"/>
      <point x="320" y="591"/>
    </contour>
    <contour>
      <point x="422" y="1198" type="curve"/>
      <point x="44" y="1198" type="line"/>
      <point x="44" y="940" type="line"/>
      <point x="242" y="940" type="line"/>
      <point x="242" y="998" type="line" smooth="yes"/>
      <point x="242" y="1148"/>
      <point x="282" y="1198"/>
    </contour>
  </outline>
</glyph>
<glyph name="eight" format="2">
  <advance width="1430"/>
  <unicode hex="0038"/>
  <outline>
    <contour>
      <point x="118" y="1098" type="curve" smooth="yes"/>
      <point x="118" y="792"/>
      <point x="391" y="687"/>
      <point x="640" y="604" type="curve" smooth="yes"/>
      <point x="670" y="594" type="line" smooth="yes"/>
      <point x="788" y="555"/>
      <point x="910" y="500"/>
      <point x="910" y="361" type="curve" smooth="yes"/>
      <point x="910" y="233"/>
      <point x="836" y="156"/>
      <point x="715" y="156" type="curve" smooth="yes"/>
      <point x="578" y="156"/>
      <point x="480" y="247"/>
      <point x="480" y="401" type="curve" smooth="yes"/>
      <point x="480" y="526"/>
      <point x="546" y="608"/>
      <point x="610" y="648" type="curve"/>
      <point x="586" y="724" type="line"/>
      <point x="345" y="690"/>
      <point x="102" y="595"/>
      <point x="102" y="351" type="curve" smooth="yes"/>
      <point x="102" y="109"/>
      <point x="375" y="-22"/>
      <point x="695" y="-22" type="curve" smooth="yes"/>
      <point x="1085" y="-22"/>
      <point x="1348" y="142"/>
      <point x="1348" y="455" type="curve" smooth="yes"/>
      <point x="1348" y="781"/>
      <point x="1045" y="887"/>
      <point x="779" y="976" type="curve" smooth="yes"/>
      <point x="749" y="986" type="line" smooth="yes"/>
      <point x="621" y="1029"/>
      <point x="536" y="1068"/>
      <point x="536" y="1181" type="curve" smooth="yes"/>
      <point x="536" y="1292"/>
      <point x="609" y="1348"/>
      <point x="713" y="1348" type="curve" smooth="yes"/>
      <point x="826" y="1348"/>
      <point x="920" y="1280"/>
      <point x="920" y="1149" type="curve" smooth="yes"/>
      <point x="920" y="1025"/>
      <point x="824" y="957"/>
      <point x="731" y="914" type="curve"/>
      <point x="749" y="856" type="line"/>
      <point x="1022" y="887"/>
      <point x="1288" y="987"/>
      <point x="1288" y="1199" type="curve" smooth="yes"/>
      <point x="1288" y="1400"/>
      <point x="1056" y="1522"/>
      <point x="737" y="1522" type="curve" smooth="yes"/>
      <point x="412" y="1522"/>
      <point x="118" y="1391"/>
    </contour>
  </outline>
</glyph>
<glyph name="question" format="2">
  <advance width="1100"/>
  <unicode hex="003F"/>
  <outline>
    <contour>
      <point x="538" y="-22" type="curve" smooth="yes"/>
      <point x="694" y="-22"/>
      <point x="795" y="79"/>
      <point x="795" y="224" type="curve" smooth="yes"/>
      <point x="795" y="369"/>
      <point x="694" y="470"/>
      <point x="538" y="470" type="curve" smooth="yes"/>
      <point x="382" y="470"/>
      <point x="281" y="369"/>
      <point x="281" y="224" type="curve" smooth="yes"/>
      <point x="281" y="79"/>
      <point x="382" y="-22"/>
    </contour>
    <contour>
      <point x="16" y="1166" type="curve" smooth="yes"/>
      <point x="16" y="990"/>
      <point x="131" y="917"/>
      <point x="247" y="912" type="curve" smooth="yes"/>
      <point x="374" y="907"/>
      <point x="443" y="987"/>
      <point x="443" y="1082" type="curve" smooth="yes"/>
      <point x="443" y="1187"/>
      <point x="343" y="1242"/>
      <point x="207" y="1218" type="curve"/>
      <point x="227" y="1135" type="line"/>
      <point x="237" y="1246"/>
      <point x="347" y="1306"/>
      <point x="478" y="1306" type="curve" smooth="yes"/>
      <point x="608" y="1306"/>
      <point x="694" y="1244"/>
      <point x="694" y="1134" type="curve"/>
      <point x="1088" y="1115" type="line"/>
      <point x="1088" y="1370"/>
      <point x="856" y="1522"/>
      <point x="546" y="1522" type="curve" smooth="yes"/>
      <point x="236" y="1522"/>
      <point x="16" y="1382"/>
    </contour>
    <contour>
      <point x="1088" y="1115" type="curve"/>
      <point x="694" y="1134" type="line"/>
      <point x="694" y="1038"/>
      <point x="623" y="991"/>
      <point x="527" y="927" type="curve" smooth="yes"/>
      <point x="359" y="815"/>
      <point x="379" y="648"/>
      <point x="449" y="552" type="curve"/>
      <point x="627" y="552" type="line"/>
      <point x="635" y="611"/>
      <point x="669" y="648"/>
      <point x="740" y="679" type="curve" smooth="yes"/>
      <point x="898" y="749"/>
      <point x="1088" y="852"/>
    </contour>
  </outline>
</glyph>
<glyph name="A" format="2">
  <advance width="1763"/>
  <unicode hex="0041"/>
  <anchor x="882" y="0" name="bottom"/>
  <anchor x="1598" y="0" name="ogonek"/>
  <anchor x="882" y="1500" name="top"/>
  <outline>
    <contour>
      <point x="91" y="0" type="line"/>
      <point x="333" y="0" type="line"/>
      <point x="849" y="1269" type="line"/>
      <point x="710" y="1270" type="line"/>
      <point x="1216" y="0" type="line"/>
      <point x="1672" y="0" type="line"/>
      <point x="1056" y="1500" type="line"/>
      <point x="707" y="1500" type="line"/>
    </contour>
    <contour>
      <point x="1134" y="433" type="line"/>
      <point x="1134" y="633" type="line"/>
      <point x="436" y="633" type="line"/>
      <point x="436" y="433" type="line"/>
    </contour>
  </outline>
</glyph>
<glyph name="B" format="2">
  <advance width="1571"/>
  <unicode hex="0042"/>
  <anchor x="791" y="0" name="bottom"/>
  <anchor x="791" y="1500" name="top"/>
  <outline>
    <contour>
      <point x="644" y="1500" type="line"/>
      <point x="644" y="1294" type="line"/>
      <point x="779" y="1294" type="line" smooth="yes"/>
      <point x="924" y="1294"/>
      <point x="1011" y="1223"/>
      <point x="1011" y="1081" type="curve" smooth="yes"/>
      <point x="1011" y="939"/>
      <point x="924" y="868"/>
      <point x="779" y="868" type="curve" smooth="yes"/>
      <point x="644" y="868" type="line"/>
      <point x="644" y="764" type="line"/>
      <point x="917" y="764" type="line" smooth="yes"/>
      <point x="1229" y="764"/>
      <point x="1441" y="878"/>
      <point x="1441" y="1128" type="curve" smooth="yes"/>
      <point x="1441" y="1383"/>
      <point x="1229" y="1500"/>
      <point x="917" y="1500" type="curve" smooth="yes"/>
    </contour>
    <contour>
      <point x="644" y="778" type="line"/>
      <point x="644" y="662" type="line"/>
      <point x="846" y="662" type="line" smooth="yes"/>
      <point x="998" y="662"/>
      <point x="1095" y="582"/>
      <point x="1095" y="434" type="curve" smooth="yes"/>
      <point x="1095" y="286"/>
      <point x="998" y="206"/>
      <point x="846" y="206" type="curve" smooth="yes"/>
      <point x="644" y="206" type="line"/>
      <point x="644" y="0" type="line"/>
      <point x="993" y="0" type="line" smooth="yes"/>
      <point x="1315" y="0"/>
      <point x="1525" y="125"/>
      <point x="1525" y="398" type="curve" smooth="yes"/>
      <point x="1525" y="666"/>
      <point x="1315" y="778"/>
      <point x="993" y="778" type="curve" smooth="yes"/>
    </contour>
    <contour>
      <point x="644" y="0" type="line"/>
      <point x="644" y="1500" type="line"/>
      <point x="224" y="1500" type="line"/>
      <point x="224" y="0" type="line"/>
    </contour>
  </outline>
</glyph>
<glyph name="C" format="2">
  <advance width="1589"/>
  <unicode hex="0043"/>
  <anchor x="780" y="0" name="bottom"/>
  <anchor x="799" y="1500" name="top"/>
  <outline>
    <contour>
      <point x="1295" y="915" type="curve"/>
      <point x="1376" y="915" type="line"/>
      <point x="1372" y="1303"/>
      <point x="1172" y="1532"/>
      <point x="769" y="1532" type="curve" smooth="yes"/>
      <point x="358" y="1532"/>
      <point x="38" y="1244"/>
      <point x="38" y="750" type="curve" smooth="yes"/>
      <point x="38" y="256"/>
      <point x="363" y="-32"/>
      <point x="827" y="-32" type="curve" smooth="yes"/>
      <point x="1288" y="-32"/>
      <point x="1489" y="274"/>
      <point x="1501" y="663" type="curve"/>
      <point x="1313" y="663" type="line"/>
      <point x="1286" y="432"/>
      <point x="1168" y="252"/>
      <point x="915" y="252" type="curve" smooth="yes"/>
      <point x="660" y="252"/>
      <point x="498" y="462"/>
      <point x="498" y="772" type="curve" smooth="yes"/>
      <point x="498" y="1094"/>
      <point x="657" y="1308"/>
      <point x="915" y="1308" type="curve" smooth="yes"/>
      <point x="1173" y="1308"/>
      <point x="1282" y="1124"/>
    </contour>
    <contour>
      <point x="1489" y="1500" type="line"/>
      <point x="1273" y="1500" type="line"/>
      <point x="1273" y="1164" type="line"/>
      <point x="1376" y="915" type="line"/>
      <point x="1489" y="915" type="line"/>
    </contour>
  </outline>
</glyph>
<glyph name="D" format="2">
  <advance width="1674"/>
  <unicode hex="0044"/>
  <anchor x="787" y="0" name="bottom"/>
  <anchor x="224" y="750" name="stroke"/>
  <anchor x="787" y="1500" name="top"/>
  <outline>
    <contour>
      <point x="644" y="1500" type="line"/>
      <point x="644" y="1294" type="line"/>
      <point x="778" y="1294" type="line" smooth="yes"/>
      <point x="1017" y="1294"/>
      <point x="1174" y="1085"/>
      <point x="1174" y="750" type="curve" smooth="yes"/>
      <point x="1174" y="415"/>
      <point x="1017" y="206"/>
      <point x="778" y="206" type="curve" smooth="yes"/>
      <point x="644" y="206" type="line"/>
      <point x="644" y="0" type="line"/>
      <point x="840" y="0" type="line" smooth="yes"/>
      <point x="1318" y="0"/>
      <point x="1636" y="270"/>
      <point x="1636" y="750" type="curve" smooth="yes"/>
      <point x="1636" y="1230"/>
      <point x="1318" y="1500"/>
      <point x="840" y="1500" type="curve" smooth="yes"/>
    </contour>
    <contour>
      <point x="644" y="0" type="line"/>
      <point x="644" y="1500" type="line"/>
      <point x="224" y="1500" type="line"/>
      <point x="224" y="0" type="line"/>
    </contour>
  </outline>
</glyph>
<glyph name="E" format="2">
  <advance width="1508"/>
  <unicode hex="0045"/>
  <anchor x="754" y="0" name="bottom"/>
  <anchor x="1424" y="0" name="ogonek"/>
  <anchor x="782" y="1500" name="top"/>
  <outline>
    <contour>
      <point x="1424" y="0" type="line"/>
      <point x="1424" y="204" type="line"/>
      <point x="644" y="204" type="line"/>
      <point x="644" y="0" type="line"/>
    </contour>
    <contour>
      <point x="1410" y="1300" type="line"/>
      <point x="1410" y="1500" type="line"/>
      <point x="644" y="1500" type="line"/>
      <point x="644" y="1300" type="line"/>
    </contour>
    <contour>
      <point x="644" y="0" type="line"/>
      <point x="644" y="1500" type="line"/>
      <point x="224" y="1500" type="line"/>
      <point x="224" y="0" type="line"/>
    </contour>
    <contour>
      <point x="1071" y="672" type="line"/>
      <point x="1071" y="872" type="line"/>
      <point x="644" y="872" type="line"/>
      <point x="644" y="672" type="line"/>
    </contour>
    <contour>
      <point x="992" y="1300" type="line"/>
      <point x="1152" y="1300"/>
      <point x="1212" y="1230"/>
      <point x="1212" y="1060" type="curve" smooth="yes"/>
      <point x="1212" y="940" type="line"/>
      <point x="1410" y="940" type="line"/>
      <point x="1410" y="1300" type="line"/>
    </contour>
    <contour>
      <point x="1006" y="204" type="curve"/>
      <point x="1424" y="204" type="line"/>
      <point x="1424" y="580" type="line"/>
      <point x="1226" y="580" type="line"/>
      <point x="1226" y="444" type="line" smooth="yes"/>
      <point x="1226" y="274"/>
      <point x="1166" y="204"/>
    </contour>
    <contour>
      <point x="669" y="872" type="curve"/>
      <point x="1071" y="872" type="line"/>
      <point x="1071" y="1176" type="line"/>
      <point x="879" y="1176" type="line"/>
      <point x="879" y="1102" type="line" smooth="yes"/>
      <point x="879" y="942"/>
      <point x="819" y="872"/>
    </contour>
    <contour>
      <point x="669" y="672" type="line"/>
      <point x="819" y="672"/>
      <point x="879" y="602"/>
      <point x="879" y="442" type="curve" smooth="yes"/>
      <point x="879" y="332" type="line"/>
      <point x="1071" y="332" type="line"/>
      <point x="1071" y="672" type="line"/>
    </contour>
  </outline>
</glyph>
<glyph name="F" format="2">
  <advance width="1434"/>
  <unicode hex="0046"/>
  <outline>
    <contour>
      <point x="1380" y="1300" type="line"/>
      <point x="1380" y="1500" type="line"/>
      <point x="628" y="1500" type="line"/>
      <point x="628" y="1300" type="line"/>
    </contour>
    <contour>
      <point x="1049" y="662" type="line"/>
      <point x="1049" y="862" type="line"/>
      <point x="628" y="862" type="line"/>
      <point x="628" y="662" type="line"/>
    </contour>
    <contour>
      <point x="962" y="1300" type="line"/>
      <point x="1122" y="1300"/>
      <point x="1182" y="1230"/>
      <point x="1182" y="1060" type="curve" smooth="yes"/>
      <point x="1182" y="920" type="line"/>
      <point x="1380" y="920" type="line"/>
      <point x="1380" y="1300" type="line"/>
    </contour>
    <contour>
      <point x="647" y="862" type="curve"/>
      <point x="1049" y="862" type="line"/>
      <point x="1049" y="1178" type="line"/>
      <point x="857" y="1178" type="line"/>
      <point x="857" y="1092" type="line" smooth="yes"/>
      <point x="857" y="932"/>
      <point x="797" y="862"/>
    </contour>
    <contour>
      <point x="647" y="662" type="line"/>
      <point x="797" y="662"/>
      <point x="857" y="592"/>
      <point x="857" y="432" type="curve" smooth="yes"/>
      <point x="857" y="306" type="line"/>
      <point x="1049" y="306" type="line"/>
      <point x="1049" y="662" type="line"/>
    </contour>
    <contour>
      <point x="208" y="1500" type="line"/>
      <point x="208" y="0" type="line"/>
      <point x="628" y="0" type="line"/>
      <point x="628" y="1500" type="line"/>
    </contour>
  </outline>
</glyph>
<glyph name="G" format="2">
  <advance width="1700"/>
  <unicode hex="0047"/>
  <anchor x="839" y="0" name="bottom"/>
  <anchor x="811" y="1500" name="top"/>
  <outline>
    <contour>
      <point x="1269" y="935" type="curve"/>
      <point x="1350" y="935" type="line"/>
      <point x="1346" y="1307"/>
      <point x="1176" y="1532"/>
      <point x="779" y="1532" type="curve" smooth="yes"/>
      <point x="365" y="1532"/>
      <point x="38" y="1244"/>
      <point x="38" y="750" type="curve" smooth="yes"/>
      <point x="38" y="256"/>
      <point x="365" y="-32"/>
      <point x="797" y="-32" type="curve" smooth="yes"/>
      <point x="1240" y="-32"/>
      <point x="1393" y="238"/>
      <point x="1399" y="589" type="curve"/>
      <point x="1322" y="589" type="line"/>
      <point x="1306" y="371"/>
      <point x="1183" y="202"/>
      <point x="927" y="202" type="curve" smooth="yes"/>
      <point x="664" y="202"/>
      <point x="506" y="416"/>
      <point x="506" y="750" type="curve" smooth="yes"/>
      <point x="506" y="1090"/>
      <point x="661" y="1308"/>
      <point x="917" y="1308" type="curve" smooth="yes"/>
      <point x="1158" y="1308"/>
      <point x="1256" y="1133"/>
    </contour>
    <contour>
      <point x="1473" y="1500" type="line"/>
      <point x="1257" y="1500" type="line"/>
      <point x="1257" y="1164" type="line"/>
      <point x="1350" y="935" type="line"/>
      <point x="1473" y="935" type="line"/>
    </contour>
    <contour>
      <point x="879" y="795" type="line"/>
      <point x="879" y="589" type="line"/>
      <point x="1708" y="589" type="line"/>
      <point x="1708" y="795" type="line"/>
    </contour>
    <contour>
      <point x="1532" y="589" type="line"/>
      <point x="1399" y="589" type="line"/>
      <point x="1314" y="367" type="line"/>
      <point x="1314" y="0" type="line"/>
      <point x="1532" y="0" type="line"/>
    </contour>
  </outline>
</glyph>
<glyph name="H" format="2">
  <advance width="1761"/>
  <unicode hex="0048"/>
  <anchor x="881" y="0" name="bottom"/>
  <anchor x="881" y="750" name="center"/>
  <anchor x="881" y="1500" name="top"/>
  <anchor x="20" y="1500" name="topleft"/>
  <outline>
    <contour>
      <point x="1120" y="639" type="line"/>
      <point x="1120" y="847" type="line"/>
      <point x="644" y="847" type="line"/>
      <point x="644" y="639" type="line"/>
    </contour>
    <contour>
      <point x="644" y="0" type="line"/>
      <point x="644" y="1500" type="line"/>
      <point x="224" y="1500" type="line"/>
      <point x="224" y="0" type="line"/>
    </contour>
    <contour>
      <point x="1540" y="0" type="line"/>
      <point x="1540" y="1500" type="line"/>
      <point x="1120" y="1500" type="line"/>
      <point x="1120" y="0" type="line"/>
    </contour>
  </outline>
</glyph>
<glyph name="I" format="2">
  <advance width="888"/>
  <unicode hex="0049"/>
  <anchor x="444" y="0" name="bottom"/>
  <anchor x="654" y="0" name="ogonek"/>
  <anchor x="444" y="1500" name="top"/>
  <anchor x="20" y="1500" name="topleft"/>
  <outline>
    <contour>
      <point x="654" y="1501" type="line"/>
      <point x="234" y="1501" type="line"/>
      <point x="234" y="0" type="line"/>
      <point x="654" y="0" type="line"/>
    </contour>
  </outline>
</glyph>
<glyph name="J" format="2">
  <advance width="1227"/>
  <unicode hex="004A"/>
  <anchor x="611" y="0" name="bottom"/>
  <anchor x="731" y="1500" name="top"/>
  <outline>
    <contour>
      <point x="1012" y="1500" type="line"/>
      <point x="592" y="1500" type="line"/>
      <point x="592" y="418" type="line" smooth="yes"/>
      <point x="592" y="313"/>
      <point x="540" y="238"/>
      <point x="418" y="238" type="curve" smooth="yes"/>
      <point x="296" y="238"/>
      <point x="248" y="314"/>
      <point x="248" y="418" type="curve" smooth="yes"/>
      <point x="248" y="597" type="line"/>
      <point x="50" y="597" type="line"/>
      <point x="50" y="418" type="line" smooth="yes"/>
      <point x="50" y="126"/>
      <point x="227" y="-32"/>
      <point x="531" y="-32" type="curve" smooth="yes"/>
      <point x="835" y="-32"/>
      <point x="1012" y="126"/>
      <point x="1012" y="418" type="curve" smooth="yes"/>
    </contour>
  </outline>
</glyph>
<glyph name="K" format="2">
  <advance width="1715"/>
  <unicode hex="004B"/>
  <anchor x="858" y="0" name="bottom"/>
  <anchor x="858" y="1500" name="top"/>
  <outline>
    <contour>
      <point x="644" y="1500" type="line"/>
      <point x="224" y="1500" type="line"/>
      <point x="224" y="0" type="line"/>
      <point x="644" y="0" type="line"/>
    </contour>
    <contour>
      <point x="1707" y="1500" type="line"/>
      <point x="1385" y="1500" type="line"/>
      <point x="422" y="605" type="line"/>
      <point x="562" y="446" type="line"/>
    </contour>
    <contour>
      <point x="1721" y="0" type="line"/>
      <point x="996" y="942" type="line"/>
      <point x="705" y="676" type="line"/>
      <point x="1197" y="0" type="line"/>
    </contour>
  </outline>
</glyph>
<glyph name="L" format="2">
  <advance width="1446"/>
  <unicode hex="004C"/>
  <anchor x="723" y="0" name="bottom"/>
  <anchor x="434" y="1240" name="center"/>
  <anchor x="434" y="1500" name="top"/>
  <anchor x="953" y="1500" name="topright"/>
  <outline>
    <contour>
      <point x="1394" y="0" type="line"/>
      <point x="1394" y="206" type="line"/>
      <point x="644" y="206" type="line"/>
      <point x="644" y="0" type="line"/>
    </contour>
    <contour>
      <point x="976" y="206" type="curve"/>
      <point x="1394" y="206" type="line"/>
      <point x="1394" y="560" type="line"/>
      <point x="1196" y="560" type="line"/>
      <point x="1196" y="446" type="line" smooth="yes"/>
      <point x="1196" y="276"/>
      <point x="1136" y="206"/>
    </contour>
    <contour>
      <point x="644" y="0" type="line"/>
      <point x="644" y="1500" type="line"/>
      <point x="224" y="1500" type="line"/>
      <point x="224" y="0" type="line"/>
    </contour>
  </outline>
</glyph>
<glyph name="M" format="2">
  <advance width="2129"/>
  <unicode hex="004D"/>
  <anchor x="972" y="0" name="bottom"/>
  <anchor x="1063" y="1500" name="top"/>
  <outline>
    <contour>
      <point x="444" y="0" type="line"/>
      <point x="444" y="928" type="line"/>
      <point x="444" y="1500" type="line"/>
      <point x="224" y="1500" type="line"/>
      <point x="224" y="0" type="line"/>
    </contour>
    <contour>
      <point x="1905" y="0" type="line"/>
      <point x="1905" y="1500" type="line"/>
      <point x="1493" y="1500" type="line"/>
      <point x="1493" y="0" type="line"/>
    </contour>
    <contour>
      <point x="444" y="928" type="line"/>
      <point x="839" y="0" type="line"/>
      <point x="1102" y="0" type="line"/>
      <point x="1493" y="981" type="line"/>
      <point x="1493" y="1500" type="line"/>
      <point x="1478" y="1500" type="line"/>
      <point x="1037" y="395" type="line"/>
      <point x="1108" y="395" type="line"/>
      <point x="638" y="1500" type="line"/>
      <point x="444" y="1500" type="line"/>
    </contour>
  </outline>
</glyph>
<glyph name="O" format="2">
  <advance width="1764"/>
  <unicode hex="004F"/>
  <anchor x="882" y="0" name="bottom"/>
  <anchor x="1229" y="0" name="ogonek"/>
  <anchor x="882" y="1500" name="top"/>
  <anchor x="0" y="1500" name="topleft"/>
  <anchor x="1565" y="1270" name="topright"/>
  <outline>
    <contour>
      <point x="882" y="-32" type="curve" smooth="yes"/>
      <point x="1382" y="-32"/>
      <point x="1726" y="256"/>
      <point x="1726" y="750" type="curve" smooth="yes"/>
      <point x="1726" y="1244"/>
      <point x="1382" y="1532"/>
      <point x="882" y="1532" type="curve" smooth="yes"/>
      <point x="382" y="1532"/>
      <point x="38" y="1244"/>
      <point x="38" y="750" type="curve" smooth="yes"/>
      <point x="38" y="256"/>
      <point x="382" y="-32"/>
    </contour>
    <contour>
      <point x="882" y="162" type="curve" smooth="yes"/>
      <point x="645" y="162"/>
      <point x="506" y="374"/>
      <point x="506" y="750" type="curve" smooth="yes"/>
      <point x="506" y="1127"/>
      <point x="645" y="1338"/>
      <point x="882" y="1338" type="curve" smooth="yes"/>
      <point x="1120" y="1338"/>
      <point x="1258" y="1127"/>
      <point x="1258" y="750" type="curve" smooth="yes"/>
      <point x="1258" y="374"/>
      <point x="1120" y="162"/>
    </contour>
  </outline>
</glyph>
<glyph name="P" format="2">
  <advance width="1499"/>
  <unicode hex="0050"/>
  <anchor x="750" y="0" name="bottom"/>
  <anchor x="750" y="1500" name="top"/>
  <outline>
    <contour>
      <point x="644" y="1500" type="line"/>
      <point x="644" y="1300" type="line"/>
      <point x="786" y="1300" type="line" smooth="yes"/>
      <point x="945" y="1300"/>
      <point x="1043" y="1223"/>
      <point x="1043" y="1069" type="curve" smooth="yes"/>
      <point x="1043" y="915"/>
      <point x="945" y="838"/>
      <point x="786" y="838" type="curve" smooth="yes"/>
      <point x="644" y="838" type="line"/>
      <point x="644" y="638" type="line"/>
      <point x="940" y="638" type="line" smooth="yes"/>
      <point x="1261" y="638"/>
      <point x="1473" y="783"/>
      <point x="1473" y="1069" type="curve" smooth="yes"/>
      <point x="1473" y="1355"/>
      <point x="1261" y="1500"/>
      <point x="940" y="1500" type="curve" smooth="yes"/>
    </contour>
    <contour>
      <point x="224" y="1500" type="line"/>
      <point x="224" y="0" type="line"/>
      <point x="644" y="0" type="line"/>
      <point x="644" y="1500" type="line"/>
    </contour>
  </outline>
</glyph>
<glyph name="Q" format="2">
  <advance width="1764"/>
  <unicode hex="0051"/>
  <anchor x="882" y="0" name="bottom"/>
  <anchor x="882" y="1500" name="top"/>
  <outline>
    <contour>
      <point x="886" y="677" type="curve" smooth="yes"/>
      <point x="718" y="677"/>
      <point x="614" y="578"/>
      <point x="614" y="385" type="curve" smooth="yes"/>
      <point x="614" y="67" type="line"/>
      <point x="796" y="67" type="line"/>
      <point x="796" y="419" type="line" smooth="yes"/>
      <point x="796" y="452"/>
      <point x="811" y="471"/>
      <point x="840" y="471" type="curve" smooth="yes"/>
      <point x="869" y="471"/>
      <point x="884" y="452"/>
      <point x="884" y="419" type="curve" smooth="yes"/>
      <point x="884" y="0" type="line"/>
      <point x="1158" y="0" type="line"/>
      <point x="1158" y="385" type="line" smooth="yes"/>
      <point x="1158" y="578"/>
      <point x="1054" y="677"/>
    </contour>
    <contour>
      <point x="1150" y="-380" type="curve" smooth="yes"/>
      <point x="1314" y="-380"/>
      <point x="1416" y="-285"/>
      <point x="1416" y="-98" type="curve" smooth="yes"/>
      <point x="1416" y="-40" type="line"/>
      <point x="1246" y="-40" type="line"/>
      <point x="1246" y="-132" type="line" smooth="yes"/>
      <point x="1246" y="-165"/>
      <point x="1231" y="-184"/>
      <point x="1202" y="-184" type="curve" smooth="yes"/>
      <point x="1173" y="-184"/>
      <point x="1158" y="-165"/>
      <point x="1158" y="-132" type="curve" smooth="yes"/>
      <point x="1158" y="0" type="line"/>
      <point x="884" y="0" type="line"/>
      <point x="884" y="-98" type="line" smooth="yes"/>
      <point x="884" y="-285"/>
      <point x="986" y="-380"/>
    </contour>
    <contour>
      <point x="882" y="-32" type="curve" smooth="yes"/>
      <point x="1382" y="-32"/>
      <point x="1726" y="256"/>
      <point x="1726" y="750" type="curve" smooth="yes"/>
      <point x="1726" y="1244"/>
      <point x="1382" y="1532"/>
      <point x="882" y="1532" type="curve" smooth="yes"/>
      <point x="382" y="1532"/>
      <point x="38" y="1244"/>
      <point x="38" y="750" type="curve" smooth="yes"/>
      <point x="38" y="256"/>
      <point x="382" y="-32"/>
    </contour>
    <contour>
      <point x="882" y="162" type="curve" smooth="yes"/>
      <point x="639" y="162"/>
      <point x="496" y="374"/>
      <point x="496" y="750" type="curve" smooth="yes"/>
      <point x="496" y="1127"/>
      <point x="639" y="1338"/>
      <point x="882" y="1338" type="curve" smooth="yes"/>
      <point x="1126" y="1338"/>
      <point x="1268" y="1127"/>
      <point x="1268" y="750" type="curve" smooth="yes"/>
      <point x="1268" y="353"/>
      <point x="1126" y="162"/>
    </contour>
  </outline>
</glyph>
<glyph name="R" format="2">
  <advance width="1642"/>
  <unicode hex="0052"/>
  <anchor x="830" y="0" name="bottom"/>
  <anchor x="806" y="1500" name="top"/>
  <outline>
    <contour>
      <point x="1567" y="1096" type="curve" smooth="yes"/>
      <point x="1567" y="1364"/>
      <point x="1355" y="1500"/>
      <point x="1036" y="1500" type="curve" smooth="yes"/>
      <point x="644" y="1500" type="line"/>
      <point x="644" y="1300" type="line"/>
      <point x="882" y="1300" type="line" smooth="yes"/>
      <point x="1039" y="1300"/>
      <point x="1137" y="1227"/>
      <point x="1137" y="1079" type="curve" smooth="yes"/>
      <point x="1137" y="931"/>
      <point x="1039" y="858"/>
      <point x="882" y="858" type="curve" smooth="yes"/>
      <point x="644" y="858" type="line"/>
      <point x="644" y="658" type="line"/>
      <point x="811" y="658" type="line"/>
      <point x="868" y="698" type="line"/>
      <point x="1036" y="698" type="line" smooth="yes"/>
      <point x="1355" y="698"/>
      <point x="1567" y="832"/>
    </contour>
    <contour>
      <point x="644" y="700" type="line"/>
      <point x="644" y="658" type="line"/>
      <point x="671" y="658" type="line" smooth="yes"/>
      <point x="781" y="658"/>
      <point x="843" y="609"/>
      <point x="848" y="473" type="curve" smooth="yes"/>
      <point x="852" y="370" type="line" smooth="yes"/>
      <point x="861" y="136"/>
      <point x="963" y="-22"/>
      <point x="1223" y="-22" type="curve" smooth="yes"/>
      <point x="1477" y="-22"/>
      <point x="1586" y="125"/>
      <point x="1586" y="342" type="curve" smooth="yes"/>
      <point x="1586" y="673" type="line"/>
      <point x="1382" y="673" type="line"/>
      <point x="1382" y="330" type="line" smooth="yes"/>
      <point x="1382" y="273"/>
      <point x="1358" y="248"/>
      <point x="1316" y="248" type="curve" smooth="yes"/>
      <point x="1278" y="248"/>
      <point x="1250" y="273"/>
      <point x="1250" y="330" type="curve" smooth="yes"/>
      <point x="1250" y="357" type="line" smooth="yes"/>
      <point x="1250" y="559"/>
      <point x="1152" y="700"/>
      <point x="882" y="700" type="curve" smooth="yes"/>
    </contour>
    <contour>
      <point x="224" y="1500" type="line"/>
      <point x="224" y="0" type="line"/>
      <point x="644" y="0" type="line"/>
      <point x="644" y="1500" type="line"/>
    </contour>
  </outline>
</glyph>
<glyph name="S" format="2">
  <advance width="1510"/>
  <unicode hex="0053"/>
  <anchor x="823" y="0" name="bottom"/>
  <anchor x="707" y="1500" name="top"/>
  <outline>
    <contour>
      <point x="102" y="1071" type="curve" smooth="yes"/>
      <point x="102" y="755"/>
      <point x="360" y="605"/>
      <point x="698" y="552" type="curve" smooth="yes"/>
      <point x="838" y="530" type="line" smooth="yes"/>
      <point x="961" y="511"/>
      <point x="1062" y="463"/>
      <point x="1062" y="347" type="curve" smooth="yes"/>
      <point x="1062" y="233"/>
      <point x="985" y="170"/>
      <point x="847" y="170" type="curve" smooth="yes"/>
      <point x="614" y="170"/>
      <point x="416" y="307"/>
      <point x="332" y="540" type="curve"/>
      <point x="245" y="540" type="line"/>
      <point x="289" y="125"/>
      <point x="568" y="-32"/>
      <point x="895" y="-32" type="curve" smooth="yes"/>
      <point x="1220" y="-32"/>
      <point x="1432" y="131"/>
      <point x="1432" y="451" type="curve" smooth="yes"/>
      <point x="1432" y="774"/>
      <point x="1170" y="899"/>
      <point x="816" y="955" type="curve" smooth="yes"/>
      <point x="676" y="977" type="line" smooth="yes"/>
      <point x="556" y="996"/>
      <point x="466" y="1055"/>
      <point x="466" y="1163" type="curve" smooth="yes"/>
      <point x="466" y="1272"/>
      <point x="546" y="1334"/>
      <point x="683" y="1334" type="curve" smooth="yes"/>
      <point x="886" y="1334"/>
      <point x="1075" y="1202"/>
      <point x="1154" y="981" type="curve"/>
      <point x="1239" y="981" type="line"/>
      <point x="1181" y="1379"/>
      <point x="924" y="1532"/>
      <point x="624" y="1532" type="curve" smooth="yes"/>
      <point x="322" y="1532"/>
      <point x="102" y="1387"/>
    </contour>
    <contour>
      <point x="1352" y="1501" type="line"/>
      <point x="1136" y="1501" type="line"/>
      <point x="1136" y="1115" type="line"/>
      <point x="1239" y="981" type="line"/>
      <point x="1352" y="981" type="line"/>
    </contour>
    <contour>
      <point x="134" y="0" type="line"/>
      <point x="350" y="0" type="line"/>
      <point x="350" y="387" type="line"/>
      <point x="245" y="540" type="line"/>
      <point x="134" y="540" type="line"/>
    </contour>
  </outline>
</glyph>
<glyph name="T" format="2">
  <advance width="1596"/>
  <unicode hex="0054"/>
  <anchor x="798" y="0" name="bottom"/>
  <anchor x="798" y="710" name="center"/>
  <anchor x="798" y="1500" name="top"/>
  <outline>
    <contour>
      <point x="1008" y="0" type="line"/>
      <point x="1008" y="1500" type="line"/>
      <point x="588" y="1500" type="line"/>
      <point x="588" y="0" type="line"/>
    </contour>
    <contour>
      <point x="1538" y="1302" type="line"/>
      <point x="1538" y="1500" type="line"/>
      <point x="58" y="1500" type="line"/>
      <point x="58" y="1302" type="line"/>
    </contour>
    <contour>
      <point x="1120" y="1302" type="line"/>
      <point x="1280" y="1302"/>
      <point x="1340" y="1232"/>
      <point x="1340" y="1062" type="curve" smooth="yes"/>
      <point x="1340" y="920" type="line"/>
      <point x="1538" y="920" type="line"/>
      <point x="1538" y="1302" type="line"/>
    </contour>
    <contour>
      <point x="476" y="1302" type="curve"/>
      <point x="58" y="1302" type="line"/>
      <point x="58" y="920" type="line"/>
      <point x="256" y="920" type="line"/>
      <point x="256" y="1062" type="line" smooth="yes"/>
      <point x="256" y="1232"/>
      <point x="316" y="1302"/>
    </contour>
  </outline>
</glyph>
<glyph name="U" format="2">
  <advance width="1738"/>
  <unicode hex="0055"/>
  <anchor x="869" y="0" name="bottom"/>
  <anchor x="1204" y="0" name="ogonek"/>
  <anchor x="934" y="1500" name="top"/>
  <anchor x="1523" y="1501" name="topright"/>
  <outline>
    <contour>
      <point x="215" y="578" type="line" smooth="yes"/>
      <point x="215" y="196"/>
      <point x="439" y="-22"/>
      <point x="869" y="-22" type="curve" smooth="yes"/>
      <point x="1299" y="-22"/>
      <point x="1523" y="196"/>
      <point x="1523" y="578" type="curve" smooth="yes"/>
      <point x="1523" y="1500" type="line"/>
      <point x="1251" y="1500" type="line"/>
      <point x="1251" y="498" type="line" smooth="yes"/>
      <point x="1251" y="300"/>
      <point x="1152" y="181"/>
      <point x="946" y="181" type="curve" smooth="yes"/>
      <point x="740" y="181"/>
      <point x="641" y="300"/>
      <point x="641" y="498" type="curve" smooth="yes"/>
      <point x="641" y="1500" type="line"/>
      <point x="215" y="1500" type="line"/>
    </contour>
  </outline>
</glyph>
<glyph name="V" format="2">
  <advance width="1763"/>
  <unicode hex="0056"/>
  <anchor x="882" y="0" name="bottom"/>
  <anchor x="882" y="1500" name="top"/>
  <outline>
    <contour>
      <point x="1672" y="1500" type="line"/>
      <point x="1430" y="1500" type="line"/>
      <point x="914" y="231" type="line"/>
      <point x="1053" y="230" type="line"/>
      <point x="547" y="1500" type="line"/>
      <point x="91" y="1500" type="line"/>
      <point x="707" y="0" type="line"/>
      <point x="1056" y="0" type="line"/>
    </contour>
  </outline>
</glyph>
<glyph name="W" format="2">
  <advance width="2322"/>
  <unicode hex="0057"/>
  <anchor x="1161" y="0" name="bottom"/>
  <anchor x="1213" y="1500" name="top"/>
  <outline>
    <contour>
      <point x="2226" y="1500" type="line"/>
      <point x="1992" y="1500" type="line"/>
      <point x="1569" y="231" type="line"/>
      <point x="1721" y="230" type="line"/>
      <point x="1308" y="1500" type="line"/>
      <point x="884" y="1500" type="line"/>
      <point x="1390" y="0" type="line"/>
      <point x="1720" y="0" type="line"/>
    </contour>
    <contour>
      <point x="1212" y="831" type="line"/>
      <point x="1103" y="1140" type="line"/>
      <point x="800" y="231" type="line"/>
      <point x="952" y="230" type="line"/>
      <point x="539" y="1500" type="line"/>
      <point x="96" y="1500" type="line"/>
      <point x="602" y="0" type="line"/>
      <point x="932" y="0" type="line"/>
    </contour>
  </outline>
</glyph>
<glyph name="X" format="2">
  <advance width="1700"/>
  <unicode hex="0058"/>
  <anchor x="850" y="0" name="bottom"/>
  <anchor x="850" y="1500" name="top"/>
  <outline>
    <contour>
      <point x="30" y="1500" type="line"/>
      <point x="647" y="677" type="line"/>
      <point x="945" y="677" type="line"/>
      <point x="1626" y="1500" type="line"/>
      <point x="1339" y="1500" type="line"/>
      <point x="847" y="900" type="line"/>
      <point x="982" y="900" type="line"/>
      <point x="552" y="1500" type="line"/>
    </contour>
    <contour>
      <point x="1671" y="0" type="line"/>
      <point x="1031" y="853" type="line"/>
      <point x="733" y="853" type="line"/>
      <point x="27" y="0" type="line"/>
      <point x="315" y="0" type="line"/>
      <point x="831" y="630" type="line"/>
      <point x="697" y="630" type="line"/>
      <point x="1148" y="0" type="line"/>
    </contour>
  </outline>
</glyph>
<glyph name="Y" format="2">
  <advance width="1662"/>
  <unicode hex="0059"/>
  <anchor x="831" y="0" name="bottom"/>
  <anchor x="921" y="1500" name="top"/>
  <anchor x="20" y="1500" name="topleft"/>
  <outline>
    <contour>
      <point x="1041" y="0" type="line"/>
      <point x="1041" y="792" type="line"/>
      <point x="621" y="792" type="line"/>
      <point x="621" y="0" type="line"/>
    </contour>
    <contour>
      <point x="1626" y="1500" type="line"/>
      <point x="1361" y="1500" type="line"/>
      <point x="910" y="771" type="line"/>
      <point x="977" y="771" type="line"/>
      <point x="530" y="1500" type="line"/>
      <point x="36" y="1500" type="line"/>
      <point x="636" y="548" type="line"/>
      <point x="1026" y="548" type="line"/>
    </contour>
  </outline>
</glyph>
<glyph name="Z" format="2">
  <advance width="1483"/>
  <unicode hex="005A"/>
  <anchor x="742" y="0" name="bottom"/>
  <anchor x="742" y="750" name="center"/>
  <anchor x="760" y="1500" name="top"/>
  <outline>
    <contour>
      <point x="134" y="1500" type="line"/>
      <point x="134" y="1300" type="line"/>
      <point x="873" y="1300" type="line"/>
      <point x="1393" y="1314" type="line"/>
      <point x="1393" y="1500" type="line"/>
    </contour>
    <contour>
      <point x="84" y="186" type="line"/>
      <point x="84" y="0" type="line"/>
      <point x="1383" y="0" type="line"/>
      <point x="1383" y="200" type="line"/>
      <point x="604" y="200" type="line"/>
    </contour>
    <contour>
      <point x="84" y="186" type="line"/>
      <point x="604" y="200" type="line"/>
      <point x="1393" y="1314" type="line"/>
      <point x="873" y="1300" type="line"/>
    </contour>
    <contour>
      <point x="552" y="1300" type="curve"/>
      <point x="134" y="1300" type="line"/>
      <point x="134" y="900" type="line"/>
      <point x="332" y="900" type="line"/>
      <point x="332" y="1060" type="line" smooth="yes"/>
      <point x="332" y="1230"/>
      <point x="392" y="1300"/>
    </contour>
    <contour>
      <point x="965" y="200" type="curve"/>
      <point x="1383" y="200" type="line"/>
      <point x="1383" y="620" type="line"/>
      <point x="1185" y="620" type="line"/>
      <point x="1185" y="440" type="line" smooth="yes"/>
      <point x="1185" y="270"/>
      <point x="1125" y="200"/>
    </contour>
  </outline>
</glyph>
<glyph name="bracketleft" format="2">
  <advance width="844"/>
  <unicode hex="005B"/>
  <outline>
    <contour>
      <point x="564" y="-420" type="line"/>
      <point x="564" y="1600" type="line"/>
      <point x="166" y="1600" type="line"/>
      <point x="166" y="-420" type="line"/>
    </contour>
    <contour>
      <point x="804" y="1600" type="line"/>
      <point x="166" y="1600" type="line"/>
      <point x="166" y="1404" type="line"/>
      <point x="804" y="1404" type="line"/>
    </contour>
    <contour>
      <point x="804" y="-224" type="line"/>
      <point x="166" y="-224" type="line"/>
      <point x="166" y="-420" type="line"/>
      <point x="804" y="-420" type="line"/>
    </contour>
  </outline>
</glyph>
<glyph name="a" format="2">
  <advance width="1432"/>
  <unicode hex="0061"/>
  <anchor x="719" y="0" name="bottom"/>
  <anchor x="1302" y="0" name="ogonek"/>
  <anchor x="639" y="1140" name="top"/>
  <outline>
    <contour>
      <point x="581" y="517" type="curve" smooth="yes"/>
      <point x="613" y="532" type="line" smooth="yes"/>
      <point x="666" y="557"/>
      <point x="699" y="589"/>
      <point x="714" y="631" type="curve"/>
      <point x="724" y="631" type="line"/>
      <point x="718" y="832" type="line"/>
      <point x="718" y="743"/>
      <point x="666" y="700"/>
      <point x="565" y="671" type="curve" smooth="yes"/>
      <point x="383" y="618" type="line" smooth="yes"/>
      <point x="188" y="561"/>
      <point x="46" y="469"/>
      <point x="46" y="276" type="curve" smooth="yes"/>
      <point x="46" y="98"/>
      <point x="181" y="-26"/>
      <point x="410" y="-26" type="curve" smooth="yes"/>
      <point x="644" y="-26"/>
      <point x="777" y="111"/>
      <point x="779" y="410" type="curve"/>
      <point x="714" y="433" type="line"/>
      <point x="714" y="296"/>
      <point x="648" y="242"/>
      <point x="568" y="242" type="curve" smooth="yes"/>
      <point x="500" y="242"/>
      <point x="450" y="288"/>
      <point x="450" y="365" type="curve" smooth="yes"/>
      <point x="450" y="439"/>
      <point x="500" y="479"/>
    </contour>
    <contour>
      <point x="718" y="831" type="line"/>
      <point x="718" y="731" type="line"/>
      <point x="704" y="631" type="line"/>
      <point x="714" y="631" type="line"/>
      <point x="714" y="356" type="line"/>
      <point x="761" y="356" type="line"/>
      <point x="761" y="324" type="line" smooth="yes"/>
      <point x="761" y="100"/>
      <point x="869" y="-26"/>
      <point x="1086" y="-26" type="curve" smooth="yes"/>
      <point x="1319" y="-26"/>
      <point x="1420" y="109"/>
      <point x="1420" y="327" type="curve" smooth="yes"/>
      <point x="1420" y="740" type="line"/>
      <point x="1222" y="740" type="line"/>
      <point x="1222" y="314" type="line" smooth="yes"/>
      <point x="1222" y="267"/>
      <point x="1197" y="238"/>
      <point x="1153" y="238" type="curve" smooth="yes"/>
      <point x="1115" y="238"/>
      <point x="1090" y="267"/>
      <point x="1090" y="314" type="curve" smooth="yes"/>
      <point x="1090" y="759" type="line"/>
    </contour>
    <contour>
      <point x="116" y="862" type="curve" smooth="yes"/>
      <point x="116" y="739"/>
      <point x="221" y="682"/>
      <point x="337" y="682" type="curve" smooth="yes"/>
      <point x="466" y="682"/>
      <point x="543" y="751"/>
      <point x="543" y="846" type="curve" smooth="yes"/>
      <point x="543" y="951"/>
      <point x="455" y="988"/>
      <point x="317" y="988" type="curve"/>
      <point x="317" y="865" type="line"/>
      <point x="344" y="946"/>
      <point x="435" y="1006"/>
      <point x="548" y="1006" type="curve" smooth="yes"/>
      <point x="655" y="1006"/>
      <point x="718" y="952"/>
      <point x="718" y="831" type="curve"/>
      <point x="1090" y="759" type="line"/>
      <point x="1093" y="1030"/>
      <point x="922" y="1166"/>
      <point x="615" y="1166" type="curve" smooth="yes"/>
      <point x="353" y="1166"/>
      <point x="116" y="1060"/>
    </contour>
  </outline>
</glyph>
<glyph name="b" format="2">
  <advance width="1410"/>
  <unicode hex="0062"/>
  <anchor x="692" y="0" name="bottom"/>
  <anchor x="692" y="1500" name="top"/>
  <outline>
    <contour>
      <point x="124" y="0" type="line"/>
      <point x="494" y="0" type="line"/>
      <point x="494" y="262" type="line"/>
      <point x="463" y="581" type="line"/>
      <point x="524" y="838" type="line"/>
      <point x="524" y="1500" type="line"/>
      <point x="124" y="1500" type="line"/>
    </contour>
    <contour>
      <point x="867" y="1162" type="curve" smooth="yes"/>
      <point x="542" y="1162"/>
      <point x="449" y="920"/>
      <point x="449" y="570" type="curve"/>
      <point x="427" y="570" type="line"/>
      <point x="425" y="230"/>
      <point x="542" y="-22"/>
      <point x="863" y="-22" type="curve" smooth="yes"/>
      <point x="1156" y="-22"/>
      <point x="1358" y="180"/>
      <point x="1358" y="570" type="curve" smooth="yes"/>
      <point x="1358" y="960"/>
      <point x="1156" y="1162"/>
    </contour>
    <contour>
      <point x="712" y="942" type="curve" smooth="yes"/>
      <point x="844" y="942"/>
      <point x="918" y="814"/>
      <point x="918" y="570" type="curve" smooth="yes"/>
      <point x="918" y="326"/>
      <point x="844" y="198"/>
      <point x="712" y="198" type="curve" smooth="yes"/>
      <point x="578" y="198"/>
      <point x="504" y="326"/>
      <point x="504" y="570" type="curve" smooth="yes"/>
      <point x="504" y="814"/>
      <point x="578" y="942"/>
    </contour>
  </outline>
</glyph>
<glyph name="c" format="2">
  <advance width="1220"/>
  <unicode hex="0063"/>
  <anchor x="614" y="0" name="bottom"/>
  <anchor x="644" y="1140" name="top"/>
  <outline>
    <contour>
      <point x="1170" y="489" type="curve"/>
      <point x="994" y="489" type="line"/>
      <point x="975" y="369"/>
      <point x="889" y="268"/>
      <point x="736" y="268" type="curve" smooth="yes"/>
      <point x="550" y="268"/>
      <point x="445" y="419"/>
      <point x="445" y="629" type="curve" smooth="yes"/>
      <point x="445" y="838"/>
      <point x="540" y="1001"/>
      <point x="730" y="1001" type="curve"/>
      <point x="661" y="1166" type="line"/>
      <point x="306" y="1166"/>
      <point x="52" y="955"/>
      <point x="52" y="571" type="curve" smooth="yes"/>
      <point x="52" y="186"/>
      <point x="298" y="-26"/>
      <point x="643" y="-26" type="curve" smooth="yes"/>
      <point x="983" y="-26"/>
      <point x="1163" y="185"/>
    </contour>
    <contour>
      <point x="661" y="1166" type="curve"/>
      <point x="730" y="1001" type="line"/>
      <point x="848" y="1001"/>
      <point x="925" y="943"/>
      <point x="970" y="866" type="curve"/>
      <point x="941" y="958" type="line"/>
      <point x="810" y="958"/>
      <point x="725" y="898"/>
      <point x="725" y="792" type="curve" smooth="yes"/>
      <point x="725" y="692"/>
      <point x="809" y="619"/>
      <point x="935" y="619" type="curve" smooth="yes"/>
      <point x="1072" y="619"/>
      <point x="1160" y="700"/>
      <point x="1160" y="824" type="curve" smooth="yes"/>
      <point x="1160" y="1008"/>
      <point x="950" y="1166"/>
    </contour>
  </outline>
</glyph>
<glyph name="d" format="2">
  <advance width="1464"/>
  <unicode hex="0064"/>
  <anchor x="734" y="0" name="bottom"/>
  <anchor x="734" y="570" name="center"/>
  <anchor x="734" y="1500" name="top"/>
  <anchor x="1286" y="1500" name="topright"/>
  <outline>
    <contour>
      <point x="1286" y="0" type="line"/>
      <point x="1286" y="1500" type="line"/>
      <point x="886" y="1500" type="line"/>
      <point x="886" y="838" type="line"/>
      <point x="948" y="581" type="line"/>
      <point x="916" y="280" type="line"/>
      <point x="916" y="0" type="line"/>
    </contour>
    <contour>
      <point x="543" y="1162" type="curve" smooth="yes"/>
      <point x="254" y="1162"/>
      <point x="52" y="960"/>
      <point x="52" y="570" type="curve" smooth="yes"/>
      <point x="52" y="180"/>
      <point x="254" y="-22"/>
      <point x="547" y="-22" type="curve" smooth="yes"/>
      <point x="868" y="-22"/>
      <point x="985" y="230"/>
      <point x="983" y="570" type="curve"/>
      <point x="961" y="570" type="line"/>
      <point x="961" y="920"/>
      <point x="868" y="1162"/>
    </contour>
    <contour>
      <point x="698" y="942" type="curve" smooth="yes"/>
      <point x="832" y="942"/>
      <point x="906" y="814"/>
      <point x="906" y="570" type="curve" smooth="yes"/>
      <point x="906" y="326"/>
      <point x="832" y="198"/>
      <point x="698" y="198" type="curve" smooth="yes"/>
      <point x="566" y="198"/>
      <point x="492" y="326"/>
      <point x="492" y="570" type="curve" smooth="yes"/>
      <point x="492" y="814"/>
      <point x="566" y="942"/>
    </contour>
  </outline>
</glyph>
<glyph name="e" format="2">
  <advance width="1264"/>
  <unicode hex="0065"/>
  <anchor x="632" y="0" name="bottom"/>
  <anchor x="937" y="0" name="ogonek"/>
  <anchor x="632" y="1140" name="top"/>
  <outline>
    <contour>
      <point x="1198" y="490" type="curve"/>
      <point x="1022" y="490" type="line"/>
      <point x="1003" y="362"/>
      <point x="919" y="249"/>
      <point x="751" y="249" type="curve" smooth="yes"/>
      <point x="556" y="249"/>
      <point x="450" y="387"/>
      <point x="450" y="608" type="curve" smooth="yes"/>
      <point x="450" y="903"/>
      <point x="529" y="992"/>
      <point x="647" y="992" type="curve"/>
      <point x="649" y="1166" type="line"/>
      <point x="303" y="1166"/>
      <point x="52" y="944"/>
      <point x="52" y="570" type="curve" smooth="yes"/>
      <point x="52" y="195"/>
      <point x="297" y="-26"/>
      <point x="645" y="-26" type="curve" smooth="yes"/>
      <point x="1009" y="-26"/>
      <point x="1196" y="210"/>
    </contour>
    <contour>
      <point x="798" y="748" type="curve"/>
      <point x="1202" y="631" type="line"/>
      <point x="1202" y="941"/>
      <point x="1008" y="1166"/>
      <point x="649" y="1166" type="curve"/>
      <point x="647" y="992" type="line"/>
      <point x="743" y="992"/>
      <point x="796" y="899"/>
    </contour>
    <contour>
      <point x="250" y="748" type="line"/>
      <point x="250" y="570" type="line"/>
      <point x="1202" y="570" type="line"/>
      <point x="1202" y="631" type="line"/>
      <point x="798" y="748" type="line"/>
    </contour>
  </outline>
</glyph>
<glyph name="f" format="2">
  <advance width="969"/>
  <unicode hex="0066"/>
  <anchor x="442" y="0" name="bottom"/>
  <anchor x="442" y="1500" name="top"/>
  <outline>
    <contour>
      <point x="-10" y="1140" type="line"/>
      <point x="-10" y="932" type="line"/>
      <point x="934" y="932" type="line"/>
      <point x="934" y="1140" type="line"/>
    </contour>
    <contour>
      <point x="218" y="1236" type="line"/>
      <point x="218" y="0" type="line"/>
      <point x="618" y="0" type="line"/>
      <point x="618" y="1295" type="line"/>
    </contour>
    <contour>
      <point x="755" y="1642" type="line"/>
      <point x="469" y="1642"/>
      <point x="218" y="1516"/>
      <point x="218" y="1236" type="curve"/>
      <point x="618" y="1295" type="line"/>
      <point x="618" y="1436"/>
      <point x="683" y="1492"/>
      <point x="793" y="1492" type="curve"/>
    </contour>
    <contour>
      <point x="755" y="1642" type="curve"/>
      <point x="793" y="1492" type="line"/>
      <point x="869" y="1492"/>
      <point x="924" y="1454"/>
      <point x="954" y="1409" type="curve"/>
      <point x="973" y="1490" type="line"/>
      <point x="846" y="1490"/>
      <point x="750" y="1466"/>
      <point x="750" y="1350" type="curve" smooth="yes"/>
      <point x="750" y="1256"/>
      <point x="840" y="1210"/>
      <point x="945" y="1210" type="curve" smooth="yes"/>
      <point x="1089" y="1210"/>
      <point x="1167" y="1298"/>
      <point x="1167" y="1400" type="curve" smooth="yes"/>
      <point x="1167" y="1546"/>
      <point x="997" y="1642"/>
    </contour>
  </outline>
</glyph>
<glyph name="g" format="2">
  <advance width="1332"/>
  <unicode hex="0067"/>
  <anchor x="664" y="-440" name="bottom"/>
  <anchor x="664" y="1140" name="top"/>
  <outline>
    <contour>
      <point x="658" y="390" type="curve" smooth="yes"/>
      <point x="987" y="390"/>
      <point x="1174" y="528"/>
      <point x="1174" y="734" type="curve" smooth="yes"/>
      <point x="1174" y="854"/>
      <point x="1097" y="924"/>
      <point x="1026" y="954" type="curve"/>
      <point x="658" y="1150" type="line"/>
      <point x="323" y="1150"/>
      <point x="112" y="1012"/>
      <point x="112" y="770" type="curve" smooth="yes"/>
      <point x="112" y="528"/>
      <point x="323" y="390"/>
    </contour>
    <contour>
      <point x="658" y="556" type="curve" smooth="yes"/>
      <point x="570" y="556"/>
      <point x="520" y="643"/>
      <point x="520" y="770" type="curve" smooth="yes"/>
      <point x="520" y="893"/>
      <point x="570" y="984"/>
      <point x="658" y="984" type="curve" smooth="yes"/>
      <point x="746" y="984"/>
      <point x="796" y="893"/>
      <point x="796" y="770" type="curve" smooth="yes"/>
      <point x="796" y="643"/>
      <point x="746" y="556"/>
    </contour>
    <contour>
      <point x="658" y="1150" type="line"/>
      <point x="1026" y="954" type="line"/>
      <point x="1302" y="954" type="line"/>
      <point x="1302" y="1150" type="line"/>
    </contour>
    <contour>
      <point x="395" y="524" type="line"/>
      <point x="171" y="526"/>
      <point x="22" y="416"/>
      <point x="22" y="234" type="curve" smooth="yes"/>
      <point x="22" y="65"/>
      <point x="171" y="-48"/>
      <point x="395" y="-48" type="curve" smooth="yes"/>
      <point x="839" y="-48" type="line" smooth="yes"/>
      <point x="914" y="-48"/>
      <point x="963" y="-73"/>
      <point x="963" y="-133" type="curve" smooth="yes"/>
      <point x="963" y="-199"/>
      <point x="910" y="-242"/>
      <point x="807" y="-242" type="curve" smooth="yes"/>
      <point x="553" y="-242" type="line" smooth="yes"/>
      <point x="451" y="-242"/>
      <point x="395" y="-206"/>
      <point x="395" y="-126" type="curve" smooth="yes"/>
      <point x="395" y="-87"/>
      <point x="417" y="-55"/>
      <point x="452" y="-27" type="curve"/>
      <point x="436" y="-1" type="line"/>
      <point x="253" y="-1"/>
      <point x="108" y="-63"/>
      <point x="108" y="-206" type="curve" smooth="yes"/>
      <point x="108" y="-357"/>
      <point x="251" y="-420"/>
      <point x="478" y="-420" type="curve" smooth="yes"/>
      <point x="805" y="-420" type="line" smooth="yes"/>
      <point x="1141" y="-420"/>
      <point x="1314" y="-267"/>
      <point x="1314" y="-14" type="curve" smooth="yes"/>
      <point x="1314" y="164"/>
      <point x="1180" y="282"/>
      <point x="935" y="282" type="curve" smooth="yes"/>
      <point x="413" y="282" type="line" smooth="yes"/>
      <point x="344" y="282"/>
      <point x="303" y="308"/>
      <point x="303" y="366" type="curve" smooth="yes"/>
      <point x="303" y="424"/>
      <point x="344" y="450"/>
      <point x="413" y="450" type="curve"/>
    </contour>
  </outline>
</glyph>
<glyph name="h" format="2">
  <advance width="1416"/>
  <unicode hex="0068"/>
  <anchor x="704" y="0" name="bottom"/>
  <anchor x="704" y="750" name="center"/>
  <anchor x="370" y="1500" name="top"/>
  <outline>
    <contour>
      <point x="184" y="1500" type="line"/>
      <point x="184" y="0" type="line"/>
      <point x="584" y="0" type="line"/>
      <point x="584" y="1500" type="line"/>
    </contour>
    <contour>
      <point x="555" y="741" type="curve"/>
      <point x="584" y="743" type="line"/>
      <point x="584" y="874"/>
      <point x="653" y="920"/>
      <point x="732" y="920" type="curve" smooth="yes"/>
      <point x="807" y="920"/>
      <point x="856" y="876"/>
      <point x="856" y="789" type="curve" smooth="yes"/>
      <point x="856" y="0" type="line"/>
      <point x="1256" y="0" type="line"/>
      <point x="1256" y="789" type="line" smooth="yes"/>
      <point x="1256" y="1048"/>
      <point x="1110" y="1162"/>
      <point x="904" y="1162" type="curve" smooth="yes"/>
      <point x="624" y="1162"/>
      <point x="555" y="997"/>
    </contour>
  </outline>
</glyph>
<glyph name="l" format="2">
  <advance width="766"/>
  <unicode hex="006C"/>
  <anchor x="383" y="0" name="bottom"/>
  <anchor x="394" y="1140" name="center"/>
  <anchor x="374" y="1500" name="top"/>
  <anchor x="588" y="1500" name="topright"/>
  <outline>
    <contour>
      <point x="184" y="1500" type="line"/>
      <point x="184" y="0" type="line"/>
      <point x="588" y="0" type="line"/>
      <point x="588" y="1500" type="line"/>
    </contour>
  </outline>
</glyph>
<glyph name="m" format="2">
  <advance width="2082"/>
  <unicode hex="006D"/>
  <anchor x="1041" y="0" name="bottom"/>
  <anchor x="1041" y="1140" name="top"/>
  <outline>
    <contour>
      <point x="208" y="1140" type="line"/>
      <point x="208" y="0" type="line"/>
      <point x="602" y="0" type="line"/>
      <point x="602" y="770" type="line"/>
      <point x="552" y="762" type="line"/>
      <point x="552" y="1140" type="line"/>
    </contour>
    <contour>
      <point x="539" y="741" type="curve"/>
      <point x="602" y="743" type="line"/>
      <point x="602" y="876"/>
      <point x="669" y="922"/>
      <point x="747" y="922" type="curve" smooth="yes"/>
      <point x="820" y="922"/>
      <point x="868" y="877"/>
      <point x="868" y="789" type="curve" smooth="yes"/>
      <point x="868" y="0" type="line"/>
      <point x="1262" y="0" type="line"/>
      <point x="1262" y="790" type="line" smooth="yes"/>
      <point x="1262" y="1051"/>
      <point x="1109" y="1166"/>
      <point x="901" y="1166" type="curve" smooth="yes"/>
      <point x="612" y="1166"/>
      <point x="539" y="999"/>
    </contour>
    <contour>
      <point x="1221" y="741" type="curve"/>
      <point x="1262" y="743" type="line"/>
      <point x="1262" y="876"/>
      <point x="1329" y="922"/>
      <point x="1407" y="922" type="curve" smooth="yes"/>
      <point x="1480" y="922"/>
      <point x="1528" y="877"/>
      <point x="1528" y="789" type="curve" smooth="yes"/>
      <point x="1528" y="0" type="line"/>
      <point x="1922" y="0" type="line"/>
      <point x="1922" y="780" type="line" smooth="yes"/>
      <point x="1922" y="1048"/>
      <point x="1780" y="1166"/>
      <point x="1577" y="1166" type="curve" smooth="yes"/>
      <point x="1292" y="1166"/>
      <point x="1221" y="999"/>
    </contour>
  </outline>
</glyph>
<glyph name="n" format="2">
  <advance width="1440"/>
  <unicode hex="006E"/>
  <anchor x="720" y="0" name="bottom"/>
  <anchor x="716" y="1140" name="top"/>
  <outline>
    <contour>
      <point x="208" y="1140" type="line"/>
      <point x="208" y="0" type="line"/>
      <point x="608" y="0" type="line"/>
      <point x="608" y="804" type="line"/>
      <point x="558" y="796" type="line"/>
      <point x="558" y="1140" type="line"/>
    </contour>
    <contour>
      <point x="545" y="745" type="curve"/>
      <point x="608" y="747" type="line"/>
      <point x="608" y="878"/>
      <point x="677" y="924"/>
      <point x="756" y="924" type="curve" smooth="yes"/>
      <point x="831" y="924"/>
      <point x="880" y="880"/>
      <point x="880" y="793" type="curve" smooth="yes"/>
      <point x="880" y="0" type="line"/>
      <point x="1280" y="0" type="line"/>
      <point x="1280" y="793" type="line" smooth="yes"/>
      <point x="1280" y="1052"/>
      <point x="1123" y="1166"/>
      <point x="914" y="1166" type="curve" smooth="yes"/>
      <point x="623" y="1166"/>
      <point x="545" y="1001"/>
    </contour>
  </outline>
</glyph>
<glyph name="o" format="2">
  <advance width="1382"/>
  <unicode hex="006F"/>
  <anchor x="691" y="0" name="bottom"/>
  <anchor x="1002" y="0" name="ogonek"/>
  <anchor x="691" y="1140" name="top"/>
  <anchor x="1189" y="1010" name="topright"/>
  <outline>
    <contour>
      <point x="691" y="-26" type="curve" smooth="yes"/>
      <point x="1064" y="-26"/>
      <point x="1330" y="194"/>
      <point x="1330" y="569" type="curve" smooth="yes"/>
      <point x="1330" y="943"/>
      <point x="1064" y="1166"/>
      <point x="691" y="1166" type="curve" smooth="yes"/>
      <point x="318" y="1166"/>
      <point x="52" y="944"/>
      <point x="52" y="570" type="curve" smooth="yes"/>
      <point x="52" y="195"/>
      <point x="318" y="-26"/>
    </contour>
    <contour>
      <point x="691" y="148" type="curve" smooth="yes"/>
      <point x="563" y="148"/>
      <point x="498" y="294"/>
      <point x="498" y="570" type="curve" smooth="yes"/>
      <point x="498" y="840"/>
      <point x="563" y="992"/>
      <point x="691" y="992" type="curve" smooth="yes"/>
      <point x="819" y="992"/>
      <point x="884" y="845"/>
      <point x="884" y="585" type="curve" smooth="yes"/>
      <point x="884" y="300"/>
      <point x="819" y="148"/>
    </contour>
  </outline>
</glyph>
<glyph name="p" format="2">
  <advance width="1470"/>
  <unicode hex="0070"/>
  <anchor x="733" y="0" name="bottom"/>
  <anchor x="733" y="1140" name="top"/>
  <outline>
    <contour>
      <point x="584" y="-420" type="line"/>
      <point x="584" y="334" type="line"/>
      <point x="529" y="581" type="line"/>
      <point x="554" y="746" type="line"/>
      <point x="554" y="1140" type="line"/>
      <point x="184" y="1140" type="line"/>
      <point x="184" y="-420" type="line"/>
    </contour>
    <contour>
      <point x="927" y="-22" type="curve" smooth="yes"/>
      <point x="1216" y="-22"/>
      <point x="1418" y="180"/>
      <point x="1418" y="570" type="curve" smooth="yes"/>
      <point x="1418" y="960"/>
      <point x="1216" y="1162"/>
      <point x="923" y="1162" type="curve" smooth="yes"/>
      <point x="602" y="1162"/>
      <point x="485" y="910"/>
      <point x="487" y="570" type="curve"/>
      <point x="509" y="570" type="line"/>
      <point x="509" y="220"/>
      <point x="602" y="-22"/>
    </contour>
    <contour>
      <point x="772" y="198" type="curve" smooth="yes"/>
      <point x="638" y="198"/>
      <point x="564" y="326"/>
      <point x="564" y="570" type="curve" smooth="yes"/>
      <point x="564" y="814"/>
      <point x="638" y="942"/>
      <point x="772" y="942" type="curve" smooth="yes"/>
      <point x="904" y="942"/>
      <point x="978" y="814"/>
      <point x="978" y="570" type="curve" smooth="yes"/>
      <point x="978" y="326"/>
      <point x="904" y="198"/>
    </contour>
  </outline>
</glyph>
<glyph name="q" format="2">
  <advance width="1406"/>
  <unicode hex="0071"/>
  <anchor x="700" y="0" name="bottom"/>
  <anchor x="700" y="1140" name="top"/>
  <outline>
    <contour>
      <point x="886" y="-420" type="line"/>
      <point x="1286" y="-420" type="line"/>
      <point x="1286" y="1140" type="line"/>
      <point x="916" y="1140" type="line"/>
      <point x="916" y="744" type="line"/>
      <point x="933" y="581" type="line"/>
      <point x="886" y="334" type="line"/>
    </contour>
    <contour>
      <point x="543" y="-22" type="curve" smooth="yes"/>
      <point x="868" y="-22"/>
      <point x="961" y="220"/>
      <point x="961" y="570" type="curve"/>
      <point x="983" y="570" type="line"/>
      <point x="985" y="910"/>
      <point x="868" y="1162"/>
      <point x="547" y="1162" type="curve" smooth="yes"/>
      <point x="254" y="1162"/>
      <point x="52" y="960"/>
      <point x="52" y="570" type="curve" smooth="yes"/>
      <point x="52" y="180"/>
      <point x="254" y="-22"/>
    </contour>
    <contour>
      <point x="698" y="198" type="curve" smooth="yes"/>
      <point x="566" y="198"/>
      <point x="492" y="326"/>
      <point x="492" y="570" type="curve" smooth="yes"/>
      <point x="492" y="814"/>
      <point x="566" y="942"/>
      <point x="698" y="942" type="curve" smooth="yes"/>
      <point x="832" y="942"/>
      <point x="906" y="814"/>
      <point x="906" y="570" type="curve" smooth="yes"/>
      <point x="906" y="326"/>
      <point x="832" y="198"/>
    </contour>
  </outline>
</glyph>
<glyph name="r" format="2">
  <advance width="1185"/>
  <unicode hex="0072"/>
  <anchor x="477" y="-1" name="bottom"/>
  <anchor x="575" y="1140" name="top"/>
  <outline>
    <contour>
      <point x="208" y="1140" type="line"/>
      <point x="208" y="0" type="line"/>
      <point x="608" y="0" type="line"/>
      <point x="608" y="748" type="line"/>
      <point x="568" y="740" type="line"/>
      <point x="568" y="1140" type="line"/>
    </contour>
    <contour>
      <point x="911" y="1172" type="curve" smooth="yes"/>
      <point x="704" y="1172"/>
      <point x="512" y="1064"/>
      <point x="506" y="707" type="curve"/>
      <point x="608" y="707" type="line"/>
      <point x="608" y="934"/>
      <point x="739" y="1027"/>
      <point x="864" y="1027" type="curve" smooth="yes"/>
      <point x="933" y="1027"/>
      <point x="976" y="998"/>
      <point x="991" y="949" type="curve"/>
      <point x="993" y="1069" type="line"/>
      <point x="833" y="1081"/>
      <point x="765" y="1018"/>
      <point x="765" y="905" type="curve" smooth="yes"/>
      <point x="765" y="808"/>
      <point x="842" y="739"/>
      <point x="959" y="739" type="curve" smooth="yes"/>
      <point x="1091" y="739"/>
      <point x="1173" y="826"/>
      <point x="1173" y="950" type="curve" smooth="yes"/>
      <point x="1173" y="1077"/>
      <point x="1068" y="1172"/>
    </contour>
  </outline>
</glyph>
<glyph name="s" format="2">
  <advance width="1178"/>
  <unicode hex="0073"/>
  <anchor x="615" y="0" name="bottom"/>
  <anchor x="563" y="1140" name="top"/>
  <outline>
    <contour>
      <point x="70" y="821" type="curve" smooth="yes"/>
      <point x="70" y="588"/>
      <point x="223" y="471"/>
      <point x="495" y="409" type="curve" smooth="yes"/>
      <point x="608" y="383" type="line" smooth="yes"/>
      <point x="716" y="358"/>
      <point x="768" y="329"/>
      <point x="768" y="265" type="curve" smooth="yes"/>
      <point x="768" y="195"/>
      <point x="714" y="160"/>
      <point x="626" y="160" type="curve" smooth="yes"/>
      <point x="540" y="160"/>
      <point x="399" y="208"/>
      <point x="294" y="400" type="curve"/>
      <point x="238" y="400" type="line"/>
      <point x="264" y="97"/>
      <point x="476" y="-26"/>
      <point x="711" y="-26" type="curve" smooth="yes"/>
      <point x="953" y="-26"/>
      <point x="1116" y="97"/>
      <point x="1116" y="342" type="curve" smooth="yes"/>
      <point x="1116" y="580"/>
      <point x="948" y="681"/>
      <point x="683" y="742" type="curve" smooth="yes"/>
      <point x="571" y="768" type="line" smooth="yes"/>
      <point x="465" y="793"/>
      <point x="418" y="829"/>
      <point x="418" y="890" type="curve" smooth="yes"/>
      <point x="418" y="955"/>
      <point x="470" y="980"/>
      <point x="547" y="980" type="curve" smooth="yes"/>
      <point x="621" y="980"/>
      <point x="763" y="937"/>
      <point x="856" y="760" type="curve"/>
      <point x="908" y="760" type="line"/>
      <point x="870" y="1052"/>
      <point x="675" y="1166"/>
      <point x="457" y="1166" type="curve" smooth="yes"/>
      <point x="231" y="1166"/>
      <point x="70" y="1052"/>
    </contour>
    <contour>
      <point x="1044" y="1140" type="line"/>
      <point x="830" y="1140" type="line"/>
      <point x="830" y="868" type="line"/>
      <point x="908" y="760" type="line"/>
      <point x="1044" y="760" type="line"/>
    </contour>
    <contour>
      <point x="106" y="0" type="line"/>
      <point x="320" y="0" type="line"/>
      <point x="320" y="290" type="line"/>
      <point x="238" y="400" type="line"/>
      <point x="106" y="400" type="line"/>
    </contour>
  </outline>
</glyph>
<glyph name="t" format="2">
  <advance width="1068"/>
  <unicode hex="0074"/>
  <anchor x="544" y="0" name="bottom"/>
  <anchor x="526" y="570" name="center"/>
  <anchor x="526" y="1140" name="top"/>
  <anchor x="600" y="1726" name="topright"/>
  <outline>
    <contour>
      <point x="376" y="1460" type="line"/>
      <point x="376" y="1432" type="line" smooth="yes"/>
      <point x="376" y="1216"/>
      <point x="297" y="1122"/>
      <point x="32" y="1122" type="curve" smooth="yes"/>
      <point x="-28" y="1122" type="line"/>
      <point x="-28" y="932" type="line"/>
      <point x="234" y="932" type="line"/>
      <point x="202" y="379" type="line" smooth="yes"/>
      <point x="187" y="128"/>
      <point x="328" y="-24"/>
      <point x="589" y="-24" type="curve" smooth="yes"/>
      <point x="850" y="-24"/>
      <point x="978" y="128"/>
      <point x="978" y="359" type="curve" smooth="yes"/>
      <point x="978" y="720" type="line"/>
      <point x="774" y="720" type="line"/>
      <point x="774" y="371" type="line" smooth="yes"/>
      <point x="774" y="303"/>
      <point x="748" y="264"/>
      <point x="687" y="264" type="curve" smooth="yes"/>
      <point x="627" y="264"/>
      <point x="600" y="305"/>
      <point x="600" y="371" type="curve" smooth="yes"/>
      <point x="600" y="1460" type="line"/>
    </contour>
    <contour>
      <point x="600" y="1140" type="line"/>
      <point x="600" y="932" type="line"/>
      <point x="1010" y="932" type="line"/>
      <point x="1010" y="1140" type="line"/>
    </contour>
  </outline>
</glyph>
<glyph name="u" format="2">
  <advance width="1430"/>
  <unicode hex="0075"/>
  <anchor x="723" y="0" name="bottom"/>
  <anchor x="1188" y="0" name="ogonek"/>
  <anchor x="687" y="1140" name="top"/>
  <anchor x="1248" y="1140" name="topright"/>
  <outline>
    <contour>
      <point x="1248" y="0" type="line"/>
      <point x="1248" y="1140" type="line"/>
      <point x="848" y="1140" type="line"/>
      <point x="848" y="336" type="line"/>
      <point x="898" y="344" type="line"/>
      <point x="898" y="0" type="line"/>
    </contour>
    <contour>
      <point x="911" y="395" type="curve"/>
      <point x="848" y="393" type="line"/>
      <point x="848" y="262"/>
      <point x="777" y="216"/>
      <point x="696" y="216" type="curve" smooth="yes"/>
      <point x="619" y="216"/>
      <point x="568" y="260"/>
      <point x="568" y="347" type="curve" smooth="yes"/>
      <point x="568" y="1140" type="line"/>
      <point x="168" y="1140" type="line"/>
      <point x="168" y="357" type="line" smooth="yes"/>
      <point x="168" y="91"/>
      <point x="329" y="-26"/>
      <point x="544" y="-26" type="curve" smooth="yes"/>
      <point x="833" y="-26"/>
      <point x="911" y="139"/>
    </contour>
  </outline>
</glyph>
<glyph name="v" format="2">
  <advance width="1289"/>
  <unicode hex="0076"/>
  <anchor x="645" y="0" name="bottom"/>
  <anchor x="645" y="1140" name="top"/>
  <outline>
    <contour>
      <point x="37" y="1140" type="line"/>
      <point x="505" y="0" type="line"/>
      <point x="784" y="0" type="line"/>
      <point x="1252" y="1140" type="line"/>
      <point x="1023" y="1140" type="line"/>
      <point x="672" y="272" type="line"/>
      <point x="797" y="270" type="line"/>
      <point x="469" y="1140" type="line"/>
    </contour>
  </outline>
</glyph>
<glyph name="w" format="2">
  <advance width="1913"/>
  <unicode hex="0077"/>
  <anchor x="957" y="0" name="bottom"/>
  <anchor x="957" y="1140" name="top"/>
  <outline>
    <contour>
      <point x="730" y="1140" type="line"/>
      <point x="1168" y="0" type="line"/>
      <point x="1436" y="0" type="line"/>
      <point x="1874" y="1140" type="line"/>
      <point x="1647" y="1140" type="line"/>
      <point x="1320" y="272" type="line"/>
      <point x="1448" y="270" type="line"/>
      <point x="1142" y="1140" type="line"/>
    </contour>
    <contour>
      <point x="39" y="1140" type="line"/>
      <point x="477" y="0" type="line"/>
      <point x="745" y="0" type="line"/>
      <point x="974" y="596" type="line"/>
      <point x="883" y="901" type="line"/>
      <point x="646" y="272" type="line"/>
      <point x="774" y="270" type="line"/>
      <point x="468" y="1140" type="line"/>
    </contour>
  </outline>
</glyph>
<glyph name="x" format="2">
  <advance width="1364"/>
  <unicode hex="0078"/>
  <anchor x="682" y="0" name="bottom"/>
  <anchor x="682" y="1140" name="top"/>
  <outline>
    <contour>
      <point x="-4" y="1140" type="line"/>
      <point x="489" y="500" type="line"/>
      <point x="832" y="500" type="line"/>
      <point x="1361" y="1140" type="line"/>
      <point x="1075" y="1140" type="line"/>
      <point x="700" y="678" type="line"/>
      <point x="790" y="678" type="line"/>
      <point x="453" y="1140" type="line"/>
    </contour>
    <contour>
      <point x="1377" y="0" type="line"/>
      <point x="873" y="654" type="line"/>
      <point x="522" y="654" type="line"/>
      <point x="-17" y="0" type="line"/>
      <point x="268" y="0" type="line"/>
      <point x="654" y="476" type="line"/>
      <point x="568" y="476" type="line"/>
      <point x="917" y="0" type="line"/>
    </contour>
  </outline>
</glyph>
<glyph name="y" format="2">
  <advance width="1309"/>
  <unicode hex="0079"/>
  <anchor x="1002" y="0" name="bottom"/>
  <anchor x="746" y="1140" name="top"/>
  <outline>
    <contour>
      <point x="50" y="1140" type="line"/>
      <point x="609" y="-221" type="line"/>
      <point x="813" y="270" type="line"/>
      <point x="482" y="1140" type="line"/>
    </contour>
    <contour>
      <point x="1265" y="1140" type="line"/>
      <point x="1036" y="1140" type="line"/>
      <point x="685" y="272" type="line"/>
      <point x="648" y="216" type="line"/>
      <point x="500" y="-145" type="line" smooth="yes"/>
      <point x="466" y="-229"/>
      <point x="415" y="-268"/>
      <point x="335" y="-268" type="curve"/>
      <point x="321" y="-440" type="line"/>
      <point x="576" y="-440"/>
      <point x="682" y="-279"/>
      <point x="783" y="-34" type="curve" smooth="yes"/>
    </contour>
    <contour>
      <point x="321" y="-440" type="curve"/>
      <point x="335" y="-268" type="line"/>
      <point x="262" y="-268"/>
      <point x="217" y="-237"/>
      <point x="190" y="-203" type="curve"/>
      <point x="177" y="-264" type="line"/>
      <point x="313" y="-264"/>
      <point x="374" y="-219"/>
      <point x="374" y="-129" type="curve" smooth="yes"/>
      <point x="374" y="-42"/>
      <point x="299" y="0"/>
      <point x="203" y="0" type="curve" smooth="yes"/>
      <point x="63" y="0"/>
      <point x="-15" y="-84"/>
      <point x="-15" y="-192" type="curve" smooth="yes"/>
      <point x="-15" y="-342"/>
      <point x="117" y="-440"/>
    </contour>
  </outline>
</glyph>
<glyph name="z" format="2">
  <advance width="1198"/>
  <unicode hex="007A"/>
  <anchor x="594" y="0" name="bottom"/>
  <anchor x="594" y="570" name="center"/>
  <anchor x="614" y="1140" name="top"/>
  <outline>
    <contour>
      <point x="108" y="1140" type="line"/>
      <point x="108" y="946" type="line"/>
      <point x="631" y="946" type="line"/>
      <point x="1120" y="974" type="line"/>
      <point x="1120" y="1140" type="line"/>
    </contour>
    <contour>
      <point x="62" y="166" type="line"/>
      <point x="62" y="0" type="line"/>
      <point x="1108" y="0" type="line"/>
      <point x="1108" y="194" type="line"/>
      <point x="551" y="194" type="line"/>
    </contour>
    <contour>
      <point x="62" y="166" type="line"/>
      <point x="551" y="194" type="line"/>
      <point x="1120" y="974" type="line"/>
      <point x="631" y="946" type="line"/>
    </contour>
    <contour>
      <point x="486" y="946" type="curve"/>
      <point x="108" y="946" type="line"/>
      <point x="108" y="660" type="line"/>
      <point x="306" y="660" type="line"/>
      <point x="306" y="746" type="line" smooth="yes"/>
      <point x="306" y="896"/>
      <point x="346" y="946"/>
    </contour>
    <contour>
      <point x="730" y="194" type="curve"/>
      <point x="1108" y="194" type="line"/>
      <point x="1108" y="500" type="line"/>
      <point x="910" y="500" type="line"/>
      <point x="910" y="394" type="line" smooth="yes"/>
      <point x="910" y="244"/>
      <point x="870" y="194"/>
    </contour>
  </outline>
</glyph>
<glyph name="braceleft" format="2">
  <advance width="916"/>
  <unicode hex="007B"/>
  <outline>
    <contour>
      <point x="876" y="1600" type="line"/>
      <point x="716" y="1600" type="line" smooth="yes"/>
      <point x="396" y="1600"/>
      <point x="227" y="1459"/>
      <point x="236" y="1114" type="curve" smooth="yes"/>
      <point x="242" y="877" type="line" smooth="yes"/>
      <point x="245" y="760"/>
      <point x="196" y="688"/>
      <point x="18" y="688" type="curve"/>
      <point x="18" y="590" type="line"/>
      <point x="240" y="590" type="line"/>
      <point x="502" y="613"/>
      <point x="646" y="706"/>
      <point x="646" y="1017" type="curve" smooth="yes"/>
      <point x="646" y="1168" type="line" smooth="yes"/>
      <point x="646" y="1334"/>
      <point x="721" y="1408"/>
      <point x="876" y="1408" type="curve"/>
    </contour>
    <contour>
      <point x="876" y="-420" type="line"/>
      <point x="876" y="-228" type="line"/>
      <point x="721" y="-228"/>
      <point x="646" y="-154"/>
      <point x="646" y="12" type="curve" smooth="yes"/>
      <point x="646" y="163" type="line" smooth="yes"/>
      <point x="646" y="474"/>
      <point x="502" y="567"/>
      <point x="240" y="590" type="curve"/>
      <point x="18" y="590" type="line"/>
      <point x="18" y="492" type="line"/>
      <point x="196" y="492"/>
      <point x="245" y="420"/>
      <point x="242" y="303" type="curve" smooth="yes"/>
      <point x="236" y="66" type="line" smooth="yes"/>
      <point x="227" y="-279"/>
      <point x="396" y="-420"/>
      <point x="716" y="-420" type="curve" smooth="yes"/>
    </contour>
  </outline>
</glyph>
<glyph name="bar" format="2">
  <advance width="468"/>
  <unicode hex="007C"/>
  <outline>
    <contour>
      <point x="122" y="1500" type="line"/>
      <point x="122" y="-440" type="line"/>
      <point x="346" y="-440" type="line"/>
      <point x="346" y="1500" type="line"/>
    </contour>
  </outline>
</glyph>
<glyph name="cent" format="2">
  <advance width="1220"/>
  <unicode hex="00A2"/>
  <outline>
    <contour>
      <point x="1170" y="671" type="curve"/>
      <point x="994" y="671" type="line"/>
      <point x="975" y="551"/>
      <point x="889" y="450"/>
      <point x="736" y="450" type="curve" smooth="yes"/>
      <point x="550" y="450"/>
      <point x="445" y="601"/>
      <point x="445" y="811" type="curve" smooth="yes"/>
      <point x="445" y="1020"/>
      <point x="540" y="1183"/>
      <point x="730" y="1183" type="curve"/>
      <point x="661" y="1348" type="line"/>
      <point x="306" y="1348"/>
      <point x="52" y="1137"/>
      <point x="52" y="753" type="curve" smooth="yes"/>
      <point x="52" y="368"/>
      <point x="298" y="156"/>
      <point x="643" y="156" type="curve" smooth="yes"/>
      <point x="983" y="156"/>
      <point x="1163" y="367"/>
    </contour>
    <contour>
      <point x="661" y="1348" type="curve"/>
      <point x="730" y="1183" type="line"/>
      <point x="854" y="1183"/>
      <point x="935" y="1116"/>
      <point x="982" y="1028" type="curve"/>
      <point x="983" y="1080" type="line"/>
      <point x="894" y="1080"/>
      <point x="837" y="1034"/>
      <point x="837" y="954" type="curve" smooth="yes"/>
      <point x="837" y="877"/>
      <point x="901" y="821"/>
      <point x="997" y="821" type="curve" smooth="yes"/>
      <point x="1097" y="821"/>
      <point x="1162" y="882"/>
      <point x="1162" y="976" type="curve" smooth="yes"/>
      <point x="1162" y="1176"/>
      <point x="951" y="1348"/>
    </contour>
    <contour>
      <point x="586" y="1500" type="line"/>
      <point x="586" y="0" type="line"/>
      <point x="782" y="0" type="line"/>
      <point x="782" y="1500" type="line"/>
    </contour>
  </outline>
</glyph>
<glyph name="yen" format="2">
  <advance width="1662"/>
  <unicode hex="00A5"/>
  <outline>
    <contour>
      <point x="191" y="614" type="line"/>
      <point x="191" y="406" type="line"/>
      <point x="1471" y="406" type="line"/>
      <point x="1471" y="614" type="line"/>
    </contour>
    <contour>
      <point x="1101" y="744" type="line"/>
      <point x="1471" y="744" type="line"/>
      <point x="1471" y="952" type="line"/>
      <point x="1233" y="952" type="line"/>
    </contour>
    <contour>
      <point x="431" y="952" type="line"/>
      <point x="191" y="952" type="line"/>
      <point x="191" y="744" type="line"/>
      <point x="563" y="744" type="line"/>
    </contour>
    <component base="Y"/>
  </outline>
</glyph>
<glyph name="brokenbar" format="2">
  <advance width="468"/>
  <unicode hex="00A6"/>
  <outline>
    <contour>
      <point x="122" y="1500" type="line"/>
      <point x="122" y="750" type="line"/>
      <point x="346" y="750" type="line"/>
      <point x="346" y="1500" type="line"/>
    </contour>
    <contour>
      <point x="122" y="310" type="line"/>
      <point x="122" y="-440" type="line"/>
      <point x="346" y="-440" type="line"/>
      <point x="346" y="310" type="line"/>
    </contour>
  </outline>
</glyph>
<glyph name="degree" format="2">
  <advance width="914"/>
  <unicode hex="00B0"/>
  <outline>
    <contour>
      <point x="457" y="840" type="curve" smooth="yes"/>
      <point x="705" y="840"/>
      <point x="882" y="966"/>
      <point x="882" y="1180" type="curve" smooth="yes"/>
      <point x="882" y="1394"/>
      <point x="705" y="1522"/>
      <point x="457" y="1522" type="curve" smooth="yes"/>
      <point x="209" y="1522"/>
      <point x="32" y="1395"/>
      <point x="32" y="1181" type="curve" smooth="yes"/>
      <point x="32" y="966"/>
      <point x="209" y="840"/>
    </contour>
    <contour>
      <point x="457" y="1000" type="curve" smooth="yes"/>
      <point x="378" y="1000"/>
      <point x="329" y="1062"/>
      <point x="329" y="1181" type="curve" smooth="yes"/>
      <point x="329" y="1297"/>
      <point x="378" y="1362"/>
      <point x="457" y="1362" type="curve" smooth="yes"/>
      <point x="536" y="1362"/>
      <point x="585" y="1300"/>
      <point x="585" y="1190" type="curve" smooth="yes"/>
      <point x="585" y="1066"/>
      <point x="536" y="1000"/>
    </contour>
  </outline>
</glyph>
<glyph name="periodcentered" format="2">
  <advance width="616"/>
  <unicode hex="00B7"/>
  <outline>
    <contour>
      <point x="308" y="378" type="curve" smooth="yes"/>
      <point x="437" y="378"/>
      <point x="524" y="461"/>
      <point x="524" y="592" type="curve" smooth="yes"/>
      <point x="524" y="722"/>
      <point x="437" y="806"/>
      <point x="308" y="806" type="curve" smooth="yes"/>
      <point x="179" y="806"/>
      <point x="92" y="722"/>
      <point x="92" y="592" type="curve" smooth="yes"/>
      <point x="92" y="461"/>
      <point x="179" y="378"/>
    </contour>
  </outline>
</glyph>
<glyph name="guillemetright" format="2">
  <advance width="988"/>
  <unicode hex="00BB"/>
  <outline>
    <contour>
      <point x="36" y="1025" type="line"/>
      <point x="234" y="1025" type="line"/>
      <point x="512" y="605" type="line"/>
      <point x="234" y="185" type="line"/>
      <point x="36" y="185" type="line"/>
      <point x="171" y="605" type="line"/>
    </contour>
    <contour>
      <point x="446" y="1025" type="line"/>
      <point x="644" y="1025" type="line"/>
      <point x="972" y="605" type="line"/>
      <point x="644" y="185" type="line"/>
      <point x="446" y="185" type="line"/>
      <point x="631" y="605" type="line"/>
    </contour>
  </outline>
</glyph>
<glyph name="AE" format="2">
  <advance width="2289"/>
  <unicode hex="00C6"/>
  <anchor x="1245" y="1500" name="top"/>
  <outline>
    <contour>
      <point x="78" y="0" type="line"/>
      <point x="338" y="0" type="line"/>
      <point x="1213" y="1500" type="line"/>
      <point x="959" y="1500" type="line"/>
    </contour>
    <contour>
      <point x="1035" y="433" type="line"/>
      <point x="1035" y="641" type="line"/>
      <point x="521" y="641" type="line"/>
      <point x="521" y="433" type="line"/>
    </contour>
    <contour>
      <point x="2205" y="0" type="line"/>
      <point x="2205" y="206" type="line"/>
      <point x="1455" y="206" type="line"/>
      <point x="1455" y="0" type="line"/>
    </contour>
    <contour>
      <point x="2191" y="1294" type="line"/>
      <point x="2191" y="1500" type="line"/>
      <point x="1455" y="1500" type="line"/>
      <point x="1455" y="1294" type="line"/>
    </contour>
    <contour>
      <point x="1455" y="0" type="line"/>
      <point x="1455" y="1500" type="line"/>
      <point x="1035" y="1500" type="line"/>
      <point x="1035" y="0" type="line"/>
    </contour>
    <contour>
      <point x="1852" y="670" type="line"/>
      <point x="1852" y="874" type="line"/>
      <point x="1455" y="874" type="line"/>
      <point x="1455" y="670" type="line"/>
    </contour>
    <contour>
      <point x="1773" y="1294" type="line"/>
      <point x="1933" y="1294"/>
      <point x="1993" y="1224"/>
      <point x="1993" y="1054" type="curve" smooth="yes"/>
      <point x="1993" y="940" type="line"/>
      <point x="2191" y="940" type="line"/>
      <point x="2191" y="1294" type="line"/>
    </contour>
    <contour>
      <point x="1787" y="206" type="curve"/>
      <point x="2205" y="206" type="line"/>
      <point x="2205" y="580" type="line"/>
      <point x="2007" y="580" type="line"/>
      <point x="2007" y="446" type="line" smooth="yes"/>
      <point x="2007" y="276"/>
      <point x="1947" y="206"/>
    </contour>
    <contour>
      <point x="1460" y="874" type="curve"/>
      <point x="1852" y="874" type="line"/>
      <point x="1852" y="1174" type="line"/>
      <point x="1660" y="1174" type="line"/>
      <point x="1660" y="1104" type="line" smooth="yes"/>
      <point x="1660" y="944"/>
      <point x="1603" y="874"/>
    </contour>
    <contour>
      <point x="1460" y="670" type="line"/>
      <point x="1603" y="670"/>
      <point x="1660" y="600"/>
      <point x="1660" y="440" type="curve" smooth="yes"/>
      <point x="1660" y="326" type="line"/>
      <point x="1852" y="326" type="line"/>
      <point x="1852" y="670" type="line"/>
    </contour>
  </outline>
</glyph>
<glyph name="Thorn" format="2">
  <advance width="1479"/>
  <unicode hex="00DE"/>
  <outline>
    <contour>
      <point x="654" y="1501" type="line"/>
      <point x="234" y="1501" type="line"/>
      <point x="234" y="0" type="line"/>
      <point x="654" y="0" type="line"/>
    </contour>
    <contour>
      <point x="654" y="1154" type="line"/>
      <point x="654" y="948" type="line"/>
      <point x="800" y="948" type="line" smooth="yes"/>
      <point x="938" y="948"/>
      <point x="1023" y="885"/>
      <point x="1023" y="753" type="curve" smooth="yes"/>
      <point x="1023" y="621"/>
      <point x="938" y="558"/>
      <point x="800" y="558" type="curve" smooth="yes"/>
      <point x="654" y="558" type="line"/>
      <point x="654" y="352" type="line"/>
      <point x="950" y="352" type="line" smooth="yes"/>
      <point x="1253" y="352"/>
      <point x="1453" y="487"/>
      <point x="1453" y="753" type="curve" smooth="yes"/>
      <point x="1453" y="1019"/>
      <point x="1253" y="1154"/>
      <point x="950" y="1154" type="curve" smooth="yes"/>
    </contour>
  </outline>
</glyph>
<glyph name="ae" format="2">
  <advance width="1866"/>
  <unicode hex="00E6"/>
  <anchor x="906" y="1140" name="top"/>
  <outline>
    <contour>
      <point x="1792" y="490" type="curve"/>
      <point x="1616" y="490" type="line"/>
      <point x="1599" y="362"/>
      <point x="1526" y="249"/>
      <point x="1379" y="249" type="curve" smooth="yes"/>
      <point x="1206" y="249"/>
      <point x="1112" y="386"/>
      <point x="1112" y="628" type="curve" smooth="yes"/>
      <point x="1112" y="908"/>
      <point x="1175" y="992"/>
      <point x="1271" y="992" type="curve"/>
      <point x="1283" y="1166" type="line"/>
      <point x="970" y="1166"/>
      <point x="744" y="939"/>
      <point x="744" y="558" type="curve" smooth="yes"/>
      <point x="744" y="191"/>
      <point x="968" y="-26"/>
      <point x="1287" y="-26" type="curve" smooth="yes"/>
      <point x="1614" y="-26"/>
      <point x="1786" y="210"/>
    </contour>
    <contour>
      <point x="1400" y="748" type="curve"/>
      <point x="1804" y="631" type="line"/>
      <point x="1804" y="941"/>
      <point x="1621" y="1166"/>
      <point x="1283" y="1166" type="curve"/>
      <point x="1271" y="992" type="line"/>
      <point x="1353" y="992"/>
      <point x="1398" y="899"/>
    </contour>
    <contour>
      <point x="912" y="748" type="line"/>
      <point x="912" y="570" type="line"/>
      <point x="1804" y="570" type="line"/>
      <point x="1804" y="631" type="line"/>
      <point x="1400" y="748" type="line"/>
    </contour>
    <contour>
      <point x="581" y="517" type="curve" smooth="yes"/>
      <point x="613" y="532" type="line" smooth="yes"/>
      <point x="666" y="557"/>
      <point x="699" y="589"/>
      <point x="714" y="631" type="curve"/>
      <point x="724" y="631" type="line"/>
      <point x="718" y="832" type="line"/>
      <point x="718" y="743"/>
      <point x="666" y="700"/>
      <point x="565" y="671" type="curve" smooth="yes"/>
      <point x="383" y="618" type="line" smooth="yes"/>
      <point x="188" y="561"/>
      <point x="46" y="469"/>
      <point x="46" y="278" type="curve" smooth="yes"/>
      <point x="46" y="98"/>
      <point x="185" y="-26"/>
      <point x="420" y="-26" type="curve" smooth="yes"/>
      <point x="672" y="-26"/>
      <point x="811" y="150"/>
      <point x="807" y="365" type="curve"/>
      <point x="714" y="433" type="line"/>
      <point x="714" y="296"/>
      <point x="648" y="242"/>
      <point x="568" y="242" type="curve" smooth="yes"/>
      <point x="500" y="242"/>
      <point x="450" y="288"/>
      <point x="450" y="365" type="curve" smooth="yes"/>
      <point x="450" y="439"/>
      <point x="500" y="479"/>
    </contour>
    <contour>
      <point x="718" y="831" type="line"/>
      <point x="718" y="731" type="line"/>
      <point x="704" y="631" type="line"/>
      <point x="714" y="631" type="line"/>
      <point x="714" y="360" type="line"/>
      <point x="807" y="365" type="line"/>
      <point x="1020" y="318" type="line"/>
      <point x="1020" y="759" type="line"/>
    </contour>
    <contour>
      <point x="106" y="862" type="curve" smooth="yes"/>
      <point x="106" y="739"/>
      <point x="211" y="682"/>
      <point x="327" y="682" type="curve" smooth="yes"/>
      <point x="456" y="682"/>
      <point x="533" y="751"/>
      <point x="533" y="846" type="curve" smooth="yes"/>
      <point x="533" y="951"/>
      <point x="445" y="988"/>
      <point x="307" y="988" type="curve"/>
      <point x="307" y="865" type="line"/>
      <point x="350" y="946"/>
      <point x="427" y="1006"/>
      <point x="542" y="1006" type="curve" smooth="yes"/>
      <point x="653" y="1006"/>
      <point x="718" y="952"/>
      <point x="718" y="831" type="curve"/>
      <point x="1020" y="759" type="line"/>
      <point x="1023" y="1030"/>
      <point x="879" y="1166"/>
      <point x="589" y="1166" type="curve" smooth="yes"/>
      <point x="335" y="1166"/>
      <point x="106" y="1060"/>
    </contour>
  </outline>
</glyph>
<glyph name="eth" format="2">
  <advance width="1400"/>
  <unicode hex="00F0"/>
  <outline>
    <contour>
      <point x="968" y="566" type="line"/>
      <point x="968" y="935"/>
      <point x="802" y="1116"/>
      <point x="552" y="1116" type="curve" smooth="yes"/>
      <point x="266" y="1116"/>
      <point x="52" y="922"/>
      <point x="52" y="570" type="curve" smooth="yes"/>
      <point x="52" y="185"/>
      <point x="328" y="-26"/>
      <point x="695" y="-26" type="curve" smooth="yes"/>
      <point x="1078" y="-26"/>
      <point x="1348" y="217"/>
      <point x="1348" y="660" type="curve" smooth="yes"/>
      <point x="1348" y="1093"/>
      <point x="1032" y="1486"/>
      <point x="585" y="1726" type="curve"/>
      <point x="470" y="1577" type="line"/>
      <point x="783" y="1271"/>
      <point x="896" y="1032"/>
      <point x="926" y="566" type="curve"/>
      <point x="912" y="566" type="line"/>
      <point x="912" y="328"/>
      <point x="834" y="194"/>
      <point x="705" y="194" type="curve" smooth="yes"/>
      <point x="576" y="194"/>
      <point x="498" y="321"/>
      <point x="498" y="550" type="curve" smooth="yes"/>
      <point x="498" y="775"/>
      <point x="576" y="906"/>
      <point x="705" y="906" type="curve" smooth="yes"/>
      <point x="834" y="906"/>
      <point x="912" y="794"/>
      <point x="912" y="566" type="curve"/>
    </contour>
    <contour>
      <point x="1306" y="1318" type="line"/>
      <point x="1306" y="1514" type="line"/>
      <point x="400" y="1390" type="line"/>
      <point x="400" y="1194" type="line"/>
    </contour>
  </outline>
</glyph>
<glyph name="thorn" format="2">
  <advance width="1470"/>
  <unicode hex="00FE"/>
  <outline>
    <contour>
      <point x="584" y="-420" type="line"/>
      <point x="584" y="334" type="line"/>
      <point x="529" y="581" type="line"/>
      <point x="584" y="836" type="line"/>
      <point x="584" y="1500" type="line"/>
      <point x="184" y="1500" type="line"/>
      <point x="184" y="-420" type="line"/>
    </contour>
    <contour>
      <point x="927" y="-20" type="curve" smooth="yes"/>
      <point x="1216" y="-20"/>
      <point x="1418" y="201"/>
      <point x="1418" y="570" type="curve" smooth="yes"/>
      <point x="1418" y="939"/>
      <point x="1216" y="1160"/>
      <point x="923" y="1160" type="curve" smooth="yes"/>
      <point x="602" y="1160"/>
      <point x="485" y="908"/>
      <point x="487" y="570" type="curve"/>
      <point x="509" y="570" type="line"/>
      <point x="509" y="221"/>
      <point x="602" y="-20"/>
    </contour>
    <contour>
      <point x="772" y="200" type="curve" smooth="yes"/>
      <point x="638" y="200"/>
      <point x="564" y="327"/>
      <point x="564" y="570" type="curve" smooth="yes"/>
      <point x="564" y="813"/>
      <point x="638" y="940"/>
      <point x="772" y="940" type="curve" smooth="yes"/>
      <point x="904" y="940"/>
      <point x="978" y="813"/>
      <point x="978" y="570" type="curve" smooth="yes"/>
      <point x="978" y="327"/>
      <point x="904" y="200"/>
    </contour>
  </outline>
</glyph>
<glyph name="dcroat" format="2">
  <advance width="1464"/>
  <unicode hex="0111"/>
  <anchor x="784" y="0" name="bottom"/>
  <outline>
    <contour>
      <point x="1286" y="0" type="line"/>
      <point x="1286" y="1500" type="line"/>
      <point x="886" y="1500" type="line"/>
      <point x="886" y="838" type="line"/>
      <point x="948" y="581" type="line"/>
      <point x="916" y="280" type="line"/>
      <point x="916" y="0" type="line"/>
    </contour>
    <contour>
      <point x="543" y="1140" type="curve" smooth="yes"/>
      <point x="254" y="1140"/>
      <point x="52" y="923"/>
      <point x="52" y="560" type="curve" smooth="yes"/>
      <point x="52" y="197"/>
      <point x="254" y="-20"/>
      <point x="547" y="-20" type="curve" smooth="yes"/>
      <point x="868" y="-20"/>
      <point x="985" y="228"/>
      <point x="983" y="560" type="curve"/>
      <point x="961" y="560" type="line"/>
      <point x="961" y="903"/>
      <point x="868" y="1140"/>
    </contour>
    <contour>
      <point x="698" y="920" type="curve" smooth="yes"/>
      <point x="832" y="920"/>
      <point x="906" y="796"/>
      <point x="906" y="560" type="curve" smooth="yes"/>
      <point x="906" y="324"/>
      <point x="832" y="200"/>
      <point x="698" y="200" type="curve" smooth="yes"/>
      <point x="566" y="200"/>
      <point x="492" y="324"/>
      <point x="492" y="560" type="curve" smooth="yes"/>
      <point x="492" y="796"/>
      <point x="566" y="920"/>
    </contour>
    <contour>
      <point x="626" y="1390" type="line"/>
      <point x="626" y="1212" type="line"/>
      <point x="1436" y="1212" type="line"/>
      <point x="1436" y="1390" type="line"/>
    </contour>
  </outline>
</glyph>
<glyph name="hbar" format="2">
  <advance width="1416"/>
  <unicode hex="0127"/>
  <outline>
    <contour>
      <point x="184" y="1500" type="line"/>
      <point x="184" y="0" type="line"/>
      <point x="584" y="0" type="line"/>
      <point x="584" y="1500" type="line"/>
    </contour>
    <contour>
      <point x="555" y="717" type="curve"/>
      <point x="584" y="719" type="line"/>
      <point x="584" y="850"/>
      <point x="653" y="896"/>
      <point x="732" y="896" type="curve" smooth="yes"/>
      <point x="807" y="896"/>
      <point x="856" y="852"/>
      <point x="856" y="765" type="curve" smooth="yes"/>
      <point x="856" y="0" type="line"/>
      <point x="1256" y="0" type="line"/>
      <point x="1256" y="765" type="line" smooth="yes"/>
      <point x="1256" y="1024"/>
      <point x="1110" y="1138"/>
      <point x="904" y="1138" type="curve" smooth="yes"/>
      <point x="624" y="1138"/>
      <point x="555" y="973"/>
    </contour>
    <contour>
      <point x="34" y="1390" type="line"/>
      <point x="34" y="1212" type="line"/>
      <point x="844" y="1212" type="line"/>
      <point x="844" y="1390" type="line"/>
    </contour>
  </outline>
</glyph>
<glyph name="idotless" format="2">
  <advance width="780"/>
  <unicode hex="0131"/>
  <anchor x="394" y="0" name="bottom"/>
  <anchor x="608" y="0" name="ogonek"/>
  <anchor x="394" y="1140" name="top"/>
  <outline>
    <contour>
      <point x="208" y="1140" type="line"/>
      <point x="208" y="0" type="line"/>
      <point x="608" y="0" type="line"/>
      <point x="608" y="1140" type="line"/>
    </contour>
  </outline>
</glyph>
<glyph name="kgreenlandic" format="2">
  <advance width="1467"/>
  <unicode hex="0138"/>
  <outline>
    <contour>
      <point x="209" y="1140" type="line"/>
      <point x="208" y="0" type="line"/>
      <point x="608" y="0" type="line"/>
      <point x="609" y="1140" type="line"/>
    </contour>
    <contour>
      <point x="1452" y="1140" type="line"/>
      <point x="1140" y="1140" type="line"/>
      <point x="439" y="496" type="line"/>
      <point x="581" y="348" type="line"/>
    </contour>
    <contour>
      <point x="1450" y="0" type="line"/>
      <point x="919" y="799" type="line"/>
      <point x="659" y="563" type="line"/>
      <point x="1008" y="0" type="line"/>
    </contour>
  </outline>
</glyph>
<glyph name="Eng" format="2">
  <advance width="1694"/>
  <unicode hex="014A"/>
  <outline>
    <contour>
      <point x="448" y="0" type="line"/>
      <point x="448" y="943" type="line"/>
      <point x="518" y="1500" type="line"/>
      <point x="224" y="1500" type="line"/>
      <point x="224" y="0" type="line"/>
    </contour>
    <contour>
      <point x="1265" y="639" type="line"/>
      <point x="518" y="1500" type="line"/>
      <point x="448" y="943" type="line"/>
      <point x="1296" y="-36" type="line"/>
    </contour>
    <contour>
      <point x="1489" y="-76" type="line"/>
      <point x="1489" y="1500" type="line"/>
      <point x="1265" y="1500" type="line"/>
      <point x="1265" y="639" type="line"/>
      <point x="1265" y="-125" type="line"/>
    </contour>
    <contour>
      <point x="1109" y="-452" type="line"/>
      <point x="1309" y="-452"/>
      <point x="1489" y="-356"/>
      <point x="1489" y="-76" type="curve"/>
      <point x="1265" y="-125" type="line"/>
      <point x="1265" y="-252"/>
      <point x="1207" y="-302"/>
      <point x="1111" y="-302" type="curve"/>
    </contour>
    <contour>
      <point x="1109" y="-452" type="curve"/>
      <point x="1111" y="-302" type="line"/>
      <point x="1054" y="-302"/>
      <point x="1013" y="-273"/>
      <point x="990" y="-239" type="curve"/>
      <point x="971" y="-300" type="line"/>
      <point x="1092" y="-300"/>
      <point x="1184" y="-278"/>
      <point x="1184" y="-170" type="curve" smooth="yes"/>
      <point x="1184" y="-83"/>
      <point x="1099" y="-40"/>
      <point x="999" y="-40" type="curve" smooth="yes"/>
      <point x="861" y="-40"/>
      <point x="787" y="-122"/>
      <point x="787" y="-216" type="curve" smooth="yes"/>
      <point x="787" y="-358"/>
      <point x="920" y="-452"/>
    </contour>
  </outline>
</glyph>
<glyph name="eng" format="2">
  <advance width="1384"/>
  <unicode hex="014B"/>
  <outline>
    <contour>
      <point x="208" y="1140" type="line"/>
      <point x="208" y="0" type="line"/>
      <point x="608" y="0" type="line"/>
      <point x="608" y="804" type="line"/>
      <point x="558" y="796" type="line"/>
      <point x="558" y="1140" type="line"/>
    </contour>
    <contour>
      <point x="545" y="745" type="curve"/>
      <point x="608" y="747" type="line"/>
      <point x="608" y="878"/>
      <point x="677" y="924"/>
      <point x="756" y="924" type="curve" smooth="yes"/>
      <point x="831" y="924"/>
      <point x="880" y="880"/>
      <point x="880" y="793" type="curve" smooth="yes"/>
      <point x="880" y="-135" type="line"/>
      <point x="1280" y="54" type="line"/>
      <point x="1280" y="793" type="line" smooth="yes"/>
      <point x="1280" y="1052"/>
      <point x="1123" y="1166"/>
      <point x="914" y="1166" type="curve" smooth="yes"/>
      <point x="623" y="1166"/>
      <point x="545" y="1001"/>
    </contour>
    <contour>
      <point x="764" y="-452" type="line"/>
      <point x="1038" y="-452"/>
      <point x="1280" y="-295"/>
      <point x="1280" y="54" type="curve"/>
      <point x="880" y="-135" type="line"/>
      <point x="880" y="-255"/>
      <point x="822" y="-302"/>
      <point x="726" y="-302" type="curve"/>
    </contour>
    <contour>
      <point x="764" y="-452" type="curve"/>
      <point x="726" y="-302" type="line"/>
      <point x="669" y="-302"/>
      <point x="628" y="-273"/>
      <point x="605" y="-239" type="curve"/>
      <point x="586" y="-300" type="line"/>
      <point x="707" y="-300"/>
      <point x="799" y="-278"/>
      <point x="799" y="-170" type="curve" smooth="yes"/>
      <point x="799" y="-83"/>
      <point x="714" y="-40"/>
      <point x="614" y="-40" type="curve" smooth="yes"/>
      <point x="476" y="-40"/>
      <point x="402" y="-122"/>
      <point x="402" y="-216" type="curve" smooth="yes"/>
      <point x="402" y="-358"/>
      <point x="551" y="-452"/>
    </contour>
  </outline>
</glyph>
<glyph name="OE" format="2">
  <advance width="2264"/>
  <unicode hex="0152"/>
  <outline>
    <contour>
      <point x="2180" y="0" type="line"/>
      <point x="2180" y="206" type="line"/>
      <point x="1430" y="206" type="line"/>
      <point x="1430" y="0" type="line"/>
    </contour>
    <contour>
      <point x="2166" y="1294" type="line"/>
      <point x="2166" y="1500" type="line"/>
      <point x="1430" y="1500" type="line"/>
      <point x="1430" y="1294" type="line"/>
    </contour>
    <contour>
      <point x="1430" y="0" type="line"/>
      <point x="1430" y="1500" type="line"/>
      <point x="1010" y="1500" type="line"/>
      <point x="1010" y="0" type="line"/>
    </contour>
    <contour>
      <point x="1827" y="670" type="line"/>
      <point x="1827" y="874" type="line"/>
      <point x="1430" y="874" type="line"/>
      <point x="1430" y="670" type="line"/>
    </contour>
    <contour>
      <point x="1748" y="1294" type="line"/>
      <point x="1908" y="1294"/>
      <point x="1968" y="1224"/>
      <point x="1968" y="1054" type="curve" smooth="yes"/>
      <point x="1968" y="940" type="line"/>
      <point x="2166" y="940" type="line"/>
      <point x="2166" y="1294" type="line"/>
    </contour>
    <contour>
      <point x="1762" y="206" type="curve"/>
      <point x="2180" y="206" type="line"/>
      <point x="2180" y="580" type="line"/>
      <point x="1982" y="580" type="line"/>
      <point x="1982" y="446" type="line" smooth="yes"/>
      <point x="1982" y="276"/>
      <point x="1922" y="206"/>
    </contour>
    <contour>
      <point x="1435" y="874" type="curve"/>
      <point x="1827" y="874" type="line"/>
      <point x="1827" y="1174" type="line"/>
      <point x="1635" y="1174" type="line"/>
      <point x="1635" y="1104" type="line" smooth="yes"/>
      <point x="1635" y="944"/>
      <point x="1578" y="874"/>
    </contour>
    <contour>
      <point x="1435" y="670" type="line"/>
      <point x="1578" y="670"/>
      <point x="1635" y="600"/>
      <point x="1635" y="440" type="curve" smooth="yes"/>
      <point x="1635" y="326" type="line"/>
      <point x="1827" y="326" type="line"/>
      <point x="1827" y="670" type="line"/>
    </contour>
    <contour>
      <point x="1010" y="0" type="line"/>
      <point x="1010" y="206" type="line"/>
      <point x="896" y="206" type="line" smooth="yes"/>
      <point x="657" y="206"/>
      <point x="500" y="415"/>
      <point x="500" y="750" type="curve" smooth="yes"/>
      <point x="500" y="1085"/>
      <point x="657" y="1294"/>
      <point x="896" y="1294" type="curve" smooth="yes"/>
      <point x="1010" y="1294" type="line"/>
      <point x="1010" y="1500" type="line"/>
      <point x="834" y="1500" type="line" smooth="yes"/>
      <point x="356" y="1500"/>
      <point x="38" y="1230"/>
      <point x="38" y="750" type="curve" smooth="yes"/>
      <point x="38" y="270"/>
      <point x="356" y="0"/>
      <point x="834" y="0" type="curve" smooth="yes"/>
    </contour>
  </outline>
</glyph>
<glyph name="oe" format="2">
  <advance width="2044"/>
  <unicode hex="0153"/>
  <outline>
    <contour>
      <point x="1970" y="490" type="curve"/>
      <point x="1794" y="490" type="line"/>
      <point x="1777" y="362"/>
      <point x="1704" y="249"/>
      <point x="1557" y="249" type="curve" smooth="yes"/>
      <point x="1384" y="249"/>
      <point x="1290" y="386"/>
      <point x="1290" y="628" type="curve" smooth="yes"/>
      <point x="1290" y="908"/>
      <point x="1353" y="992"/>
      <point x="1449" y="992" type="curve"/>
      <point x="1457" y="1166" type="line"/>
      <point x="1146" y="1166"/>
      <point x="922" y="940"/>
      <point x="922" y="558" type="curve" smooth="yes"/>
      <point x="922" y="191"/>
      <point x="1135" y="-26"/>
      <point x="1461" y="-26" type="curve" smooth="yes"/>
      <point x="1795" y="-26"/>
      <point x="1966" y="190"/>
    </contour>
    <contour>
      <point x="1578" y="748" type="curve"/>
      <point x="1982" y="631" type="line"/>
      <point x="1982" y="941"/>
      <point x="1798" y="1166"/>
      <point x="1457" y="1166" type="curve"/>
      <point x="1449" y="992" type="line"/>
      <point x="1531" y="992"/>
      <point x="1576" y="899"/>
    </contour>
    <contour>
      <point x="1090" y="748" type="line"/>
      <point x="1090" y="570" type="line"/>
      <point x="1982" y="570" type="line"/>
      <point x="1982" y="631" type="line"/>
      <point x="1578" y="748" type="line"/>
    </contour>
    <contour>
      <point x="651" y="-26" type="curve" smooth="yes"/>
      <point x="1022" y="-26"/>
      <point x="1210" y="194"/>
      <point x="1210" y="569" type="curve" smooth="yes"/>
      <point x="1210" y="943"/>
      <point x="1002" y="1166"/>
      <point x="651" y="1166" type="curve" smooth="yes"/>
      <point x="301" y="1166"/>
      <point x="52" y="944"/>
      <point x="52" y="570" type="curve" smooth="yes"/>
      <point x="52" y="195"/>
      <point x="301" y="-26"/>
    </contour>
    <contour>
      <point x="671" y="148" type="curve" smooth="yes"/>
      <point x="556" y="148"/>
      <point x="498" y="294"/>
      <point x="498" y="570" type="curve" smooth="yes"/>
      <point x="498" y="840"/>
      <point x="556" y="992"/>
      <point x="671" y="992" type="curve" smooth="yes"/>
      <point x="786" y="992"/>
      <point x="844" y="845"/>
      <point x="844" y="585" type="curve" smooth="yes"/>
      <point x="844" y="300"/>
      <point x="786" y="148"/>
    </contour>
  </outline>
</glyph>
<glyph name="tbar" format="2">
  <advance width="1198"/>
  <unicode hex="0167"/>
  <outline>
    <contour>
      <point x="484" y="1460" type="line"/>
      <point x="484" y="1432" type="line" smooth="yes"/>
      <point x="484" y="1216"/>
      <point x="405" y="1122"/>
      <point x="140" y="1122" type="curve" smooth="yes"/>
      <point x="80" y="1122" type="line"/>
      <point x="80" y="932" type="line"/>
      <point x="342" y="932" type="line"/>
      <point x="310" y="379" type="line" smooth="yes"/>
      <point x="295" y="128"/>
      <point x="436" y="-24"/>
      <point x="697" y="-24" type="curve" smooth="yes"/>
      <point x="958" y="-24"/>
      <point x="1086" y="128"/>
      <point x="1086" y="359" type="curve" smooth="yes"/>
      <point x="1086" y="390" type="line"/>
      <point x="882" y="390" type="line"/>
      <point x="882" y="371" type="line" smooth="yes"/>
      <point x="882" y="303"/>
      <point x="856" y="264"/>
      <point x="795" y="264" type="curve" smooth="yes"/>
      <point x="735" y="264"/>
      <point x="708" y="305"/>
      <point x="708" y="371" type="curve" smooth="yes"/>
      <point x="708" y="1460" type="line"/>
    </contour>
    <contour>
      <point x="708" y="1140" type="line"/>
      <point x="708" y="932" type="line"/>
      <point x="1118" y="932" type="line"/>
      <point x="1118" y="1140" type="line"/>
    </contour>
    <contour>
      <point x="80" y="730" type="line"/>
      <point x="80" y="552" type="line"/>
      <point x="1118" y="552" type="line"/>
      <point x="1118" y="730" type="line"/>
    </contour>
  </outline>
</glyph>
<glyph name="florin" format="2">
  <advance width="1181"/>
  <unicode hex="0192"/>
  <outline>
    <contour>
      <point x="24" y="940" type="line"/>
      <point x="24" y="732" type="line"/>
      <point x="1006" y="732" type="line"/>
      <point x="1006" y="940" type="line"/>
    </contour>
    <contour>
      <point x="312" y="1126" type="line"/>
      <point x="312" y="-135" type="line"/>
      <point x="712" y="54" type="line"/>
      <point x="712" y="1185" type="line"/>
    </contour>
    <contour>
      <point x="849" y="1532" type="line"/>
      <point x="563" y="1532"/>
      <point x="312" y="1406"/>
      <point x="312" y="1126" type="curve"/>
      <point x="712" y="1185" type="line"/>
      <point x="712" y="1326"/>
      <point x="777" y="1382"/>
      <point x="887" y="1382" type="curve"/>
    </contour>
    <contour>
      <point x="849" y="1532" type="curve"/>
      <point x="887" y="1382" type="line"/>
      <point x="963" y="1382"/>
      <point x="1018" y="1344"/>
      <point x="1048" y="1299" type="curve"/>
      <point x="1067" y="1380" type="line"/>
      <point x="940" y="1380"/>
      <point x="844" y="1356"/>
      <point x="844" y="1240" type="curve" smooth="yes"/>
      <point x="844" y="1146"/>
      <point x="934" y="1100"/>
      <point x="1039" y="1100" type="curve" smooth="yes"/>
      <point x="1183" y="1100"/>
      <point x="1261" y="1188"/>
      <point x="1261" y="1290" type="curve" smooth="yes"/>
      <point x="1261" y="1436"/>
      <point x="1091" y="1532"/>
    </contour>
    <contour>
      <point x="192" y="-452" type="line"/>
      <point x="466" y="-452"/>
      <point x="712" y="-295"/>
      <point x="712" y="54" type="curve"/>
      <point x="312" y="-135" type="line"/>
      <point x="312" y="-255"/>
      <point x="250" y="-302"/>
      <point x="154" y="-302" type="curve"/>
    </contour>
    <contour>
      <point x="192" y="-452" type="curve"/>
      <point x="154" y="-302" type="line"/>
      <point x="97" y="-302"/>
      <point x="56" y="-273"/>
      <point x="33" y="-239" type="curve"/>
      <point x="14" y="-300" type="line"/>
      <point x="135" y="-300"/>
      <point x="227" y="-278"/>
      <point x="227" y="-170" type="curve" smooth="yes"/>
      <point x="227" y="-83"/>
      <point x="142" y="-40"/>
      <point x="42" y="-40" type="curve" smooth="yes"/>
      <point x="-96" y="-40"/>
      <point x="-170" y="-122"/>
      <point x="-170" y="-216" type="curve" smooth="yes"/>
      <point x="-170" y="-358"/>
      <point x="-21" y="-452"/>
    </contour>
  </outline>
</glyph>
<glyph name="jdotless" format="2">
  <advance width="724"/>
  <unicode hex="0237"/>
  <anchor x="372" y="-440" name="bottom"/>
  <anchor x="406" y="1140" name="top"/>
  <outline>
    <contour>
      <point x="216" y="1140" type="line"/>
      <point x="216" y="-135" type="line"/>
      <point x="620" y="54" type="line"/>
      <point x="620" y="1140" type="line"/>
    </contour>
    <contour>
      <point x="100" y="-452" type="line"/>
      <point x="374" y="-452"/>
      <point x="620" y="-295"/>
      <point x="620" y="54" type="curve"/>
      <point x="216" y="-135" type="line"/>
      <point x="216" y="-255"/>
      <point x="158" y="-302"/>
      <point x="62" y="-302" type="curve"/>
    </contour>
    <contour>
      <point x="100" y="-452" type="curve"/>
      <point x="62" y="-302" type="line"/>
      <point x="5" y="-302"/>
      <point x="-36" y="-273"/>
      <point x="-59" y="-239" type="curve"/>
      <point x="-78" y="-300" type="line"/>
      <point x="43" y="-300"/>
      <point x="135" y="-278"/>
      <point x="135" y="-170" type="curve" smooth="yes"/>
      <point x="135" y="-83"/>
      <point x="50" y="-40"/>
      <point x="-50" y="-40" type="curve" smooth="yes"/>
      <point x="-188" y="-40"/>
      <point x="-262" y="-122"/>
      <point x="-262" y="-216" type="curve" smooth="yes"/>
      <point x="-262" y="-358"/>
      <point x="-113" y="-452"/>
    </contour>
  </outline>
</glyph>
<glyph name="gravecomb" format="2">
  <unicode hex="0300"/>
  <anchor x="477" y="1140" name="_top"/>
  <outline>
    <contour>
      <point x="630" y="1250" type="line"/>
      <point x="500" y="1550" type="line"/>
      <point x="92" y="1550" type="line"/>
      <point x="392" y="1250" type="line"/>
    </contour>
  </outline>
</glyph>
<glyph name="circumflexcomb" format="2">
  <unicode hex="0302"/>
  <anchor x="481" y="1140" name="_top"/>
  <anchor x="930" y="1320" name="side"/>
  <anchor x="481" y="1530" name="top"/>
  <outline>
    <contour>
      <point x="870" y="1250" type="line"/>
      <point x="684" y="1550" type="line"/>
      <point x="278" y="1550" type="line"/>
      <point x="92" y="1250" type="line"/>
      <point x="292" y="1250" type="line"/>
      <point x="536" y="1463" type="line"/>
      <point x="366" y="1463" type="line"/>
      <point x="606" y="1250" type="line"/>
    </contour>
  </outline>
</glyph>
<glyph name="tildecomb" format="2">
  <unicode hex="0303"/>
  <anchor x="448" y="1140" name="_top"/>
  <anchor x="448" y="1518" name="top"/>
  <outline>
    <contour>
      <point x="92" y="1250" type="line"/>
      <point x="250" y="1250" type="line"/>
      <point x="250" y="1286" type="line" smooth="yes"/>
      <point x="250" y="1336"/>
      <point x="268" y="1364"/>
      <point x="302" y="1364" type="curve" smooth="yes"/>
      <point x="332" y="1364"/>
      <point x="356" y="1351"/>
      <point x="386" y="1330" type="curve" smooth="yes"/>
      <point x="422" y="1305" type="line"/>
      <point x="510" y="1470" type="line"/>
      <point x="474" y="1495" type="line" smooth="yes"/>
      <point x="414" y="1537"/>
      <point x="359" y="1572"/>
      <point x="280" y="1572" type="curve" smooth="yes"/>
      <point x="156" y="1572"/>
      <point x="92" y="1491"/>
      <point x="92" y="1346" type="curve" smooth="yes"/>
    </contour>
    <contour>
      <point x="804" y="1550" type="line"/>
      <point x="646" y="1550" type="line"/>
      <point x="646" y="1514" type="line" smooth="yes"/>
      <point x="646" y="1464"/>
      <point x="628" y="1436"/>
      <point x="594" y="1436" type="curve" smooth="yes"/>
      <point x="564" y="1436"/>
      <point x="540" y="1449"/>
      <point x="510" y="1470" type="curve" smooth="yes"/>
      <point x="474" y="1495" type="line"/>
      <point x="386" y="1330" type="line"/>
      <point x="422" y="1305" type="line" smooth="yes"/>
      <point x="482" y="1263"/>
      <point x="537" y="1228"/>
      <point x="616" y="1228" type="curve" smooth="yes"/>
      <point x="740" y="1228"/>
      <point x="804" y="1309"/>
      <point x="804" y="1454" type="curve" smooth="yes"/>
    </contour>
  </outline>
</glyph>
<glyph name="macroncomb" format="2">
  <unicode hex="0304"/>
  <anchor x="462" y="1140" name="_top"/>
  <outline>
    <contour>
      <point x="92" y="1470" type="line"/>
      <point x="92" y="1270" type="line"/>
      <point x="832" y="1270" type="line"/>
      <point x="832" y="1470" type="line"/>
    </contour>
  </outline>
</glyph>
<glyph name="brevecomb" format="2">
  <unicode hex="0306"/>
  <anchor x="466" y="1140" name="_top"/>
  <anchor x="466" y="1500" name="side"/>
  <anchor x="466" y="1530" name="top"/>
  <outline>
    <contour>
      <point x="92" y="1550" type="line"/>
      <point x="92" y="1364"/>
      <point x="227" y="1220"/>
      <point x="466" y="1220" type="curve" smooth="yes"/>
      <point x="705" y="1220"/>
      <point x="840" y="1364"/>
      <point x="840" y="1550" type="curve"/>
      <point x="666" y="1550" type="line"/>
      <point x="654" y="1492"/>
      <point x="597" y="1428"/>
      <point x="466" y="1428" type="curve" smooth="yes"/>
      <point x="335" y="1428"/>
      <point x="278" y="1492"/>
      <point x="266" y="1550" type="curve"/>
    </contour>
  </outline>
</glyph>
<glyph name="dotaccentcomb" format="2">
  <unicode hex="0307"/>
  <anchor x="308" y="1140" name="_top"/>
  <anchor x="308" y="1586" name="top"/>
  <outline>
    <contour>
      <point x="308" y="1224" type="curve" smooth="yes"/>
      <point x="437" y="1224"/>
      <point x="524" y="1307"/>
      <point x="524" y="1438" type="curve" smooth="yes"/>
      <point x="524" y="1568"/>
      <point x="437" y="1652"/>
      <point x="308" y="1652" type="curve" smooth="yes"/>
      <point x="179" y="1652"/>
      <point x="92" y="1568"/>
      <point x="92" y="1438" type="curve" smooth="yes"/>
      <point x="92" y="1307"/>
      <point x="179" y="1224"/>
    </contour>
  </outline>
</glyph>
<glyph name="dieresiscomb" format="2">
  <unicode hex="0308"/>
  <anchor x="510" y="1140" name="_top"/>
  <anchor x="510" y="1574" name="top"/>
  <outline>
    <contour>
      <point x="281" y="1226" type="curve" smooth="yes"/>
      <point x="394" y="1226"/>
      <point x="470" y="1300"/>
      <point x="470" y="1422" type="curve" smooth="yes"/>
      <point x="470" y="1543"/>
      <point x="394" y="1617"/>
      <point x="281" y="1617" type="curve" smooth="yes"/>
      <point x="168" y="1617"/>
      <point x="92" y="1543"/>
      <point x="92" y="1422" type="curve" smooth="yes"/>
      <point x="92" y="1300"/>
      <point x="168" y="1226"/>
    </contour>
    <contour>
      <point x="739" y="1226" type="curve" smooth="yes"/>
      <point x="852" y="1226"/>
      <point x="928" y="1300"/>
      <point x="928" y="1422" type="curve" smooth="yes"/>
      <point x="928" y="1543"/>
      <point x="852" y="1617"/>
      <point x="739" y="1617" type="curve" smooth="yes"/>
      <point x="626" y="1617"/>
      <point x="550" y="1543"/>
      <point x="550" y="1422" type="curve" smooth="yes"/>
      <point x="550" y="1300"/>
      <point x="626" y="1226"/>
    </contour>
  </outline>
</glyph>
<glyph name="hookabovecomb" format="2">
  <unicode hex="0309"/>
  <anchor x="373" y="1140" name="_top"/>
  <outline>
    <contour>
      <point x="426" y="1240" type="line"/>
      <point x="426" y="1274"/>
      <point x="440" y="1301"/>
      <point x="484" y="1321" type="curve" smooth="yes"/>
      <point x="577" y="1364"/>
      <point x="678" y="1417"/>
      <point x="678" y="1539" type="curve" smooth="yes"/>
      <point x="678" y="1681"/>
      <point x="545" y="1746"/>
      <point x="386" y="1746" type="curve"/>
      <point x="379" y="1634" type="line"/>
      <point x="428" y="1634"/>
      <point x="461" y="1609"/>
      <point x="461" y="1568" type="curve" smooth="yes"/>
      <point x="461" y="1525"/>
      <point x="426" y="1491"/>
      <point x="375" y="1454" type="curve" smooth="yes"/>
      <point x="303" y="1402"/>
      <point x="259" y="1331"/>
      <point x="296" y="1240" type="curve"/>
    </contour>
    <contour>
      <point x="386" y="1746" type="line"/>
      <point x="219" y="1746"/>
      <point x="92" y="1682"/>
      <point x="92" y="1583" type="curve" smooth="yes"/>
      <point x="92" y="1518"/>
      <point x="148" y="1476"/>
      <point x="233" y="1476" type="curve" smooth="yes"/>
      <point x="305" y="1476"/>
      <point x="353" y="1510"/>
      <point x="353" y="1562" type="curve" smooth="yes"/>
      <point x="353" y="1622"/>
      <point x="300" y="1640"/>
      <point x="220" y="1640" type="curve"/>
      <point x="256" y="1588" type="line"/>
      <point x="287" y="1615"/>
      <point x="327" y="1634"/>
      <point x="379" y="1634" type="curve"/>
    </contour>
  </outline>
</glyph>
<glyph name="ringcomb" format="2">
  <unicode hex="030A"/>
  <anchor x="383" y="1140" name="_top"/>
  <anchor x="383" y="1636" name="top"/>
  <outline>
    <contour>
      <point x="383" y="1218" type="curve" smooth="yes"/>
      <point x="554" y="1218"/>
      <point x="674" y="1307"/>
      <point x="674" y="1452" type="curve" smooth="yes"/>
      <point x="674" y="1596"/>
      <point x="554" y="1685"/>
      <point x="383" y="1685" type="curve" smooth="yes"/>
      <point x="212" y="1685"/>
      <point x="92" y="1596"/>
      <point x="92" y="1452" type="curve" smooth="yes"/>
      <point x="92" y="1307"/>
      <point x="212" y="1218"/>
    </contour>
    <contour>
      <point x="383" y="1328" type="curve" smooth="yes"/>
      <point x="329" y="1328"/>
      <point x="292" y="1375"/>
      <point x="292" y="1452" type="curve" smooth="yes"/>
      <point x="292" y="1528"/>
      <point x="329" y="1575"/>
      <point x="383" y="1575" type="curve" smooth="yes"/>
      <point x="437" y="1575"/>
      <point x="474" y="1528"/>
      <point x="474" y="1452" type="curve" smooth="yes"/>
      <point x="474" y="1375"/>
      <point x="437" y="1328"/>
    </contour>
  </outline>
</glyph>
<glyph name="hungarumlautcomb" format="2">
  <unicode hex="030B"/>
  <anchor x="411" y="1140" name="_top"/>
  <outline>
    <contour>
      <point x="92" y="1250" type="line"/>
      <point x="300" y="1250" type="line"/>
      <point x="534" y="1550" type="line"/>
      <point x="192" y="1550" type="line"/>
    </contour>
    <contour>
      <point x="460" y="1250" type="line"/>
      <point x="694" y="1250" type="line"/>
      <point x="1022" y="1550" type="line"/>
      <point x="632" y="1550" type="line"/>
    </contour>
  </outline>
</glyph>
<glyph name="caroncomb" format="2">
  <unicode hex="030C"/>
  <anchor x="481" y="1140" name="_top"/>
  <outline>
    <contour>
      <point x="92" y="1550" type="line"/>
      <point x="278" y="1250" type="line"/>
      <point x="684" y="1250" type="line"/>
      <point x="870" y="1550" type="line"/>
      <point x="670" y="1550" type="line"/>
      <point x="426" y="1337" type="line"/>
      <point x="596" y="1337" type="line"/>
      <point x="356" y="1550" type="line"/>
    </contour>
  </outline>
</glyph>
<glyph name="dblgravecomb" format="2">
  <unicode hex="030F"/>
  <anchor x="703" y="1140" name="_top"/>
  <outline>
    <contour>
      <point x="1022" y="1250" type="line"/>
      <point x="922" y="1550" type="line"/>
      <point x="580" y="1550" type="line"/>
      <point x="814" y="1250" type="line"/>
    </contour>
    <contour>
      <point x="654" y="1250" type="line"/>
      <point x="482" y="1550" type="line"/>
      <point x="92" y="1550" type="line"/>
      <point x="420" y="1250" type="line"/>
    </contour>
  </outline>
</glyph>
<glyph name="breveinvertedcomb" format="2">
  <unicode hex="0311"/>
  <anchor x="466" y="1140" name="_top"/>
  <outline>
    <contour>
      <point x="92" y="1250" type="curve"/>
      <point x="266" y="1250" type="line"/>
      <point x="278" y="1308"/>
      <point x="335" y="1372"/>
      <point x="466" y="1372" type="curve" smooth="yes"/>
      <point x="597" y="1372"/>
      <point x="654" y="1308"/>
      <point x="666" y="1250" type="curve"/>
      <point x="840" y="1250" type="line"/>
      <point x="840" y="1436"/>
      <point x="705" y="1580"/>
      <point x="466" y="1580" type="curve" smooth="yes"/>
      <point x="227" y="1580"/>
      <point x="92" y="1436"/>
    </contour>
  </outline>
</glyph>
<glyph name="commaturnedabovecomb" format="2">
  <unicode hex="0312"/>
  <anchor x="320" y="1140" name="_top"/>
  <outline>
    <contour>
      <point x="474" y="1819" type="curve"/>
      <point x="323" y="1819" type="line"/>
      <point x="222" y="1753"/>
      <point x="92" y="1622"/>
      <point x="92" y="1437" type="curve" smooth="yes"/>
      <point x="92" y="1283"/>
      <point x="192" y="1208"/>
      <point x="328" y="1208" type="curve" smooth="yes"/>
      <point x="464" y="1208"/>
      <point x="548" y="1282"/>
      <point x="548" y="1388" type="curve" smooth="yes"/>
      <point x="548" y="1511"/>
      <point x="448" y="1581"/>
      <point x="297" y="1565" type="curve"/>
      <point x="313" y="1645"/>
      <point x="380" y="1737"/>
    </contour>
  </outline>
</glyph>
<glyph name="horncomb" format="2">
  <unicode hex="031B"/>
  <anchor x="174" y="1140" name="_topright"/>
  <outline>
    <contour>
      <point x="124" y="1140" type="curve"/>
      <point x="124" y="1008" type="line"/>
      <point x="364" y="1008"/>
      <point x="488" y="1131"/>
      <point x="488" y="1328" type="curve" smooth="yes"/>
      <point x="488" y="1482"/>
      <point x="379" y="1567"/>
      <point x="257" y="1567" type="curve" smooth="yes"/>
      <point x="153" y="1567"/>
      <point x="92" y="1508"/>
      <point x="92" y="1423" type="curve" smooth="yes"/>
      <point x="92" y="1321"/>
      <point x="203" y="1256"/>
      <point x="333" y="1292" type="curve"/>
      <point x="325" y="1195"/>
      <point x="256" y="1140"/>
    </contour>
  </outline>
</glyph>
<glyph name="dotbelowcomb" format="2">
  <unicode hex="0323"/>
  <anchor x="320" y="0" name="_bottom"/>
  <outline>
    <contour>
      <point x="320" y="-498" type="curve" smooth="yes"/>
      <point x="455" y="-498"/>
      <point x="548" y="-419"/>
      <point x="548" y="-288" type="curve" smooth="yes"/>
      <point x="548" y="-158"/>
      <point x="455" y="-78"/>
      <point x="320" y="-78" type="curve" smooth="yes"/>
      <point x="185" y="-78"/>
      <point x="92" y="-158"/>
      <point x="92" y="-288" type="curve" smooth="yes"/>
      <point x="92" y="-419"/>
      <point x="185" y="-498"/>
    </contour>
  </outline>
</glyph>
<glyph name="dieresisbelowcomb" format="2">
  <unicode hex="0324"/>
  <anchor x="510" y="0" name="_bottom"/>
  <outline>
    <contour>
      <point x="281" y="-477" type="curve" smooth="yes"/>
      <point x="394" y="-477"/>
      <point x="470" y="-403"/>
      <point x="470" y="-281" type="curve" smooth="yes"/>
      <point x="470" y="-160"/>
      <point x="394" y="-86"/>
      <point x="281" y="-86" type="curve" smooth="yes"/>
      <point x="168" y="-86"/>
      <point x="92" y="-160"/>
      <point x="92" y="-281" type="curve" smooth="yes"/>
      <point x="92" y="-403"/>
      <point x="168" y="-477"/>
    </contour>
    <contour>
      <point x="739" y="-477" type="curve" smooth="yes"/>
      <point x="852" y="-477"/>
      <point x="928" y="-403"/>
      <point x="928" y="-281" type="curve" smooth="yes"/>
      <point x="928" y="-160"/>
      <point x="852" y="-86"/>
      <point x="739" y="-86" type="curve" smooth="yes"/>
      <point x="626" y="-86"/>
      <point x="550" y="-160"/>
      <point x="550" y="-281" type="curve" smooth="yes"/>
      <point x="550" y="-403"/>
      <point x="626" y="-477"/>
    </contour>
  </outline>
</glyph>
<glyph name="commaaccentcomb" format="2">
  <unicode hex="0326"/>
  <anchor x="320" y="0" name="_bottom"/>
  <outline>
    <contour>
      <point x="166" y="-687" type="curve"/>
      <point x="317" y="-687" type="line"/>
      <point x="418" y="-621"/>
      <point x="548" y="-490"/>
      <point x="548" y="-305" type="curve" smooth="yes"/>
      <point x="548" y="-151"/>
      <point x="448" y="-76"/>
      <point x="312" y="-76" type="curve" smooth="yes"/>
      <point x="176" y="-76"/>
      <point x="92" y="-150"/>
      <point x="92" y="-256" type="curve" smooth="yes"/>
      <point x="92" y="-379"/>
      <point x="192" y="-449"/>
      <point x="343" y="-433" type="curve"/>
      <point x="327" y="-513"/>
      <point x="260" y="-605"/>
    </contour>
  </outline>
</glyph>
<glyph name="cedillacomb" format="2">
  <unicode hex="0327"/>
  <anchor x="329" y="0" name="_bottom"/>
  <outline>
    <contour>
      <point x="257" y="10" type="line"/>
      <point x="232" y="-208" type="line"/>
      <point x="343" y="-208" type="line" smooth="yes"/>
      <point x="373" y="-208"/>
      <point x="396" y="-222"/>
      <point x="396" y="-251" type="curve" smooth="yes"/>
      <point x="396" y="-283"/>
      <point x="375" y="-301"/>
      <point x="323" y="-302" type="curve" smooth="yes"/>
      <point x="261" y="-303"/>
      <point x="201" y="-275"/>
      <point x="150" y="-245" type="curve"/>
      <point x="92" y="-355" type="line"/>
      <point x="154" y="-405"/>
      <point x="251" y="-440"/>
      <point x="351" y="-440" type="curve" smooth="yes"/>
      <point x="493" y="-440"/>
      <point x="596" y="-379"/>
      <point x="596" y="-246" type="curve" smooth="yes"/>
      <point x="596" y="-124"/>
      <point x="490" y="-84"/>
      <point x="404" y="-84" type="curve" smooth="yes"/>
      <point x="394" y="-84" type="line"/>
      <point x="403" y="10" type="line"/>
    </contour>
  </outline>
</glyph>
<glyph name="ogonekcomb" format="2">
  <unicode hex="0328"/>
  <anchor x="522" y="0" name="_ogonek"/>
  <outline>
    <contour>
      <point x="341" y="106" type="line"/>
      <point x="215" y="20"/>
      <point x="92" y="-89"/>
      <point x="92" y="-228" type="curve" smooth="yes"/>
      <point x="92" y="-360"/>
      <point x="204" y="-440"/>
      <point x="347" y="-440" type="curve" smooth="yes"/>
      <point x="433" y="-440"/>
      <point x="501" y="-417"/>
      <point x="543" y="-390" type="curve"/>
      <point x="491" y="-271" type="line"/>
      <point x="470" y="-281"/>
      <point x="453" y="-287"/>
      <point x="426" y="-287" type="curve" smooth="yes"/>
      <point x="373" y="-287"/>
      <point x="334" y="-256"/>
      <point x="334" y="-198" type="curve" smooth="yes"/>
      <point x="334" y="-119"/>
      <point x="385" y="-55"/>
      <point x="442" y="10" type="curve"/>
    </contour>
  </outline>
</glyph>
<glyph name="brevebelowcomb" format="2">
  <unicode hex="032E"/>
  <anchor x="466" y="0" name="_bottom"/>
  <outline>
    <contour>
      <point x="92" y="-110" type="line"/>
      <point x="92" y="-296"/>
      <point x="227" y="-440"/>
      <point x="466" y="-440" type="curve" smooth="yes"/>
      <point x="705" y="-440"/>
      <point x="840" y="-296"/>
      <point x="840" y="-110" type="curve"/>
      <point x="666" y="-110" type="line"/>
      <point x="654" y="-168"/>
      <point x="597" y="-232"/>
      <point x="466" y="-232" type="curve" smooth="yes"/>
      <point x="335" y="-232"/>
      <point x="278" y="-168"/>
      <point x="266" y="-110" type="curve"/>
    </contour>
  </outline>
</glyph>
<glyph name="macronbelowcomb" format="2">
  <unicode hex="0331"/>
  <anchor x="462" y="0" name="_bottom"/>
  <outline>
    <contour>
      <point x="92" y="-330" type="line"/>
      <point x="832" y="-330" type="line"/>
      <point x="832" y="-130" type="line"/>
      <point x="92" y="-130" type="line"/>
    </contour>
  </outline>
</glyph>
<glyph name="strokeshortcomb" format="2">
  <unicode hex="0335"/>
  <anchor x="517" y="750" name="_center"/>
  <anchor x="257" y="750" name="_stroke"/>
  <outline>
    <contour>
      <point x="92" y="840" type="line"/>
      <point x="92" y="662" type="line"/>
      <point x="942" y="662" type="line"/>
      <point x="942" y="840" type="line"/>
    </contour>
  </outline>
</glyph>
<glyph name="slashshortcomb" format="2">
  <unicode hex="0337"/>
  <anchor x="554" y="1140" name="_center"/>
  <outline>
    <contour>
      <point x="1050" y="660" type="line"/>
      <point x="1050" y="860" type="line"/>
      <point x="92" y="630" type="line"/>
      <point x="92" y="430" type="line"/>
    </contour>
  </outline>
</glyph>
<glyph name="slashlongcomb" format="2">
  <unicode hex="0338"/>
  <anchor x="752" y="1140" name="_top"/>
  <outline>
    <contour>
      <point x="1165" y="1140" type="line"/>
      <point x="92" y="0" type="line"/>
      <point x="339" y="0" type="line"/>
      <point x="1412" y="1140" type="line"/>
    </contour>
  </outline>
</glyph>
<glyph name="emdash" format="2">
  <advance width="2048"/>
  <unicode hex="2014"/>
  <outline>
    <contour>
      <point x="142" y="722" type="line"/>
      <point x="142" y="443" type="line"/>
      <point x="1906" y="443" type="line"/>
      <point x="1906" y="722" type="line"/>
    </contour>
  </outline>
</glyph>
<glyph name="quoteleft" format="2">
  <advance width="657"/>
  <unicode hex="2018"/>
  <outline>
    <contour>
      <point x="523" y="1462" type="curve"/>
      <point x="333" y="1462" type="line"/>
      <point x="218" y="1384"/>
      <point x="54" y="1182"/>
      <point x="54" y="984" type="curve" smooth="yes"/>
      <point x="54" y="773"/>
      <point x="184" y="667"/>
      <point x="347" y="667" type="curve" smooth="yes"/>
      <point x="503" y="667"/>
      <point x="603" y="763"/>
      <point x="603" y="901" type="curve" smooth="yes"/>
      <point x="603" y="1054"/>
      <point x="484" y="1147"/>
      <point x="288" y="1147" type="curve"/>
      <point x="314" y="1246"/>
      <point x="391" y="1357"/>
    </contour>
  </outline>
</glyph>
<glyph name="quoteright" format="2">
  <advance width="657"/>
  <unicode hex="2019"/>
  <outline>
    <contour>
      <point x="134" y="727" type="curve"/>
      <point x="324" y="727" type="line"/>
      <point x="439" y="804"/>
      <point x="603" y="1007"/>
      <point x="603" y="1205" type="curve" smooth="yes"/>
      <point x="603" y="1415"/>
      <point x="473" y="1522"/>
      <point x="310" y="1522" type="curve" smooth="yes"/>
      <point x="154" y="1522"/>
      <point x="54" y="1426"/>
      <point x="54" y="1287" type="curve" smooth="yes"/>
      <point x="54" y="1134"/>
      <point x="173" y="1041"/>
      <point x="369" y="1041" type="curve"/>
      <point x="343" y="943"/>
      <point x="266" y="831"/>
    </contour>
  </outline>
</glyph>
<glyph name="ellipsis" format="2">
  <advance width="1586"/>
  <unicode hex="2026"/>
  <outline>
    <contour>
      <point x="275" y="-22" type="curve" smooth="yes"/>
      <point x="411" y="-22"/>
      <point x="496" y="79"/>
      <point x="496" y="224" type="curve" smooth="yes"/>
      <point x="496" y="369"/>
      <point x="411" y="470"/>
      <point x="275" y="470" type="curve" smooth="yes"/>
      <point x="140" y="470"/>
      <point x="54" y="369"/>
      <point x="54" y="224" type="curve" smooth="yes"/>
      <point x="54" y="79"/>
      <point x="140" y="-22"/>
    </contour>
    <contour>
      <point x="793" y="-22" type="curve" smooth="yes"/>
      <point x="929" y="-22"/>
      <point x="1014" y="79"/>
      <point x="1014" y="224" type="curve" smooth="yes"/>
      <point x="1014" y="369"/>
      <point x="929" y="470"/>
      <point x="793" y="470" type="curve" smooth="yes"/>
      <point x="658" y="470"/>
      <point x="572" y="369"/>
      <point x="572" y="224" type="curve" smooth="yes"/>
      <point x="572" y="79"/>
      <point x="658" y="-22"/>
    </contour>
    <contour>
      <point x="1311" y="-22" type="curve" smooth="yes"/>
      <point x="1447" y="-22"/>
      <point x="1532" y="79"/>
      <point x="1532" y="224" type="curve" smooth="yes"/>
      <point x="1532" y="369"/>
      <point x="1447" y="470"/>
      <point x="1311" y="470" type="curve" smooth="yes"/>
      <point x="1176" y="470"/>
      <point x="1090" y="369"/>
      <point x="1090" y="224" type="curve" smooth="yes"/>
      <point x="1090" y="79"/>
      <point x="1176" y="-22"/>
    </contour>
  </outline>
</glyph>
<glyph name="perthousand" format="2">
  <advance width="2474"/>
  <unicode hex="2030"/>
  <outline>
    <contour>
      <point x="1328" y="1500" type="line"/>
      <point x="301" y="0" type="line"/>
      <point x="573" y="0" type="line"/>
      <point x="1600" y="1500" type="line"/>
    </contour>
    <contour>
      <point x="457" y="840" type="curve" smooth="yes"/>
      <point x="705" y="840"/>
      <point x="882" y="966"/>
      <point x="882" y="1180" type="curve" smooth="yes"/>
      <point x="882" y="1394"/>
      <point x="705" y="1522"/>
      <point x="457" y="1522" type="curve" smooth="yes"/>
      <point x="209" y="1522"/>
      <point x="32" y="1395"/>
      <point x="32" y="1181" type="curve" smooth="yes"/>
      <point x="32" y="966"/>
      <point x="209" y="840"/>
    </contour>
    <contour>
      <point x="457" y="1000" type="curve" smooth="yes"/>
      <point x="376" y="1000"/>
      <point x="329" y="1062"/>
      <point x="329" y="1181" type="curve" smooth="yes"/>
      <point x="329" y="1297"/>
      <point x="376" y="1362"/>
      <point x="457" y="1362" type="curve" smooth="yes"/>
      <point x="538" y="1362"/>
      <point x="585" y="1300"/>
      <point x="585" y="1190" type="curve" smooth="yes"/>
      <point x="585" y="1066"/>
      <point x="538" y="1000"/>
    </contour>
    <contour>
      <point x="1422" y="-22" type="curve" smooth="yes"/>
      <point x="1652" y="-22"/>
      <point x="1819" y="104"/>
      <point x="1819" y="318" type="curve" smooth="yes"/>
      <point x="1819" y="532"/>
      <point x="1652" y="660"/>
      <point x="1422" y="660" type="curve" smooth="yes"/>
      <point x="1186" y="660"/>
      <point x="1019" y="533"/>
      <point x="1019" y="319" type="curve" smooth="yes"/>
      <point x="1019" y="104"/>
      <point x="1186" y="-22"/>
    </contour>
    <contour>
      <point x="1444" y="138" type="curve" smooth="yes"/>
      <point x="1363" y="138"/>
      <point x="1316" y="200"/>
      <point x="1316" y="319" type="curve" smooth="yes"/>
      <point x="1316" y="435"/>
      <point x="1363" y="500"/>
      <point x="1444" y="500" type="curve" smooth="yes"/>
      <point x="1525" y="500"/>
      <point x="1572" y="438"/>
      <point x="1572" y="328" type="curve" smooth="yes"/>
      <point x="1572" y="204"/>
      <point x="1525" y="138"/>
    </contour>
    <contour>
      <point x="2039" y="-21" type="curve" smooth="yes"/>
      <point x="2276" y="-21"/>
      <point x="2442" y="105"/>
      <point x="2442" y="319" type="curve" smooth="yes"/>
      <point x="2442" y="533"/>
      <point x="2276" y="661"/>
      <point x="2039" y="661" type="curve" smooth="yes"/>
      <point x="1808" y="661"/>
      <point x="1642" y="534"/>
      <point x="1642" y="320" type="curve" smooth="yes"/>
      <point x="1642" y="105"/>
      <point x="1808" y="-21"/>
    </contour>
    <contour>
      <point x="2017" y="139" type="curve" smooth="yes"/>
      <point x="1936" y="139"/>
      <point x="1889" y="201"/>
      <point x="1889" y="320" type="curve" smooth="yes"/>
      <point x="1889" y="436"/>
      <point x="1936" y="501"/>
      <point x="2017" y="501" type="curve" smooth="yes"/>
      <point x="2098" y="501"/>
      <point x="2145" y="439"/>
      <point x="2145" y="329" type="curve" smooth="yes"/>
      <point x="2145" y="205"/>
      <point x="2098" y="139"/>
    </contour>
  </outline>
</glyph>
<glyph name="second" format="2">
  <advance width="812"/>
  <unicode hex="2033"/>
  <outline>
    <contour>
      <point x="78" y="930" type="line"/>
      <point x="278" y="930" type="line"/>
      <point x="380" y="1500" type="line"/>
      <point x="92" y="1500" type="line"/>
    </contour>
    <contour>
      <point x="468" y="930" type="line"/>
      <point x="668" y="930" type="line"/>
      <point x="770" y="1500" type="line"/>
      <point x="482" y="1500" type="line"/>
    </contour>
  </outline>
</glyph>
<glyph name="guilsinglright" format="2">
  <advance width="628"/>
  <unicode hex="203A"/>
  <outline>
    <contour>
      <point x="36" y="1003" type="line"/>
      <point x="254" y="1003" type="line"/>
      <point x="612" y="583" type="line"/>
      <point x="254" y="163" type="line"/>
      <point x="36" y="163" type="line"/>
      <point x="221" y="583" type="line"/>
    </contour>
  </outline>
</glyph>
<glyph name="fraction" format="2">
  <advance width="1327"/>
  <unicode hex="2044"/>
  <outline>
    <contour>
      <point x="1051" y="1500" type="line"/>
      <point x="24" y="0" type="line"/>
      <point x="276" y="0" type="line"/>
      <point x="1303" y="1500" type="line"/>
    </contour>
  </outline>
</glyph>
<glyph name="colonsign" format="2">
  <advance width="1589"/>
  <unicode hex="20A1"/>
  <outline>
    <contour>
      <point x="783" y="1720" type="line"/>
      <point x="563" y="-220" type="line"/>
      <point x="736" y="-220" type="line"/>
      <point x="956" y="1720" type="line"/>
    </contour>
    <contour>
      <point x="1049" y="1720" type="line"/>
      <point x="829" y="-220" type="line"/>
      <point x="1002" y="-220" type="line"/>
      <point x="1222" y="1720" type="line"/>
    </contour>
    <component base="C"/>
  </outline>
</glyph>
<glyph name="franc" format="2">
  <advance width="1434"/>
  <unicode hex="20A3"/>
  <outline>
    <contour>
      <point x="1380" y="1294" type="line"/>
      <point x="1380" y="1500" type="line"/>
      <point x="628" y="1500" type="line"/>
      <point x="628" y="1294" type="line"/>
    </contour>
    <contour>
      <point x="1035" y="788" type="line"/>
      <point x="1035" y="992" type="line"/>
      <point x="628" y="992" type="line"/>
      <point x="628" y="788" type="line"/>
    </contour>
    <contour>
      <point x="962" y="1294" type="line"/>
      <point x="1122" y="1294"/>
      <point x="1182" y="1224"/>
      <point x="1182" y="1054" type="curve" smooth="yes"/>
      <point x="1182" y="920" type="line"/>
      <point x="1380" y="920" type="line"/>
      <point x="1380" y="1294" type="line"/>
    </contour>
    <contour>
      <point x="647" y="992" type="curve"/>
      <point x="1035" y="992" type="line"/>
      <point x="1035" y="1152" type="line"/>
      <point x="843" y="1152" type="line"/>
      <point x="843" y="1142" type="line" smooth="yes"/>
      <point x="843" y="1038"/>
      <point x="783" y="992"/>
    </contour>
    <contour>
      <point x="208" y="1500" type="line"/>
      <point x="208" y="0" type="line"/>
      <point x="628" y="0" type="line"/>
      <point x="628" y="1500" type="line"/>
    </contour>
    <contour>
      <point x="647" y="788" type="line"/>
      <point x="783" y="788"/>
      <point x="843" y="742"/>
      <point x="843" y="638" type="curve" smooth="yes"/>
      <point x="843" y="628" type="line"/>
      <point x="1035" y="628" type="line"/>
      <point x="1035" y="788" type="line"/>
    </contour>
    <contour>
      <point x="48" y="533" type="line"/>
      <point x="48" y="325" type="line"/>
      <point x="1141" y="325" type="line"/>
      <point x="1141" y="533" type="line"/>
    </contour>
  </outline>
</glyph>
<glyph name="naira" format="2">
  <advance width="1722"/>
  <unicode hex="20A6"/>
  <outline>
    <contour>
      <point x="48" y="694" type="line"/>
      <point x="48" y="486" type="line"/>
      <point x="991" y="486" type="line"/>
      <point x="991" y="694" type="line"/>
    </contour>
    <contour>
      <point x="48" y="1052" type="line"/>
      <point x="48" y="844" type="line"/>
      <point x="341" y="844" type="line"/>
      <point x="341" y="1052" type="line"/>
    </contour>
    <contour>
      <point x="748" y="1052" type="line"/>
      <point x="748" y="844" type="line"/>
      <point x="1662" y="844" type="line"/>
      <point x="1662" y="1052" type="line"/>
    </contour>
    <contour>
      <point x="1378" y="694" type="line"/>
      <point x="1378" y="486" type="line"/>
      <point x="1662" y="486" type="line"/>
      <point x="1662" y="694" type="line"/>
    </contour>
    <component base="N"/>
  </outline>
</glyph>
<glyph name="peseta" format="2">
  <advance width="1656"/>
  <unicode hex="20A7"/>
  <outline>
    <contour>
      <point x="644" y="1500" type="line"/>
      <point x="644" y="1294" type="line"/>
      <point x="740" y="1294" type="line" smooth="yes"/>
      <point x="922" y="1294"/>
      <point x="1033" y="1208"/>
      <point x="1033" y="1030" type="curve" smooth="yes"/>
      <point x="1033" y="852"/>
      <point x="922" y="766"/>
      <point x="740" y="766" type="curve" smooth="yes"/>
      <point x="644" y="766" type="line"/>
      <point x="644" y="560" type="line"/>
      <point x="890" y="560" type="line" smooth="yes"/>
      <point x="1235" y="560"/>
      <point x="1463" y="718"/>
      <point x="1463" y="1030" type="curve" smooth="yes"/>
      <point x="1463" y="1342"/>
      <point x="1235" y="1500"/>
      <point x="890" y="1500" type="curve" smooth="yes"/>
    </contour>
    <contour>
      <point x="224" y="1500" type="line"/>
      <point x="224" y="0" type="line"/>
      <point x="644" y="0" type="line"/>
      <point x="644" y="1500" type="line"/>
    </contour>
    <contour>
      <point x="51" y="1134" type="line"/>
      <point x="51" y="926" type="line"/>
      <point x="1630" y="926" type="line"/>
      <point x="1630" y="1134" type="line"/>
    </contour>
  </outline>
</glyph>
<glyph name="won" format="2">
  <advance width="2368"/>
  <unicode hex="20A9"/>
  <outline>
    <contour>
      <point x="1285" y="844" type="line"/>
      <point x="2320" y="844" type="line"/>
      <point x="2320" y="1052" type="line"/>
      <point x="1285" y="1052" type="line"/>
    </contour>
    <contour>
      <point x="48" y="694" type="line"/>
      <point x="48" y="486" type="line"/>
      <point x="639" y="486" type="line"/>
      <point x="639" y="694" type="line"/>
    </contour>
    <contour>
      <point x="1845" y="694" type="line"/>
      <point x="1845" y="486" type="line"/>
      <point x="2320" y="486" type="line"/>
      <point x="2320" y="694" type="line"/>
    </contour>
    <contour>
      <point x="1285" y="1052" type="line"/>
      <point x="48" y="1052" type="line"/>
      <point x="48" y="844" type="line"/>
      <point x="1285" y="844" type="line"/>
    </contour>
    <component base="W" xOffset="23"/>
  </outline>
</glyph>
<glyph name="euro" format="2">
  <advance width="1863"/>
  <unicode hex="20AC"/>
  <outline>
    <contour>
      <point x="122" y="980" type="line"/>
      <point x="92" y="812" type="line"/>
      <point x="1279" y="812" type="line"/>
      <point x="1309" y="980" type="line"/>
    </contour>
    <contour>
      <point x="78" y="720" type="line"/>
      <point x="48" y="552" type="line"/>
      <point x="1235" y="552" type="line"/>
      <point x="1265" y="720" type="line"/>
    </contour>
    <component base="C" xOffset="274"/>
  </outline>
</glyph>
<glyph name="peso" format="2">
  <advance width="1656"/>
  <unicode hex="20B1"/>
  <outline>
    <contour>
      <point x="644" y="1560" type="line"/>
      <point x="644" y="1354" type="line"/>
      <point x="680" y="1354" type="line" smooth="yes"/>
      <point x="899" y="1354"/>
      <point x="1033" y="1248"/>
      <point x="1033" y="1030" type="curve" smooth="yes"/>
      <point x="1033" y="812"/>
      <point x="899" y="706"/>
      <point x="680" y="706" type="curve" smooth="yes"/>
      <point x="644" y="706" type="line"/>
      <point x="644" y="500" type="line"/>
      <point x="830" y="500" type="line" smooth="yes"/>
      <point x="1211" y="500"/>
      <point x="1463" y="678"/>
      <point x="1463" y="1030" type="curve" smooth="yes"/>
      <point x="1463" y="1382"/>
      <point x="1211" y="1560"/>
      <point x="830" y="1560" type="curve" smooth="yes"/>
    </contour>
    <contour>
      <point x="224" y="1560" type="line"/>
      <point x="224" y="0" type="line"/>
      <point x="644" y="0" type="line"/>
      <point x="644" y="1560" type="line"/>
    </contour>
    <contour>
      <point x="51" y="1244" type="line"/>
      <point x="51" y="1076" type="line"/>
      <point x="1630" y="1076" type="line"/>
      <point x="1630" y="1244" type="line"/>
    </contour>
    <contour>
      <point x="51" y="984" type="line"/>
      <point x="51" y="816" type="line"/>
      <point x="1630" y="816" type="line"/>
      <point x="1630" y="984" type="line"/>
    </contour>
  </outline>
</glyph>
<glyph name="guarani" format="2">
  <advance width="1702"/>
  <unicode hex="20B2"/>
  <outline>
    <contour>
      <point x="830" y="1720" type="line"/>
      <point x="830" y="-220" type="line"/>
      <point x="1026" y="-220" type="line"/>
      <point x="1026" y="1720" type="line"/>
    </contour>
    <contour>
      <point x="1271" y="935" type="curve"/>
      <point x="1352" y="935" type="line"/>
      <point x="1348" y="1307"/>
      <point x="1178" y="1532"/>
      <point x="781" y="1532" type="curve" smooth="yes"/>
      <point x="367" y="1532"/>
      <point x="38" y="1244"/>
      <point x="38" y="750" type="curve" smooth="yes"/>
      <point x="38" y="256"/>
      <point x="367" y="-32"/>
      <point x="799" y="-32" type="curve" smooth="yes"/>
      <point x="1242" y="-32"/>
      <point x="1395" y="238"/>
      <point x="1401" y="589" type="curve"/>
      <point x="1324" y="589" type="line"/>
      <point x="1308" y="371"/>
      <point x="1185" y="202"/>
      <point x="929" y="202" type="curve" smooth="yes"/>
      <point x="666" y="202"/>
      <point x="508" y="416"/>
      <point x="508" y="750" type="curve" smooth="yes"/>
      <point x="508" y="1084"/>
      <point x="663" y="1298"/>
      <point x="919" y="1298" type="curve" smooth="yes"/>
      <point x="1160" y="1298"/>
      <point x="1258" y="1128"/>
    </contour>
    <contour>
      <point x="1475" y="1500" type="line"/>
      <point x="1259" y="1500" type="line"/>
      <point x="1259" y="1164" type="line"/>
      <point x="1352" y="935" type="line"/>
      <point x="1475" y="935" type="line"/>
    </contour>
    <contour>
      <point x="928" y="795" type="line"/>
      <point x="928" y="589" type="line"/>
      <point x="1710" y="589" type="line"/>
      <point x="1710" y="795" type="line"/>
    </contour>
    <contour>
      <point x="1534" y="589" type="line"/>
      <point x="1401" y="589" type="line"/>
      <point x="1316" y="367" type="line"/>
      <point x="1316" y="0" type="line"/>
      <point x="1534" y="0" type="line"/>
    </contour>
  </outline>
</glyph>
<glyph name="cedi" format="2">
  <advance width="1589"/>
  <unicode hex="20B5"/>
  <outline>
    <contour>
      <point x="830" y="1720" type="line"/>
      <point x="830" y="-220" type="line"/>
      <point x="1026" y="-220" type="line"/>
      <point x="1026" y="1720" type="line"/>
    </contour>
    <component base="C"/>
  </outline>
</glyph>
<glyph name="rupeeIndian" format="2">
  <advance width="1330"/>
  <unicode hex="20B9"/>
  <outline>
    <contour>
      <point x="58" y="1500" type="line"/>
      <point x="58" y="1294" type="line"/>
      <point x="354" y="1294" type="line" smooth="yes"/>
      <point x="536" y="1294"/>
      <point x="647" y="1208"/>
      <point x="647" y="1030" type="curve" smooth="yes"/>
      <point x="647" y="852"/>
      <point x="536" y="766"/>
      <point x="354" y="766" type="curve" smooth="yes"/>
      <point x="58" y="766" type="line"/>
      <point x="58" y="590" type="line"/>
      <point x="504" y="590" type="line" smooth="yes"/>
      <point x="849" y="590"/>
      <point x="1077" y="743"/>
      <point x="1077" y="1044" type="curve" smooth="yes"/>
      <point x="1077" y="1347"/>
      <point x="849" y="1500"/>
      <point x="504" y="1500" type="curve" smooth="yes"/>
    </contour>
    <contour>
      <point x="58" y="1134" type="line"/>
      <point x="58" y="926" type="line"/>
      <point x="1304" y="926" type="line"/>
      <point x="1304" y="1134" type="line"/>
    </contour>
    <contour>
      <point x="58" y="594" type="line"/>
      <point x="58" y="560" type="line"/>
      <point x="265" y="560" type="line" smooth="yes"/>
      <point x="375" y="560"/>
      <point x="428" y="515"/>
      <point x="443" y="386" type="curve" smooth="yes"/>
      <point x="446" y="360" type="line" smooth="yes"/>
      <point x="473" y="128"/>
      <point x="562" y="-32"/>
      <point x="822" y="-32" type="curve" smooth="yes"/>
      <point x="1076" y="-32"/>
      <point x="1180" y="115"/>
      <point x="1180" y="332" type="curve" smooth="yes"/>
      <point x="1180" y="557" type="line"/>
      <point x="976" y="557" type="line"/>
      <point x="976" y="312" type="line" smooth="yes"/>
      <point x="976" y="258"/>
      <point x="952" y="234"/>
      <point x="910" y="234" type="curve" smooth="yes"/>
      <point x="872" y="234"/>
      <point x="844" y="257"/>
      <point x="844" y="310" type="curve" smooth="yes"/>
      <point x="844" y="327" type="line" smooth="yes"/>
      <point x="844" y="484"/>
      <point x="760" y="594"/>
      <point x="526" y="594" type="curve" smooth="yes"/>
    </contour>
  </outline>
</glyph>
<glyph name="ruble" format="2">
  <advance width="1489"/>
  <unicode hex="20BD"/>
  <outline>
    <contour>
      <point x="644" y="1500" type="line"/>
      <point x="644" y="1294" type="line"/>
      <point x="800" y="1294" type="line" smooth="yes"/>
      <point x="945" y="1294"/>
      <point x="1033" y="1227"/>
      <point x="1033" y="1089" type="curve" smooth="yes"/>
      <point x="1033" y="951"/>
      <point x="945" y="884"/>
      <point x="800" y="884" type="curve" smooth="yes"/>
      <point x="644" y="884" type="line"/>
      <point x="644" y="678" type="line"/>
      <point x="950" y="678" type="line" smooth="yes"/>
      <point x="1259" y="678"/>
      <point x="1463" y="816"/>
      <point x="1463" y="1089" type="curve" smooth="yes"/>
      <point x="1463" y="1362"/>
      <point x="1259" y="1500"/>
      <point x="950" y="1500" type="curve" smooth="yes"/>
    </contour>
    <contour>
      <point x="224" y="1500" type="line"/>
      <point x="224" y="0" type="line"/>
      <point x="644" y="0" type="line"/>
      <point x="644" y="1500" type="line"/>
    </contour>
    <contour>
      <point x="48" y="559" type="line"/>
      <point x="48" y="351" type="line"/>
      <point x="1146" y="351" type="line"/>
      <point x="1146" y="559" type="line"/>
    </contour>
  </outline>
</glyph>
<glyph name="numero" format="2">
  <advance width="2928"/>
  <unicode hex="2116"/>
  <outline>
    <contour>
      <point x="448" y="0" type="line"/>
      <point x="448" y="943" type="line"/>
      <point x="518" y="1500" type="line"/>
      <point x="224" y="1500" type="line"/>
      <point x="224" y="0" type="line"/>
    </contour>
    <contour>
      <point x="1265" y="639" type="line"/>
      <point x="518" y="1500" type="line"/>
      <point x="448" y="943" type="line"/>
      <point x="1265" y="0" type="line"/>
    </contour>
    <contour>
      <point x="1489" y="0" type="line"/>
      <point x="1489" y="1500" type="line"/>
      <point x="1265" y="1500" type="line"/>
      <point x="1265" y="639" type="line"/>
      <point x="1255" y="639" type="line"/>
      <point x="1265" y="0" type="line"/>
    </contour>
    <contour>
      <point x="2273" y="482" type="curve" smooth="yes"/>
      <point x="2617" y="482"/>
      <point x="2876" y="666"/>
      <point x="2876" y="998" type="curve" smooth="yes"/>
      <point x="2876" y="1329"/>
      <point x="2617" y="1514"/>
      <point x="2273" y="1514" type="curve" smooth="yes"/>
      <point x="1929" y="1514"/>
      <point x="1670" y="1329"/>
      <point x="1670" y="998" type="curve" smooth="yes"/>
      <point x="1670" y="666"/>
      <point x="1929" y="482"/>
    </contour>
    <contour>
      <point x="2273" y="656" type="curve" smooth="yes"/>
      <point x="2162" y="656"/>
      <point x="2096" y="780"/>
      <point x="2096" y="998" type="curve" smooth="yes"/>
      <point x="2096" y="1214"/>
      <point x="2162" y="1340"/>
      <point x="2273" y="1340" type="curve" smooth="yes"/>
      <point x="2383" y="1340"/>
      <point x="2450" y="1220"/>
      <point x="2450" y="1014" type="curve" smooth="yes"/>
      <point x="2450" y="786"/>
      <point x="2383" y="656"/>
    </contour>
    <contour>
      <point x="1706" y="208" type="line"/>
      <point x="1706" y="0" type="line"/>
      <point x="2840" y="0" type="line"/>
      <point x="2840" y="208" type="line"/>
    </contour>
  </outline>
</glyph>
<glyph name="fi" format="2">
  <advance width="1604"/>
  <unicode hex="FB01"/>
  <outline>
    <contour>
      <point x="-10" y="1140" type="line"/>
      <point x="-10" y="932" type="line"/>
      <point x="1426" y="932" type="line"/>
      <point x="1426" y="1140" type="line"/>
    </contour>
    <contour>
      <point x="218" y="1168" type="line"/>
      <point x="218" y="0" type="line"/>
      <point x="618" y="0" type="line"/>
      <point x="618" y="1217" type="line"/>
    </contour>
    <contour>
      <point x="1022" y="1140" type="line"/>
      <point x="1022" y="0" type="line"/>
      <point x="1426" y="0" type="line"/>
      <point x="1426" y="1140" type="line"/>
    </contour>
    <contour>
      <point x="901" y="1624" type="line"/>
      <point x="535" y="1624"/>
      <point x="218" y="1510"/>
      <point x="218" y="1168" type="curve"/>
      <point x="618" y="1217" type="line"/>
      <point x="618" y="1401"/>
      <point x="735" y="1474"/>
      <point x="939" y="1474" type="curve"/>
    </contour>
    <contour>
      <point x="901" y="1624" type="curve"/>
      <point x="939" y="1474" type="line"/>
      <point x="1072" y="1474"/>
      <point x="1167" y="1444"/>
      <point x="1220" y="1407" type="curve"/>
      <point x="1229" y="1452" type="line"/>
      <point x="1102" y="1452"/>
      <point x="1006" y="1428"/>
      <point x="1006" y="1312" type="curve" smooth="yes"/>
      <point x="1006" y="1225"/>
      <point x="1101" y="1182"/>
      <point x="1211" y="1182" type="curve" smooth="yes"/>
      <point x="1361" y="1182"/>
      <point x="1443" y="1245"/>
      <point x="1443" y="1354" type="curve" smooth="yes"/>
      <point x="1443" y="1507"/>
      <point x="1219" y="1624"/>
    </contour>
  </outline>
</glyph>
<glyph name="fl" format="2">
  <advance width="1604"/>
  <unicode hex="FB02"/>
  <outline>
    <contour>
      <point x="-10" y="1140" type="line"/>
      <point x="-10" y="932" type="line"/>
      <point x="902" y="932" type="line"/>
      <point x="902" y="1140" type="line"/>
    </contour>
    <contour>
      <point x="218" y="1186" type="line"/>
      <point x="218" y="0" type="line"/>
      <point x="618" y="0" type="line"/>
      <point x="618" y="1285" type="line"/>
    </contour>
    <contour>
      <point x="659" y="1562" type="line"/>
      <point x="423" y="1562"/>
      <point x="218" y="1433"/>
      <point x="218" y="1186" type="curve"/>
      <point x="618" y="1285" type="line"/>
      <point x="618" y="1383"/>
      <point x="659" y="1422"/>
      <point x="729" y="1422" type="curve"/>
    </contour>
    <contour>
      <point x="659" y="1562" type="curve"/>
      <point x="729" y="1422" type="line"/>
      <point x="778" y="1422"/>
      <point x="815" y="1393"/>
      <point x="836" y="1359" type="curve"/>
      <point x="835" y="1410" type="line"/>
      <point x="754" y="1410"/>
      <point x="692" y="1383"/>
      <point x="692" y="1291" type="curve" smooth="yes"/>
      <point x="692" y="1209"/>
      <point x="756" y="1175"/>
      <point x="828" y="1175" type="curve" smooth="yes"/>
      <point x="933" y="1175"/>
      <point x="989" y="1239"/>
      <point x="989" y="1334" type="curve" smooth="yes"/>
      <point x="989" y="1465"/>
      <point x="853" y="1562"/>
    </contour>
    <contour>
      <point x="1022" y="1500" type="line"/>
      <point x="1022" y="0" type="line"/>
      <point x="1426" y="0" type="line"/>
      <point x="1426" y="1500" type="line"/>
    </contour>
  </outline>
</glyph>
<glyph name="_U" format="2">
  <advance width="1737"/>
  <anchor x="934" y="1500" name="top"/>
  <anchor x="1523" y="1500" name="topright"/>
  <outline>
    <contour>
      <point x="215" y="578" type="line" smooth="yes"/>
      <point x="215" y="196"/>
      <point x="439" y="-22"/>
      <point x="869" y="-22" type="curve" smooth="yes"/>
      <point x="1299" y="-22"/>
      <point x="1523" y="196"/>
      <point x="1523" y="578" type="curve" smooth="yes"/>
      <point x="1523" y="1500" type="line"/>
      <point x="1251" y="1500" type="line"/>
      <point x="1251" y="498" type="line" smooth="yes"/>
      <point x="1251" y="300"/>
      <point x="1152" y="181"/>
      <point x="946" y="181" type="curve" smooth="yes"/>
      <point x="740" y="181"/>
      <point x="641" y="300"/>
      <point x="641" y="498" type="curve" smooth="yes"/>
      <point x="641" y="1500" type="line"/>
      <point x="215" y="1500" type="line"/>
    </contour>
  </outline>
</glyph>
<glyph name="_U.horn" format="2">
  <advance width="608"/>
  <anchor x="174" y="1500" name="_topright"/>
  <outline>
    <contour>
      <point x="209" y="1500" type="curve" smooth="yes"/>
      <point x="145" y="1500" type="line"/>
      <point x="145" y="1300" type="line"/>
      <point x="184" y="1300" type="line" smooth="yes"/>
      <point x="372" y="1300"/>
      <point x="516" y="1405"/>
      <point x="516" y="1607" type="curve" smooth="yes"/>
      <point x="516" y="1764"/>
      <point x="418" y="1867"/>
      <point x="261" y="1867" type="curve" smooth="yes"/>
      <point x="160" y="1867"/>
      <point x="92" y="1811"/>
      <point x="92" y="1721" type="curve" smooth="yes"/>
      <point x="92" y="1597"/>
      <point x="237" y="1549"/>
      <point x="353" y="1604" type="curve"/>
      <point x="353" y="1540"/>
      <point x="308" y="1500"/>
    </contour>
  </outline>
</glyph>
<glyph name="_corner.Serif.001" format="2">
  <advance width="39"/>
  <anchor x="0" y="74" name="left"/>
  <outline>
    <contour>
      <point x="0" y="200" type="move"/>
      <point x="-160" y="200" type="line"/>
      <point x="-160" y="0" type="line"/>
      <point x="20" y="0" type="line"/>
    </contour>
  </outline>
</glyph>
<glyph name="_zero.slash" format="2">
  <advance width="1200"/>
  <anchor x="505" y="750" name="_center"/>
  <outline>
    <contour>
      <point x="819" y="1264" type="line"/>
      <point x="20" y="368" type="line"/>
      <point x="191" y="226" type="line"/>
      <point x="990" y="1122" type="line"/>
    </contour>
  </outline>
</glyph>
<glyph name="caroncomb.alt" format="2">
  <anchor x="562" y="1500" name="_topright"/>
  <outline>
    <contour>
      <point x="672" y="1050" type="line"/>
      <point x="852" y="1050" type="line"/>
      <point x="1014" y="1500" type="line"/>
      <point x="686" y="1500" type="line"/>
    </contour>
  </outline>
</glyph>
<glyph name="eight.dnom" format="2">
  <advance width="840"/>
  <outline>
    <contour>
      <point x="50" y="587" type="curve" smooth="yes"/>
      <point x="50" y="410"/>
      <point x="224" y="354"/>
      <point x="367" y="306" type="curve" smooth="yes"/>
      <point x="382" y="301" type="line" smooth="yes"/>
      <point x="448" y="279"/>
      <point x="516" y="255"/>
      <point x="516" y="191" type="curve" smooth="yes"/>
      <point x="516" y="135"/>
      <point x="478" y="100"/>
      <point x="414" y="100" type="curve" smooth="yes"/>
      <point x="339" y="100"/>
      <point x="285" y="144"/>
      <point x="285" y="218" type="curve" smooth="yes"/>
      <point x="285" y="272"/>
      <point x="317" y="311"/>
      <point x="347" y="335" type="curve"/>
      <point x="332" y="381" type="line"/>
      <point x="188" y="361"/>
      <point x="42" y="313"/>
      <point x="42" y="185" type="curve" smooth="yes"/>
      <point x="42" y="57"/>
      <point x="209" y="-13"/>
      <point x="401" y="-13" type="curve" smooth="yes"/>
      <point x="638" y="-13"/>
      <point x="798" y="79"/>
      <point x="798" y="253" type="curve" smooth="yes"/>
      <point x="798" y="438"/>
      <point x="607" y="500"/>
      <point x="453" y="548" type="curve" smooth="yes"/>
      <point x="437" y="553" type="line" smooth="yes"/>
      <point x="364" y="576"/>
      <point x="319" y="591"/>
      <point x="319" y="642" type="curve" smooth="yes"/>
      <point x="319" y="690"/>
      <point x="357" y="713"/>
      <point x="412" y="713" type="curve" smooth="yes"/>
      <point x="473" y="713"/>
      <point x="525" y="682"/>
      <point x="525" y="620" type="curve" smooth="yes"/>
      <point x="525" y="564"/>
      <point x="471" y="532"/>
      <point x="422" y="508" type="curve"/>
      <point x="433" y="474" type="line"/>
      <point x="599" y="490"/>
      <point x="762" y="543"/>
      <point x="762" y="653" type="curve" smooth="yes"/>
      <point x="762" y="757"/>
      <point x="622" y="823"/>
      <point x="428" y="823" type="curve" smooth="yes"/>
      <point x="229" y="823"/>
      <point x="50" y="751"/>
    </contour>
  </outline>
</glyph>
<glyph name="f_f" format="2">
  <advance width="1773"/>
  <outline>
    <contour>
      <point x="-10" y="1140" type="line"/>
      <point x="-10" y="932" type="line"/>
      <point x="1738" y="932" type="line"/>
      <point x="1738" y="1140" type="line"/>
    </contour>
    <contour>
      <point x="218" y="1176" type="line"/>
      <point x="218" y="0" type="line"/>
      <point x="618" y="0" type="line"/>
      <point x="618" y="1285" type="line"/>
    </contour>
    <contour>
      <point x="679" y="1592" type="line"/>
      <point x="433" y="1592"/>
      <point x="218" y="1463"/>
      <point x="218" y="1176" type="curve"/>
      <point x="618" y="1285" type="line"/>
      <point x="618" y="1405"/>
      <point x="664" y="1452"/>
      <point x="743" y="1452" type="curve"/>
    </contour>
    <contour>
      <point x="679" y="1592" type="curve"/>
      <point x="743" y="1452" type="line"/>
      <point x="786" y="1452"/>
      <point x="818" y="1423"/>
      <point x="836" y="1389" type="curve"/>
      <point x="845" y="1430" type="line"/>
      <point x="758" y="1430"/>
      <point x="692" y="1404"/>
      <point x="692" y="1316" type="curve" smooth="yes"/>
      <point x="692" y="1238"/>
      <point x="756" y="1205"/>
      <point x="828" y="1205" type="curve" smooth="yes"/>
      <point x="933" y="1205"/>
      <point x="989" y="1271"/>
      <point x="989" y="1370" type="curve" smooth="yes"/>
      <point x="989" y="1498"/>
      <point x="861" y="1592"/>
    </contour>
    <contour>
      <point x="1022" y="1236" type="line"/>
      <point x="1022" y="0" type="line"/>
      <point x="1422" y="0" type="line"/>
      <point x="1422" y="1295" type="line"/>
    </contour>
    <contour>
      <point x="1559" y="1642" type="line"/>
      <point x="1273" y="1642"/>
      <point x="1022" y="1516"/>
      <point x="1022" y="1236" type="curve"/>
      <point x="1422" y="1295" type="line"/>
      <point x="1422" y="1436"/>
      <point x="1487" y="1492"/>
      <point x="1597" y="1492" type="curve"/>
    </contour>
    <contour>
      <point x="1559" y="1642" type="curve"/>
      <point x="1597" y="1492" type="line"/>
      <point x="1673" y="1492"/>
      <point x="1728" y="1454"/>
      <point x="1758" y="1409" type="curve"/>
      <point x="1777" y="1490" type="line"/>
      <point x="1650" y="1490"/>
      <point x="1554" y="1466"/>
      <point x="1554" y="1350" type="curve" smooth="yes"/>
      <point x="1554" y="1256"/>
      <point x="1644" y="1210"/>
      <point x="1749" y="1210" type="curve" smooth="yes"/>
      <point x="1893" y="1210"/>
      <point x="1971" y="1298"/>
      <point x="1971" y="1400" type="curve" smooth="yes"/>
      <point x="1971" y="1546"/>
      <point x="1801" y="1642"/>
    </contour>
  </outline>
</glyph>
<glyph name="f_f_i" format="2">
  <advance width="2408"/>
  <outline>
    <contour>
      <point x="218" y="1146" type="line"/>
      <point x="218" y="0" type="line"/>
      <point x="618" y="0" type="line"/>
      <point x="618" y="1255" type="line"/>
    </contour>
    <contour>
      <point x="675" y="1558" type="line"/>
      <point x="431" y="1558"/>
      <point x="218" y="1430"/>
      <point x="218" y="1146" type="curve"/>
      <point x="618" y="1255" type="line"/>
      <point x="618" y="1375"/>
      <point x="660" y="1422"/>
      <point x="739" y="1422" type="curve"/>
    </contour>
    <contour>
      <point x="675" y="1558" type="curve"/>
      <point x="739" y="1422" type="line"/>
      <point x="786" y="1422"/>
      <point x="820" y="1393"/>
      <point x="840" y="1359" type="curve"/>
      <point x="849" y="1400" type="line"/>
      <point x="762" y="1400"/>
      <point x="696" y="1375"/>
      <point x="696" y="1292" type="curve" smooth="yes"/>
      <point x="696" y="1224"/>
      <point x="760" y="1195"/>
      <point x="832" y="1195" type="curve" smooth="yes"/>
      <point x="937" y="1195"/>
      <point x="993" y="1255"/>
      <point x="993" y="1346" type="curve" smooth="yes"/>
      <point x="993" y="1468"/>
      <point x="862" y="1558"/>
    </contour>
    <contour>
      <point x="1022" y="1168" type="line"/>
      <point x="1022" y="0" type="line"/>
      <point x="1422" y="0" type="line"/>
      <point x="1422" y="1217" type="line"/>
    </contour>
    <contour>
      <point x="1826" y="1140" type="line"/>
      <point x="1826" y="0" type="line"/>
      <point x="2230" y="0" type="line"/>
      <point x="2230" y="1140" type="line"/>
    </contour>
    <contour>
      <point x="-10" y="1140" type="line"/>
      <point x="-10" y="932" type="line"/>
      <point x="2230" y="932" type="line"/>
      <point x="2230" y="1140" type="line"/>
    </contour>
    <contour>
      <point x="1705" y="1624" type="line"/>
      <point x="1339" y="1624"/>
      <point x="1022" y="1510"/>
      <point x="1022" y="1168" type="curve"/>
      <point x="1422" y="1217" type="line"/>
      <point x="1422" y="1401"/>
      <point x="1539" y="1474"/>
      <point x="1743" y="1474" type="curve"/>
    </contour>
    <contour>
      <point x="1705" y="1624" type="curve"/>
      <point x="1743" y="1474" type="line"/>
      <point x="1865" y="1474"/>
      <point x="1971" y="1444"/>
      <point x="2024" y="1407" type="curve"/>
      <point x="2033" y="1452" type="line"/>
      <point x="1906" y="1452"/>
      <point x="1810" y="1428"/>
      <point x="1810" y="1312" type="curve" smooth="yes"/>
      <point x="1810" y="1225"/>
      <point x="1905" y="1182"/>
      <point x="2015" y="1182" type="curve" smooth="yes"/>
      <point x="2165" y="1182"/>
      <point x="2247" y="1244"/>
      <point x="2247" y="1352" type="curve" smooth="yes"/>
      <point x="2247" y="1506"/>
      <point x="2023" y="1624"/>
    </contour>
  </outline>
</glyph>
<glyph name="f_f_l" format="2">
  <advance width="2408"/>
  <outline>
    <contour>
      <point x="218" y="1146" type="line"/>
      <point x="218" y="0" type="line"/>
      <point x="618" y="0" type="line"/>
      <point x="618" y="1255" type="line"/>
    </contour>
    <contour>
      <point x="679" y="1562" type="line"/>
      <point x="433" y="1562"/>
      <point x="218" y="1433"/>
      <point x="218" y="1146" type="curve"/>
      <point x="618" y="1255" type="line"/>
      <point x="618" y="1375"/>
      <point x="664" y="1422"/>
      <point x="743" y="1422" type="curve"/>
    </contour>
    <contour>
      <point x="679" y="1562" type="curve"/>
      <point x="743" y="1422" type="line"/>
      <point x="786" y="1422"/>
      <point x="818" y="1393"/>
      <point x="836" y="1359" type="curve"/>
      <point x="845" y="1400" type="line"/>
      <point x="758" y="1400"/>
      <point x="692" y="1374"/>
      <point x="692" y="1286" type="curve" smooth="yes"/>
      <point x="692" y="1208"/>
      <point x="756" y="1175"/>
      <point x="828" y="1175" type="curve" smooth="yes"/>
      <point x="933" y="1175"/>
      <point x="989" y="1241"/>
      <point x="989" y="1340" type="curve" smooth="yes"/>
      <point x="989" y="1468"/>
      <point x="861" y="1562"/>
    </contour>
    <contour>
      <point x="1022" y="1186" type="line"/>
      <point x="1022" y="0" type="line"/>
      <point x="1422" y="0" type="line"/>
      <point x="1422" y="1285" type="line"/>
    </contour>
    <contour>
      <point x="1463" y="1562" type="line"/>
      <point x="1227" y="1562"/>
      <point x="1022" y="1433"/>
      <point x="1022" y="1186" type="curve"/>
      <point x="1422" y="1285" type="line"/>
      <point x="1422" y="1383"/>
      <point x="1463" y="1422"/>
      <point x="1533" y="1422" type="curve"/>
    </contour>
    <contour>
      <point x="1463" y="1562" type="curve"/>
      <point x="1533" y="1422" type="line"/>
      <point x="1582" y="1422"/>
      <point x="1619" y="1393"/>
      <point x="1640" y="1359" type="curve"/>
      <point x="1639" y="1410" type="line"/>
      <point x="1558" y="1410"/>
      <point x="1496" y="1383"/>
      <point x="1496" y="1291" type="curve" smooth="yes"/>
      <point x="1496" y="1209"/>
      <point x="1560" y="1175"/>
      <point x="1632" y="1175" type="curve" smooth="yes"/>
      <point x="1737" y="1175"/>
      <point x="1793" y="1239"/>
      <point x="1793" y="1334" type="curve" smooth="yes"/>
      <point x="1793" y="1465"/>
      <point x="1657" y="1562"/>
    </contour>
    <contour>
      <point x="1826" y="1500" type="line"/>
      <point x="1826" y="0" type="line"/>
      <point x="2230" y="0" type="line"/>
      <point x="2230" y="1500" type="line"/>
    </contour>
    <contour>
      <point x="-10" y="1140" type="line"/>
      <point x="-10" y="932" type="line"/>
      <point x="1706" y="932" type="line"/>
      <point x="1706" y="1140" type="line"/>
    </contour>
  </outline>
</glyph>
